{
.appVersion = "1271";
date = "2019-11-28 10:50:22 +0000";
familyName = GowunBatang_01;
fontMaster = (
{
ascender = 800;
capHeight = 700;
descender = -200;
id = "210D674B-AD98-4874-A618-1698A23DB8A1";
xHeight = 500;
}
);
glyphs = (
{
glyphname = "kiyeokCompa-ko";
lastChange = "2019-11-29 11:50:58 +0000";
layers = (
{
layerId = "210D674B-AD98-4874-A618-1698A23DB8A1";
paths = (
{
closed = 1;
nodes = (
"705 463 OFFCURVE",
"718 515 OFFCURVE",
"720 518 CURVE SMOOTH",
"724 527 OFFCURVE",
"720 534 OFFCURVE",
"715 538 CURVE",
"650 559 LINE SMOOTH",
"642 562 OFFCURVE",
"639 562 OFFCURVE",
"632 559 CURVE SMOOTH",
"587 543 OFFCURVE",
"491 536 OFFCURVE",
"424 533 CURVE SMOOTH",
"353 530 OFFCURVE",
"237 527 OFFCURVE",
"194 541 CURVE SMOOTH",
"183 545 OFFCURVE",
"174 527 OFFCURVE",
"179 519 CURVE SMOOTH",
"183 512 OFFCURVE",
"195 495 OFFCURVE",
"210 482 CURVE SMOOTH",
"223 470 OFFCURVE",
"228 465 OFFCURVE",
"256 472 CURVE SMOOTH",
"301 483 OFFCURVE",
"368 485 OFFCURVE",
"435 490 CURVE SMOOTH",
"470 493 OFFCURVE",
"586 499 OFFCURVE",
"621 499 CURVE SMOOTH",
"624 499 OFFCURVE",
"635 501 OFFCURVE",
"634 486 CURVE SMOOTH",
"626 398 OFFCURVE",
"605 232 OFFCURVE",
"586 147 CURVE SMOOTH",
"583 132 OFFCURVE",
"585 114 OFFCURVE",
"594 111 CURVE SMOOTH",
"613 107 OFFCURVE",
"632 125 OFFCURVE",
"644 168 CURVE SMOOTH",
"668 251 OFFCURVE",
"686 371 OFFCURVE",
"702 448 CURVE SMOOTH"
);
}
);
width = 900;
}
);
note = cid00358;
unicode = 3131;
},
{
glyphname = "ssangkiyeokCompa-ko";
lastChange = "2019-11-29 11:50:58 +0000";
layers = (
{
layerId = "210D674B-AD98-4874-A618-1698A23DB8A1";
paths = (
{
closed = 1;
nodes = (
"428 444 OFFCURVE",
"446 502 OFFCURVE",
"448 506 CURVE SMOOTH",
"452 517 OFFCURVE",
"448 526 OFFCURVE",
"441 529 CURVE SMOOTH",
"390 550 LINE",
"382 552 OFFCURVE",
"376 552 OFFCURVE",
"372 550 CURVE SMOOTH",
"339 532 OFFCURVE",
"175 525 OFFCURVE",
"114 536 CURVE",
"103 539 OFFCURVE",
"93 521 OFFCURVE",
"96 513 CURVE",
"101 506 OFFCURVE",
"113 495 OFFCURVE",
"130 481 CURVE SMOOTH",
"141 470 OFFCURVE",
"151 465 OFFCURVE",
"178 472 CURVE SMOOTH",
"237 485 OFFCURVE",
"307 491 OFFCURVE",
"343 491 CURVE SMOOTH",
"347 491 OFFCURVE",
"362 493 OFFCURVE",
"361 476 CURVE SMOOTH",
"350 369 OFFCURVE",
"307 187 OFFCURVE",
"288 138 CURVE SMOOTH",
"277 105 OFFCURVE",
"316 98 OFFCURVE",
"337 135 CURVE SMOOTH",
"361 178 OFFCURVE",
"399 345 OFFCURVE",
"423 425 CURVE SMOOTH"
);
},
{
closed = 1;
nodes = (
"791 470 OFFCURVE",
"799 523 OFFCURVE",
"802 529 CURVE SMOOTH",
"809 541 OFFCURVE",
"802 551 OFFCURVE",
"795 552 CURVE SMOOTH",
"772 557 OFFCURVE",
"752 561 OFFCURVE",
"733 568 CURVE",
"726 569 OFFCURVE",
"721 569 OFFCURVE",
"716 568 CURVE",
"681 552 OFFCURVE",
"537 543 OFFCURVE",
"485 551 CURVE SMOOTH",
"474 552 OFFCURVE",
"463 538 OFFCURVE",
"467 529 CURVE",
"474 520 OFFCURVE",
"483 510 OFFCURVE",
"498 494 CURVE",
"511 483 OFFCURVE",
"515 478 OFFCURVE",
"542 485 CURVE SMOOTH",
"590 498 OFFCURVE",
"663 504 OFFCURVE",
"701 504 CURVE SMOOTH",
"706 504 OFFCURVE",
"718 505 OFFCURVE",
"718 489 CURVE SMOOTH",
"713 397 OFFCURVE",
"698 226 OFFCURVE",
"682 142 CURVE SMOOTH",
"679 127 OFFCURVE",
"677 103 OFFCURVE",
"692 103 CURVE SMOOTH",
"711 103 OFFCURVE",
"732 120 OFFCURVE",
"744 172 CURVE SMOOTH",
"755 214 OFFCURVE",
"775 370 OFFCURVE",
"788 452 CURVE SMOOTH"
);
}
);
width = 900;
}
);
note = cid00359;
unicode = 3132;
},
{
glyphname = "kiyeokSiosCompa-ko";
lastChange = "2019-11-29 11:50:58 +0000";
layers = (
{
layerId = "210D674B-AD98-4874-A618-1698A23DB8A1";
paths = (
{
closed = 1;
nodes = (
"717 528 OFFCURVE",
"700 539 OFFCURVE",
"689 546 CURVE",
"680 554 OFFCURVE",
"649 566 OFFCURVE",
"632 573 CURVE",
"616 577 OFFCURVE",
"601 581 OFFCURVE",
"590 558 CURVE SMOOTH",
"586 549 OFFCURVE",
"586 543 OFFCURVE",
"597 538 CURVE SMOOTH",
"633 519 OFFCURVE",
"631 503 OFFCURVE",
"610 442 CURVE SMOOTH",
"592 387 OFFCURVE",
"526 231 OFFCURVE",
"414 141 CURVE SMOOTH",
"390 122 OFFCURVE",
"424 110 OFFCURVE",
"450 126 CURVE SMOOTH",
"525 174 OFFCURVE",
"586 266 OFFCURVE",
"631 346 CURVE",
"688 297 OFFCURVE",
"767 212 OFFCURVE",
"820 138 CURVE SMOOTH",
"825 130 OFFCURVE",
"856 142 OFFCURVE",
"859 159 CURVE SMOOTH",
"863 190 OFFCURVE",
"848 229 OFFCURVE",
"828 242 CURVE",
"776 266 OFFCURVE",
"727 306 OFFCURVE",
"648 380 CURVE",
"659 400 OFFCURVE",
"666 418 OFFCURVE",
"673 435 CURVE SMOOTH",
"686 468 OFFCURVE",
"695 488 OFFCURVE",
"710 519 CURVE"
);
},
{
closed = 1;
nodes = (
"341 484 OFFCURVE",
"343 483 OFFCURVE",
"343 472 CURVE SMOOTH",
"343 213 LINE SMOOTH",
"343 184 OFFCURVE",
"345 155 OFFCURVE",
"348 128 CURVE SMOOTH",
"349 121 OFFCURVE",
"352 107 OFFCURVE",
"365 111 CURVE SMOOTH",
"397 119 OFFCURVE",
"404 190 OFFCURVE",
"404 233 CURVE SMOOTH",
"407 431 LINE SMOOTH",
"407 454 OFFCURVE",
"413 508 OFFCURVE",
"418 520 CURVE SMOOTH",
"422 529 OFFCURVE",
"414 533 OFFCURVE",
"407 536 CURVE",
"390 539 OFFCURVE",
"374 541 OFFCURVE",
"355 545 CURVE",
"347 548 OFFCURVE",
"343 545 OFFCURVE",
"336 542 CURVE SMOOTH",
"312 534 OFFCURVE",
"247 531 OFFCURVE",
"219 528 CURVE SMOOTH",
"134 520 OFFCURVE",
"95 524 OFFCURVE",
"60 532 CURVE SMOOTH",
"49 535 OFFCURVE",
"38 517 OFFCURVE",
"41 508 CURVE SMOOTH",
"44 501 OFFCURVE",
"61 481 OFFCURVE",
"73 472 CURVE SMOOTH",
"84 465 OFFCURVE",
"92 463 OFFCURVE",
"109 467 CURVE SMOOTH",
"154 478 OFFCURVE",
"271 484 OFFCURVE",
"336 484 CURVE SMOOTH"
);
}
);
width = 900;
}
);
note = cid00360;
unicode = 3133;
},
{
glyphname = "nieunCompa-ko";
lastChange = "2019-11-29 11:50:58 +0000";
layers = (
{
layerId = "210D674B-AD98-4874-A618-1698A23DB8A1";
paths = (
{
closed = 1;
nodes = (
"283 188 OFFCURVE",
"281 201 OFFCURVE",
"281 230 CURVE SMOOTH",
"281 414 LINE SMOOTH",
"281 445 OFFCURVE",
"282 474 OFFCURVE",
"285 495 CURVE SMOOTH",
"286 502 OFFCURVE",
"282 509 OFFCURVE",
"273 517 CURVE SMOOTH",
"254 532 OFFCURVE",
"219 549 OFFCURVE",
"196 552 CURVE SMOOTH",
"182 554 OFFCURVE",
"171 549 OFFCURVE",
"162 537 CURVE SMOOTH",
"156 528 OFFCURVE",
"157 521 OFFCURVE",
"165 517 CURVE SMOOTH",
"210 490 OFFCURVE",
"217 452 OFFCURVE",
"216 408 CURVE SMOOTH",
"216 228 LINE SMOOTH",
"216 179 OFFCURVE",
"236 141 OFFCURVE",
"267 141 CURVE SMOOTH",
"352 142 OFFCURVE",
"422 147 OFFCURVE",
"510 150 CURVE SMOOTH",
"608 153 OFFCURVE",
"642 155 OFFCURVE",
"719 150 CURVE SMOOTH",
"724 150 OFFCURVE",
"741 165 OFFCURVE",
"740 174 CURVE",
"737 185 OFFCURVE",
"728 204 OFFCURVE",
"719 213 CURVE SMOOTH",
"710 224 OFFCURVE",
"703 227 OFFCURVE",
"684 220 CURVE SMOOTH",
"648 207 OFFCURVE",
"605 200 OFFCURVE",
"518 195 CURVE SMOOTH",
"434 190 OFFCURVE",
"397 188 OFFCURVE",
"314 188 CURVE SMOOTH"
);
}
);
width = 900;
}
);
note = cid00361;
unicode = 3134;
},
{
glyphname = "nieunCieucCompa-ko";
lastChange = "2019-11-29 11:50:58 +0000";
layers = (
{
layerId = "210D674B-AD98-4874-A618-1698A23DB8A1";
paths = (
{
closed = 1;
nodes = (
"404 533 OFFCURVE",
"396 520 OFFCURVE",
"399 511 CURVE",
"399 509 OFFCURVE",
"423 485 OFFCURVE",
"430 478 CURVE",
"442 470 OFFCURVE",
"448 464 OFFCURVE",
"476 471 CURVE SMOOTH",
"503 478 OFFCURVE",
"540 484 OFFCURVE",
"571 488 CURVE",
"602 481 OFFCURVE",
"603 470 OFFCURVE",
"603 454 CURVE SMOOTH",
"600 413 OFFCURVE",
"550 234 OFFCURVE",
"389 127 CURVE SMOOTH",
"360 106 OFFCURVE",
"392 88 OFFCURVE",
"421 104 CURVE SMOOTH",
"514 159 OFFCURVE",
"578 241 OFFCURVE",
"621 314 CURVE",
"676 267 OFFCURVE",
"744 196 OFFCURVE",
"789 128 CURVE SMOOTH",
"795 120 OFFCURVE",
"824 132 OFFCURVE",
"829 147 CURVE SMOOTH",
"836 176 OFFCURVE",
"820 215 OFFCURVE",
"801 230 CURVE",
"755 255 OFFCURVE",
"710 281 OFFCURVE",
"637 343 CURVE",
"661 390 OFFCURVE",
"672 430 OFFCURVE",
"675 449 CURVE SMOOTH",
"676 464 OFFCURVE",
"654 481 OFFCURVE",
"631 492 CURVE",
"724 497 OFFCURVE",
"739 498 OFFCURVE",
"797 495 CURVE SMOOTH",
"801 495 OFFCURVE",
"813 504 OFFCURVE",
"813 513 CURVE SMOOTH",
"813 524 OFFCURVE",
"808 538 OFFCURVE",
"801 549 CURVE SMOOTH",
"794 560 OFFCURVE",
"789 562 OFFCURVE",
"772 559 CURVE SMOOTH",
"713 546 OFFCURVE",
"678 538 OFFCURVE",
"594 530 CURVE SMOOTH",
"529 525 OFFCURVE",
"482 524 OFFCURVE",
"415 532 CURVE SMOOTH"
);
},
{
closed = 1;
nodes = (
"188 443 LINE SMOOTH",
"188 462 OFFCURVE",
"191 481 OFFCURVE",
"194 493 CURVE SMOOTH",
"195 502 OFFCURVE",
"191 509 OFFCURVE",
"182 514 CURVE",
"162 529 OFFCURVE",
"132 542 OFFCURVE",
"101 549 CURVE SMOOTH",
"88 552 OFFCURVE",
"78 546 OFFCURVE",
"71 531 CURVE",
"67 526 OFFCURVE",
"70 514 OFFCURVE",
"79 511 CURVE",
"113 495 OFFCURVE",
"125 477 OFFCURVE",
"125 420 CURVE SMOOTH",
"125 235 LINE SMOOTH",
"125 193 OFFCURVE",
"140 153 OFFCURVE",
"171 156 CURVE SMOOTH",
"260 167 OFFCURVE",
"393 207 OFFCURVE",
"442 234 CURVE",
"466 250 OFFCURVE",
"462 284 OFFCURVE",
"436 271 CURVE SMOOTH",
"388 250 OFFCURVE",
"279 225 OFFCURVE",
"211 220 CURVE SMOOTH",
"186 217 OFFCURVE",
"188 240 OFFCURVE",
"188 259 CURVE SMOOTH"
);
}
);
width = 900;
}
);
note = cid00362;
unicode = 3135;
},
{
glyphname = "nieunHieuhCompa-ko";
lastChange = "2019-11-29 11:50:58 +0000";
layers = (
{
layerId = "210D674B-AD98-4874-A618-1698A23DB8A1";
paths = (
{
closed = 1;
nodes = (
"192 433 LINE SMOOTH",
"192 452 OFFCURVE",
"193 471 OFFCURVE",
"196 484 CURVE SMOOTH",
"197 491 OFFCURVE",
"194 498 OFFCURVE",
"185 504 CURVE SMOOTH",
"164 520 OFFCURVE",
"135 532 OFFCURVE",
"104 539 CURVE SMOOTH",
"91 542 OFFCURVE",
"81 536 OFFCURVE",
"74 522 CURVE SMOOTH",
"71 515 OFFCURVE",
"73 504 OFFCURVE",
"82 501 CURVE",
"117 485 OFFCURVE",
"127 467 OFFCURVE",
"127 411 CURVE SMOOTH",
"127 221 LINE SMOOTH",
"127 177 OFFCURVE",
"143 138 OFFCURVE",
"174 141 CURVE SMOOTH",
"263 152 OFFCURVE",
"347 193 OFFCURVE",
"393 221 CURVE",
"421 235 OFFCURVE",
"416 264 OFFCURVE",
"389 253 CURVE SMOOTH",
"341 230 OFFCURVE",
"282 211 OFFCURVE",
"214 204 CURVE SMOOTH",
"189 201 OFFCURVE",
"192 224 OFFCURVE",
"192 243 CURVE SMOOTH"
);
},
{
closed = 1;
nodes = (
"331 475 OFFCURVE",
"320 458 OFFCURVE",
"325 450 CURVE SMOOTH",
"328 443 OFFCURVE",
"342 433 OFFCURVE",
"353 418 CURVE",
"364 409 OFFCURVE",
"371 401 OFFCURVE",
"395 408 CURVE SMOOTH",
"428 416 OFFCURVE",
"500 429 OFFCURVE",
"580 434 CURVE SMOOTH",
"706 439 OFFCURVE",
"753 440 OFFCURVE",
"811 437 CURVE SMOOTH",
"815 437 OFFCURVE",
"828 445 OFFCURVE",
"828 454 CURVE SMOOTH",
"828 465 OFFCURVE",
"822 475 OFFCURVE",
"815 486 CURVE SMOOTH",
"810 495 OFFCURVE",
"805 500 OFFCURVE",
"790 495 CURVE SMOOTH",
"746 483 OFFCURVE",
"683 471 OFFCURVE",
"584 466 CURVE SMOOTH",
"522 463 OFFCURVE",
"408 459 OFFCURVE",
"342 472 CURVE SMOOTH"
);
},
{
closed = 1;
nodes = (
"475 383 OFFCURVE",
"426 313 OFFCURVE",
"426 248 CURVE SMOOTH",
"426 187 OFFCURVE",
"483 113 OFFCURVE",
"590 118 CURVE SMOOTH",
"698 118 OFFCURVE",
"755 188 OFFCURVE",
"755 254 CURVE SMOOTH",
"755 333 OFFCURVE",
"698 389 OFFCURVE",
"594 386 CURVE SMOOTH"
);
},
{
closed = 1;
nodes = (
"523 160 OFFCURVE",
"482 204 OFFCURVE",
"482 252 CURVE SMOOTH",
"482 304 OFFCURVE",
"515 349 OFFCURVE",
"594 352 CURVE SMOOTH",
"669 355 OFFCURVE",
"700 297 OFFCURVE",
"697 257 CURVE SMOOTH",
"693 205 OFFCURVE",
"657 164 OFFCURVE",
"590 163 CURVE SMOOTH"
);
},
{
closed = 1;
nodes = (
"447 605 OFFCURVE",
"439 582 OFFCURVE",
"447 574 CURVE SMOOTH",
"475 547 OFFCURVE",
"523 541 OFFCURVE",
"559 538 CURVE SMOOTH",
"612 533 OFFCURVE",
"670 539 OFFCURVE",
"690 547 CURVE SMOOTH",
"703 551 OFFCURVE",
"715 568 OFFCURVE",
"712 579 CURVE SMOOTH",
"711 586 OFFCURVE",
"700 595 OFFCURVE",
"689 595 CURVE SMOOTH",
"616 590 OFFCURVE",
"562 578 OFFCURVE",
"463 602 CURVE SMOOTH"
);
}
);
width = 900;
}
);
note = cid00363;
unicode = 3136;
},
{
glyphname = "tikeutCompa-ko";
lastChange = "2019-11-29 11:50:58 +0000";
layers = (
{
layerId = "210D674B-AD98-4874-A618-1698A23DB8A1";
paths = (
{
closed = 1;
nodes = (
"290 474 LINE",
"354 477 OFFCURVE",
"463 480 OFFCURVE",
"523 483 CURVE SMOOTH",
"619 486 OFFCURVE",
"653 486 OFFCURVE",
"705 483 CURVE SMOOTH",
"710 483 OFFCURVE",
"722 495 OFFCURVE",
"722 506 CURVE SMOOTH",
"722 514 OFFCURVE",
"710 533 OFFCURVE",
"703 540 CURVE SMOOTH",
"694 548 OFFCURVE",
"689 554 OFFCURVE",
"670 547 CURVE SMOOTH",
"646 539 OFFCURVE",
"573 529 OFFCURVE",
"497 526 CURVE SMOOTH",
"449 523 OFFCURVE",
"314 519 OFFCURVE",
"266 519 CURVE",
"243 528 OFFCURVE",
"211 539 OFFCURVE",
"196 540 CURVE SMOOTH",
"181 541 OFFCURVE",
"171 534 OFFCURVE",
"166 519 CURVE SMOOTH",
"162 510 OFFCURVE",
"164 504 OFFCURVE",
"173 501 CURVE SMOOTH",
"218 481 OFFCURVE",
"226 454 OFFCURVE",
"226 401 CURVE SMOOTH",
"226 206 LINE SMOOTH",
"226 157 OFFCURVE",
"243 131 OFFCURVE",
"278 130 CURVE SMOOTH",
"363 127 OFFCURVE",
"412 132 OFFCURVE",
"500 135 CURVE SMOOTH",
"596 135 OFFCURVE",
"637 140 OFFCURVE",
"714 135 CURVE SMOOTH",
"719 135 OFFCURVE",
"735 148 OFFCURVE",
"734 159 CURVE",
"731 170 OFFCURVE",
"724 183 OFFCURVE",
"716 194 CURVE SMOOTH",
"707 205 OFFCURVE",
"700 206 OFFCURVE",
"681 201 CURVE SMOOTH",
"645 190 OFFCURVE",
"586 183 OFFCURVE",
"497 178 CURVE SMOOTH",
"414 173 OFFCURVE",
"407 175 OFFCURVE",
"324 175 CURVE SMOOTH",
"295 175 OFFCURVE",
"290 185 OFFCURVE",
"290 214 CURVE SMOOTH"
);
}
);
width = 900;
}
);
note = cid00364;
unicode = 3137;
},
{
glyphname = "ssangtikeutCompa-ko";
lastChange = "2019-11-29 11:50:58 +0000";
layers = (
{
layerId = "210D674B-AD98-4874-A618-1698A23DB8A1";
paths = (
{
closed = 1;
nodes = (
"481 228 LINE SMOOTH",
"481 179 OFFCURVE",
"497 151 OFFCURVE",
"529 152 CURVE SMOOTH",
"621 157 OFFCURVE",
"709 163 OFFCURVE",
"790 159 CURVE SMOOTH",
"797 159 OFFCURVE",
"815 172 OFFCURVE",
"812 183 CURVE SMOOTH",
"809 192 OFFCURVE",
"804 202 OFFCURVE",
"796 213 CURVE SMOOTH",
"787 224 OFFCURVE",
"779 225 OFFCURVE",
"760 218 CURVE SMOOTH",
"733 207 OFFCURVE",
"672 200 OFFCURVE",
"576 199 CURVE SMOOTH",
"547 199 OFFCURVE",
"543 205 OFFCURVE",
"543 234 CURVE SMOOTH",
"543 492 LINE",
"624 497 OFFCURVE",
"718 502 OFFCURVE",
"777 499 CURVE SMOOTH",
"782 499 OFFCURVE",
"796 513 OFFCURVE",
"796 522 CURVE SMOOTH",
"796 529 OFFCURVE",
"787 546 OFFCURVE",
"780 553 CURVE SMOOTH",
"772 562 OFFCURVE",
"765 566 OFFCURVE",
"746 559 CURVE SMOOTH",
"708 545 OFFCURVE",
"588 536 OFFCURVE",
"527 536 CURVE",
"507 544 OFFCURVE",
"479 550 OFFCURVE",
"463 553 CURVE SMOOTH",
"451 556 OFFCURVE",
"441 551 OFFCURVE",
"434 535 CURVE",
"431 524 OFFCURVE",
"434 523 OFFCURVE",
"441 519 CURVE SMOOTH",
"480 500 OFFCURVE",
"481 473 OFFCURVE",
"481 425 CURVE SMOOTH"
);
},
{
closed = 1;
nodes = (
"397 487 OFFCURVE",
"407 500 OFFCURVE",
"407 509 CURVE SMOOTH",
"407 518 OFFCURVE",
"397 532 OFFCURVE",
"394 535 CURVE SMOOTH",
"386 546 OFFCURVE",
"380 550 OFFCURVE",
"361 543 CURVE SMOOTH",
"336 535 OFFCURVE",
"250 526 OFFCURVE",
"190 526 CURVE",
"167 534 OFFCURVE",
"133 544 OFFCURVE",
"117 547 CURVE SMOOTH",
"104 549 OFFCURVE",
"95 542 OFFCURVE",
"88 527 CURVE SMOOTH",
"84 518 OFFCURVE",
"88 510 OFFCURVE",
"95 507 CURVE SMOOTH",
"144 485 OFFCURVE",
"146 452 OFFCURVE",
"146 405 CURVE SMOOTH",
"146 191 LINE SMOOTH",
"146 148 OFFCURVE",
"164 126 OFFCURVE",
"189 129 CURVE SMOOTH",
"289 137 OFFCURVE",
"419 192 OFFCURVE",
"448 208 CURVE SMOOTH",
"472 224 OFFCURVE",
"471 259 OFFCURVE",
"444 243 CURVE SMOOTH",
"414 226 OFFCURVE",
"311 192 OFFCURVE",
"239 189 CURVE SMOOTH",
"211 188 OFFCURVE",
"213 205 OFFCURVE",
"213 224 CURVE SMOOTH",
"213 483 LINE",
"280 487 OFFCURVE",
"339 490 OFFCURVE",
"390 487 CURVE SMOOTH"
);
}
);
width = 900;
}
);
note = cid00365;
unicode = 3138;
},
{
glyphname = "rieulCompa-ko";
lastChange = "2019-11-29 11:50:58 +0000";
layers = (
{
layerId = "210D674B-AD98-4874-A618-1698A23DB8A1";
paths = (
{
closed = 1;
nodes = (
"603 517 OFFCURVE",
"609 517 OFFCURVE",
"609 504 CURVE SMOOTH",
"609 472 OFFCURVE",
"594 387 OFFCURVE",
"592 372 CURVE",
"536 364 OFFCURVE",
"332 356 OFFCURVE",
"281 356 CURVE",
"244 359 OFFCURVE",
"214 360 OFFCURVE",
"189 365 CURVE SMOOTH",
"180 367 OFFCURVE",
"167 343 OFFCURVE",
"172 335 CURVE SMOOTH",
"177 327 OFFCURVE",
"198 314 OFFCURVE",
"214 306 CURVE",
"219 301 OFFCURVE",
"222 297 OFFCURVE",
"222 286 CURVE SMOOTH",
"222 197 LINE SMOOTH",
"222 148 OFFCURVE",
"244 117 OFFCURVE",
"275 117 CURVE SMOOTH",
"340 116 OFFCURVE",
"409 120 OFFCURVE",
"498 123 CURVE SMOOTH",
"597 126 OFFCURVE",
"629 128 OFFCURVE",
"708 123 CURVE SMOOTH",
"713 123 OFFCURVE",
"730 137 OFFCURVE",
"729 146 CURVE",
"726 157 OFFCURVE",
"719 173 OFFCURVE",
"710 182 CURVE SMOOTH",
"701 193 OFFCURVE",
"694 195 OFFCURVE",
"675 188 CURVE SMOOTH",
"639 177 OFFCURVE",
"584 169 OFFCURVE",
"496 165 CURVE SMOOTH",
"413 160 OFFCURVE",
"391 157 OFFCURVE",
"319 160 CURVE SMOOTH",
"290 163 OFFCURVE",
"288 178 OFFCURVE",
"288 207 CURVE SMOOTH",
"288 312 LINE",
"380 320 OFFCURVE",
"612 327 OFFCURVE",
"659 323 CURVE",
"663 322 OFFCURVE",
"678 341 OFFCURVE",
"678 352 CURVE SMOOTH",
"678 360 OFFCURVE",
"654 374 OFFCURVE",
"641 381 CURVE",
"649 413 OFFCURVE",
"683 524 OFFCURVE",
"690 533 CURVE",
"694 541 OFFCURVE",
"690 548 OFFCURVE",
"683 551 CURVE SMOOTH",
"625 570 LINE",
"617 574 OFFCURVE",
"610 572 OFFCURVE",
"605 569 CURVE",
"558 554 OFFCURVE",
"487 548 OFFCURVE",
"407 545 CURVE SMOOTH",
"336 540 OFFCURVE",
"236 541 OFFCURVE",
"200 554 CURVE SMOOTH",
"191 557 OFFCURVE",
"178 537 OFFCURVE",
"181 529 CURVE SMOOTH",
"183 522 OFFCURVE",
"208 498 OFFCURVE",
"220 491 CURVE SMOOTH",
"233 484 OFFCURVE",
"241 482 OFFCURVE",
"257 486 CURVE SMOOTH",
"300 497 OFFCURVE",
"338 501 OFFCURVE",
"442 506 CURVE SMOOTH",
"554 511 OFFCURVE",
"596 517 OFFCURVE",
"600 517 CURVE SMOOTH"
);
}
);
width = 900;
}
);
note = cid00366;
unicode = 3139;
},
{
glyphname = "rieulKiyeokCompa-ko";
lastChange = "2019-11-29 11:50:58 +0000";
layers = (
{
layerId = "210D674B-AD98-4874-A618-1698A23DB8A1";
paths = (
{
closed = 1;
nodes = (
"178 362 OFFCURVE",
"156 364 OFFCURVE",
"131 368 CURVE SMOOTH",
"120 369 OFFCURVE",
"111 351 OFFCURVE",
"115 344 CURVE SMOOTH",
"120 336 OFFCURVE",
"134 327 OFFCURVE",
"150 319 CURVE",
"151 318 OFFCURVE",
"151 318 OFFCURVE",
"152 318 CURVE",
"161 313 OFFCURVE",
"165 305 OFFCURVE",
"165 294 CURVE SMOOTH",
"165 218 LINE SMOOTH",
"165 174 OFFCURVE",
"185 134 OFFCURVE",
"214 135 CURVE SMOOTH",
"337 138 OFFCURVE",
"465 192 OFFCURVE",
"515 218 CURVE SMOOTH",
"542 232 OFFCURVE",
"541 262 OFFCURVE",
"511 249 CURVE SMOOTH",
"463 230 OFFCURVE",
"337 188 OFFCURVE",
"246 191 CURVE SMOOTH",
"226 191 OFFCURVE",
"225 216 OFFCURVE",
"225 237 CURVE SMOOTH",
"225 322 LINE",
"283 330 OFFCURVE",
"397 336 OFFCURVE",
"431 333 CURVE SMOOTH",
"436 333 OFFCURVE",
"451 348 OFFCURVE",
"451 359 CURVE SMOOTH",
"451 368 OFFCURVE",
"427 379 OFFCURVE",
"415 386 CURVE",
"432 459 OFFCURVE",
"446 501 OFFCURVE",
"449 508 CURVE SMOOTH",
"452 516 OFFCURVE",
"449 522 OFFCURVE",
"442 526 CURVE",
"422 533 OFFCURVE",
"410 537 OFFCURVE",
"393 542 CURVE",
"385 546 OFFCURVE",
"383 545 OFFCURVE",
"376 542 CURVE",
"336 531 OFFCURVE",
"267 529 OFFCURVE",
"222 529 CURVE SMOOTH",
"193 529 OFFCURVE",
"171 530 OFFCURVE",
"147 534 CURVE SMOOTH",
"136 537 OFFCURVE",
"125 519 OFFCURVE",
"132 512 CURVE SMOOTH",
"139 504 OFFCURVE",
"144 496 OFFCURVE",
"160 484 CURVE SMOOTH",
"175 472 OFFCURVE",
"178 470 OFFCURVE",
"206 477 CURVE SMOOTH",
"246 488 OFFCURVE",
"354 494 OFFCURVE",
"367 494 CURVE SMOOTH",
"371 494 OFFCURVE",
"377 493 OFFCURVE",
"377 482 CURVE SMOOTH",
"377 462 OFFCURVE",
"376 410 OFFCURVE",
"371 375 CURVE",
"335 367 OFFCURVE",
"258 362 OFFCURVE",
"207 362 CURVE SMOOTH"
);
},
{
closed = 1;
nodes = (
"787 530 OFFCURVE",
"784 536 OFFCURVE",
"775 537 CURVE SMOOTH",
"756 540 OFFCURVE",
"743 543 OFFCURVE",
"722 548 CURVE SMOOTH",
"717 549 OFFCURVE",
"711 549 OFFCURVE",
"704 546 CURVE SMOOTH",
"662 530 OFFCURVE",
"538 518 OFFCURVE",
"484 531 CURVE SMOOTH",
"473 534 OFFCURVE",
"461 520 OFFCURVE",
"465 511 CURVE SMOOTH",
"468 503 OFFCURVE",
"487 486 OFFCURVE",
"498 477 CURVE",
"510 470 OFFCURVE",
"519 468 OFFCURVE",
"534 472 CURVE SMOOTH",
"611 488 OFFCURVE",
"635 490 OFFCURVE",
"704 493 CURVE SMOOTH",
"711 493 OFFCURVE",
"712 492 OFFCURVE",
"712 481 CURVE SMOOTH",
"709 226 LINE SMOOTH",
"709 197 OFFCURVE",
"708 151 OFFCURVE",
"712 126 CURVE SMOOTH",
"713 119 OFFCURVE",
"717 108 OFFCURVE",
"730 112 CURVE SMOOTH",
"762 123 OFFCURVE",
"772 202 OFFCURVE",
"772 247 CURVE SMOOTH",
"778 434 LINE SMOOTH",
"778 456 OFFCURVE",
"782 508 OFFCURVE",
"785 521 CURVE SMOOTH"
);
}
);
width = 900;
}
);
note = cid00367;
unicode = 313A;
},
{
glyphname = "rieulMieumCompa-ko";
lastChange = "2019-11-29 11:50:58 +0000";
layers = (
{
layerId = "210D674B-AD98-4874-A618-1698A23DB8A1";
paths = (
{
closed = 1;
nodes = (
"502 353 OFFCURVE",
"508 256 OFFCURVE",
"513 158 CURVE SMOOTH",
"514 139 OFFCURVE",
"519 127 OFFCURVE",
"534 130 CURVE SMOOTH",
"547 133 OFFCURVE",
"558 148 OFFCURVE",
"561 172 CURVE",
"613 175 OFFCURVE",
"742 176 OFFCURVE",
"779 173 CURVE SMOOTH",
"784 172 OFFCURVE",
"797 183 OFFCURVE",
"797 194 CURVE SMOOTH",
"797 203 OFFCURVE",
"775 216 OFFCURVE",
"767 223 CURVE",
"772 280 OFFCURVE",
"774 357 OFFCURVE",
"779 402 CURVE SMOOTH",
"786 458 OFFCURVE",
"790 489 OFFCURVE",
"795 505 CURVE SMOOTH",
"798 514 OFFCURVE",
"791 520 OFFCURVE",
"786 521 CURVE",
"766 528 OFFCURVE",
"750 529 OFFCURVE",
"731 534 CURVE SMOOTH",
"723 537 OFFCURVE",
"722 536 OFFCURVE",
"715 533 CURVE SMOOTH",
"680 520 OFFCURVE",
"613 511 OFFCURVE",
"533 512 CURVE",
"516 519 OFFCURVE",
"498 522 OFFCURVE",
"482 526 CURVE SMOOTH",
"471 529 OFFCURVE",
"460 526 OFFCURVE",
"453 509 CURVE",
"452 502 OFFCURVE",
"455 496 OFFCURVE",
"462 492 CURVE",
"489 472 OFFCURVE",
"496 447 OFFCURVE",
"499 396 CURVE SMOOTH"
);
},
{
closed = 1;
nodes = (
"166 365 OFFCURVE",
"144 368 OFFCURVE",
"119 371 CURVE SMOOTH",
"108 372 OFFCURVE",
"99 354 OFFCURVE",
"104 347 CURVE SMOOTH",
"108 340 OFFCURVE",
"123 331 OFFCURVE",
"138 323 CURVE SMOOTH",
"141 321 LINE SMOOTH",
"152 316 OFFCURVE",
"153 310 OFFCURVE",
"153 297 CURVE SMOOTH",
"153 219 LINE SMOOTH",
"153 175 OFFCURVE",
"173 136 OFFCURVE",
"202 137 CURVE SMOOTH",
"293 140 OFFCURVE",
"444 202 OFFCURVE",
"462 210 CURVE SMOOTH",
"490 224 OFFCURVE",
"489 251 OFFCURVE",
"458 241 CURVE SMOOTH",
"424 228 OFFCURVE",
"312 189 OFFCURVE",
"235 192 CURVE SMOOTH",
"215 192 OFFCURVE",
"213 218 OFFCURVE",
"213 238 CURVE SMOOTH",
"213 326 LINE",
"269 334 OFFCURVE",
"381 339 OFFCURVE",
"413 336 CURVE SMOOTH",
"416 336 OFFCURVE",
"432 351 OFFCURVE",
"432 362 CURVE SMOOTH",
"432 371 OFFCURVE",
"408 382 OFFCURVE",
"395 389 CURVE",
"414 464 OFFCURVE",
"429 503 OFFCURVE",
"432 511 CURVE SMOOTH",
"435 520 OFFCURVE",
"432 526 OFFCURVE",
"425 529 CURVE SMOOTH",
"405 536 OFFCURVE",
"394 539 OFFCURVE",
"378 543 CURVE SMOOTH",
"369 546 OFFCURVE",
"367 544 OFFCURVE",
"360 541 CURVE",
"320 530 OFFCURVE",
"256 528 OFFCURVE",
"210 528 CURVE SMOOTH",
"181 528 OFFCURVE",
"162 529 OFFCURVE",
"135 533 CURVE",
"126 536 OFFCURVE",
"114 518 OFFCURVE",
"121 511 CURVE SMOOTH",
"128 503 OFFCURVE",
"133 495 OFFCURVE",
"149 483 CURVE",
"162 470 OFFCURVE",
"166 471 OFFCURVE",
"196 476 CURVE",
"236 487 OFFCURVE",
"339 493 OFFCURVE",
"351 493 CURVE SMOOTH",
"355 493 OFFCURVE",
"361 492 OFFCURVE",
"361 481 CURVE SMOOTH",
"361 458 OFFCURVE",
"356 412 OFFCURVE",
"351 376 CURVE",
"315 368 OFFCURVE",
"246 364 OFFCURVE",
"197 364 CURVE SMOOTH"
);
},
{
closed = 1;
nodes = (
"554 475 LINE",
"715 484 LINE SMOOTH",
"719 484 OFFCURVE",
"723 485 OFFCURVE",
"723 474 CURVE SMOOTH",
"723 413 OFFCURVE",
"721 351 OFFCURVE",
"721 218 CURVE",
"679 210 OFFCURVE",
"603 210 OFFCURVE",
"560 210 CURVE"
);
}
);
width = 900;
}
);
note = cid00368;
unicode = 313B;
},
{
glyphname = "rieulPieupCompa-ko";
lastChange = "2019-11-29 11:50:58 +0000";
layers = (
{
layerId = "210D674B-AD98-4874-A618-1698A23DB8A1";
paths = (
{
closed = 1;
nodes = (
"788 420 LINE SMOOTH",
"788 455 OFFCURVE",
"789 491 OFFCURVE",
"793 518 CURVE SMOOTH",
"794 527 OFFCURVE",
"788 532 OFFCURVE",
"781 537 CURVE SMOOTH",
"770 545 OFFCURVE",
"743 560 OFFCURVE",
"726 567 CURVE",
"710 571 OFFCURVE",
"698 567 OFFCURVE",
"691 555 CURVE SMOOTH",
"686 546 OFFCURVE",
"688 539 OFFCURVE",
"695 534 CURVE SMOOTH",
"734 508 OFFCURVE",
"732 486 OFFCURVE",
"732 436 CURVE SMOOTH",
"732 406 LINE",
"687 401 OFFCURVE",
"598 400 OFFCURVE",
"560 400 CURVE",
"560 427 OFFCURVE",
"559 461 OFFCURVE",
"564 482 CURVE",
"564 485 OFFCURVE",
"564 491 OFFCURVE",
"551 500 CURVE SMOOTH",
"536 511 OFFCURVE",
"517 523 OFFCURVE",
"494 531 CURVE SMOOTH",
"481 536 OFFCURVE",
"471 533 OFFCURVE",
"462 520 CURVE SMOOTH",
"457 513 OFFCURVE",
"459 505 OFFCURVE",
"466 500 CURVE SMOOTH",
"506 471 OFFCURVE",
"502 434 OFFCURVE",
"502 383 CURVE SMOOTH",
"502 200 LINE SMOOTH",
"502 188 OFFCURVE",
"502 177 OFFCURVE",
"503 166 CURVE SMOOTH",
"503 131 OFFCURVE",
"513 124 OFFCURVE",
"529 127 CURVE SMOOTH",
"542 130 OFFCURVE",
"555 142 OFFCURVE",
"559 169 CURVE",
"627 172 OFFCURVE",
"704 169 OFFCURVE",
"731 169 CURVE",
"732 150 OFFCURVE",
"733 131 OFFCURVE",
"748 134 CURVE",
"780 137 OFFCURVE",
"787 170 OFFCURVE",
"788 210 CURVE SMOOTH"
);
},
{
closed = 1;
nodes = (
"169 364 OFFCURVE",
"147 366 OFFCURVE",
"122 370 CURVE SMOOTH",
"111 371 OFFCURVE",
"102 354 OFFCURVE",
"107 346 CURVE SMOOTH",
"111 338 OFFCURVE",
"126 330 OFFCURVE",
"141 322 CURVE SMOOTH",
"144 320 LINE SMOOTH",
"155 315 OFFCURVE",
"156 308 OFFCURVE",
"156 296 CURVE SMOOTH",
"156 213 LINE SMOOTH",
"156 170 OFFCURVE",
"176 130 OFFCURVE",
"205 131 CURVE SMOOTH",
"296 136 OFFCURVE",
"439 195 OFFCURVE",
"457 205 CURVE SMOOTH",
"484 219 OFFCURVE",
"483 249 OFFCURVE",
"453 235 CURVE SMOOTH",
"420 222 OFFCURVE",
"314 183 OFFCURVE",
"239 186 CURVE SMOOTH",
"218 186 OFFCURVE",
"216 212 OFFCURVE",
"216 232 CURVE SMOOTH",
"216 325 LINE",
"271 333 OFFCURVE",
"374 338 OFFCURVE",
"407 335 CURVE SMOOTH",
"411 335 OFFCURVE",
"426 350 OFFCURVE",
"426 361 CURVE SMOOTH",
"426 370 OFFCURVE",
"402 381 OFFCURVE",
"389 389 CURVE",
"408 461 OFFCURVE",
"423 502 OFFCURVE",
"426 510 CURVE SMOOTH",
"429 519 OFFCURVE",
"425 525 OFFCURVE",
"420 528 CURVE",
"399 535 OFFCURVE",
"388 538 OFFCURVE",
"372 542 CURVE SMOOTH",
"363 545 OFFCURVE",
"361 543 OFFCURVE",
"354 540 CURVE",
"315 529 OFFCURVE",
"266 527 OFFCURVE",
"221 527 CURVE SMOOTH",
"192 527 OFFCURVE",
"165 528 OFFCURVE",
"138 532 CURVE",
"129 535 OFFCURVE",
"117 517 OFFCURVE",
"124 510 CURVE SMOOTH",
"131 502 OFFCURVE",
"136 494 OFFCURVE",
"152 482 CURVE SMOOTH",
"166 470 OFFCURVE",
"169 467 OFFCURVE",
"199 475 CURVE SMOOTH",
"239 486 OFFCURVE",
"333 492 OFFCURVE",
"346 492 CURVE SMOOTH",
"349 492 OFFCURVE",
"355 491 OFFCURVE",
"355 480 CURVE SMOOTH",
"355 457 OFFCURVE",
"350 411 OFFCURVE",
"346 375 CURVE",
"311 367 OFFCURVE",
"249 362 OFFCURVE",
"200 363 CURVE SMOOTH"
);
},
{
closed = 1;
nodes = (
"732 214 LINE",
"698 209 OFFCURVE",
"605 210 OFFCURVE",
"560 210 CURVE",
"560 359 LINE",
"629 362 OFFCURVE",
"697 363 OFFCURVE",
"732 363 CURVE"
);
}
);
width = 900;
}
);
note = cid00369;
unicode = 313C;
},
{
glyphname = "rieulSiosCompa-ko";
lastChange = "2019-11-29 11:50:58 +0000";
layers = (
{
layerId = "210D674B-AD98-4874-A618-1698A23DB8A1";
paths = (
{
closed = 1;
nodes = (
"141 360 OFFCURVE",
"120 362 OFFCURVE",
"93 365 CURVE SMOOTH",
"84 365 OFFCURVE",
"74 349 OFFCURVE",
"78 341 CURVE SMOOTH",
"83 333 OFFCURVE",
"97 325 OFFCURVE",
"113 317 CURVE",
"113 316 OFFCURVE",
"113 316 OFFCURVE",
"114 316 CURVE",
"125 309 OFFCURVE",
"126 304 OFFCURVE",
"126 291 CURVE SMOOTH",
"126 213 LINE SMOOTH",
"126 169 OFFCURVE",
"148 129 OFFCURVE",
"177 130 CURVE SMOOTH",
"268 135 OFFCURVE",
"416 194 OFFCURVE",
"434 204 CURVE SMOOTH",
"461 220 OFFCURVE",
"460 248 OFFCURVE",
"430 234 CURVE SMOOTH",
"395 221 OFFCURVE",
"287 185 OFFCURVE",
"209 185 CURVE SMOOTH",
"189 185 OFFCURVE",
"188 212 OFFCURVE",
"188 231 CURVE SMOOTH",
"188 320 LINE",
"249 328 OFFCURVE",
"370 333 OFFCURVE",
"404 330 CURVE SMOOTH",
"409 330 OFFCURVE",
"423 345 OFFCURVE",
"423 356 CURVE SMOOTH",
"423 364 OFFCURVE",
"399 376 OFFCURVE",
"386 383 CURVE",
"399 429 OFFCURVE",
"422 499 OFFCURVE",
"426 506 CURVE SMOOTH",
"429 514 OFFCURVE",
"424 520 OFFCURVE",
"419 523 CURVE",
"372 539 LINE SMOOTH",
"363 542 OFFCURVE",
"359 540 OFFCURVE",
"354 537 CURVE",
"315 524 OFFCURVE",
"231 522 OFFCURVE",
"185 522 CURVE SMOOTH",
"156 522 OFFCURVE",
"134 523 OFFCURVE",
"110 528 CURVE SMOOTH",
"99 531 OFFCURVE",
"89 514 OFFCURVE",
"94 506 CURVE",
"101 499 OFFCURVE",
"107 490 OFFCURVE",
"123 477 CURVE SMOOTH",
"138 466 OFFCURVE",
"141 465 OFFCURVE",
"169 472 CURVE SMOOTH",
"209 480 OFFCURVE",
"331 487 OFFCURVE",
"345 487 CURVE SMOOTH",
"348 487 OFFCURVE",
"355 486 OFFCURVE",
"355 475 CURVE SMOOTH",
"355 455 OFFCURVE",
"347 406 OFFCURVE",
"343 369 CURVE",
"305 364 OFFCURVE",
"221 359 OFFCURVE",
"170 359 CURVE SMOOTH"
);
},
{
closed = 1;
nodes = (
"647 414 LINE",
"683 494 LINE SMOOTH",
"688 505 OFFCURVE",
"672 518 OFFCURVE",
"663 526 CURVE SMOOTH",
"654 533 OFFCURVE",
"627 550 OFFCURVE",
"607 558 CURVE SMOOTH",
"592 565 OFFCURVE",
"576 566 OFFCURVE",
"563 546 CURVE",
"559 537 OFFCURVE",
"559 531 OFFCURVE",
"570 524 CURVE SMOOTH",
"605 504 OFFCURVE",
"605 478 OFFCURVE",
"585 418 CURVE SMOOTH",
"569 371 OFFCURVE",
"505 221 OFFCURVE",
"402 136 CURVE",
"381 115 OFFCURVE",
"413 100 OFFCURVE",
"442 119 CURVE SMOOTH",
"514 167 OFFCURVE",
"576 265 OFFCURVE",
"616 345 CURVE",
"670 288 OFFCURVE",
"738 204 OFFCURVE",
"778 137 CURVE SMOOTH",
"782 130 OFFCURVE",
"815 138 OFFCURVE",
"820 154 CURVE",
"826 185 OFFCURVE",
"814 224 OFFCURVE",
"796 240 CURVE",
"751 265 OFFCURVE",
"700 313 OFFCURVE",
"632 380 CURVE"
);
}
);
width = 900;
}
);
note = cid00370;
unicode = 313D;
},
{
glyphname = "rieulThieuthCompa-ko";
lastChange = "2019-11-29 11:50:58 +0000";
layers = (
{
layerId = "210D674B-AD98-4874-A618-1698A23DB8A1";
paths = (
{
closed = 1;
nodes = (
"155 364 OFFCURVE",
"134 364 OFFCURVE",
"107 368 CURVE SMOOTH",
"98 369 OFFCURVE",
"88 351 OFFCURVE",
"92 343 CURVE SMOOTH",
"97 336 OFFCURVE",
"111 327 OFFCURVE",
"127 319 CURVE",
"129 317 LINE",
"138 312 OFFCURVE",
"140 306 OFFCURVE",
"140 294 CURVE SMOOTH",
"140 214 LINE SMOOTH",
"140 170 OFFCURVE",
"162 132 OFFCURVE",
"191 132 CURVE SMOOTH",
"282 137 OFFCURVE",
"426 193 OFFCURVE",
"444 203 CURVE SMOOTH",
"471 217 OFFCURVE",
"470 248 OFFCURVE",
"440 237 CURVE SMOOTH",
"405 223 OFFCURVE",
"302 188 OFFCURVE",
"223 191 CURVE SMOOTH",
"203 191 OFFCURVE",
"202 216 OFFCURVE",
"202 237 CURVE SMOOTH",
"202 323 LINE",
"257 331 OFFCURVE",
"361 336 OFFCURVE",
"394 333 CURVE SMOOTH",
"398 333 OFFCURVE",
"414 347 OFFCURVE",
"414 359 CURVE SMOOTH",
"414 368 OFFCURVE",
"392 378 OFFCURVE",
"377 385 CURVE",
"393 436 OFFCURVE",
"409 502 OFFCURVE",
"414 509 CURVE",
"417 517 OFFCURVE",
"414 523 OFFCURVE",
"407 527 CURVE",
"387 534 OFFCURVE",
"376 538 OFFCURVE",
"359 542 CURVE",
"351 545 OFFCURVE",
"349 543 OFFCURVE",
"342 540 CURVE SMOOTH",
"303 528 OFFCURVE",
"244 526 OFFCURVE",
"199 526 CURVE SMOOTH",
"170 526 OFFCURVE",
"148 527 OFFCURVE",
"124 531 CURVE",
"114 534 OFFCURVE",
"101 514 OFFCURVE",
"108 509 CURVE SMOOTH",
"116 502 OFFCURVE",
"121 493 OFFCURVE",
"137 481 CURVE SMOOTH",
"152 470 OFFCURVE",
"155 467 OFFCURVE",
"183 474 CURVE SMOOTH",
"222 484 OFFCURVE",
"321 491 OFFCURVE",
"334 491 CURVE SMOOTH",
"338 491 OFFCURVE",
"344 490 OFFCURVE",
"344 478 CURVE SMOOTH",
"344 457 OFFCURVE",
"338 409 OFFCURVE",
"333 372 CURVE",
"304 367 OFFCURVE",
"224 363 OFFCURVE",
"184 363 CURVE SMOOTH"
);
},
{
closed = 1;
nodes = (
"482 232 LINE SMOOTH",
"482 183 OFFCURVE",
"499 155 OFFCURVE",
"530 156 CURVE SMOOTH",
"622 159 OFFCURVE",
"707 167 OFFCURVE",
"788 164 CURVE SMOOTH",
"792 164 OFFCURVE",
"810 176 OFFCURVE",
"807 187 CURVE SMOOTH",
"804 198 OFFCURVE",
"798 209 OFFCURVE",
"790 218 CURVE SMOOTH",
"781 229 OFFCURVE",
"773 230 OFFCURVE",
"754 223 CURVE SMOOTH",
"727 212 OFFCURVE",
"669 202 OFFCURVE",
"573 201 CURVE SMOOTH",
"544 201 OFFCURVE",
"539 206 OFFCURVE",
"539 235 CURVE SMOOTH",
"539 336 LINE",
"578 339 OFFCURVE",
"594 340 OFFCURVE",
"611 340 CURVE SMOOTH",
"677 340 OFFCURVE",
"692 341 OFFCURVE",
"741 338 CURVE SMOOTH",
"745 338 OFFCURVE",
"756 349 OFFCURVE",
"756 360 CURVE SMOOTH",
"756 369 OFFCURVE",
"744 383 OFFCURVE",
"741 387 CURVE",
"736 391 OFFCURVE",
"731 392 OFFCURVE",
"716 389 CURVE SMOOTH",
"687 382 OFFCURVE",
"658 378 OFFCURVE",
"603 377 CURVE",
"570 374 OFFCURVE",
"558 375 OFFCURVE",
"539 375 CURVE",
"539 493 LINE",
"618 500 OFFCURVE",
"691 503 OFFCURVE",
"751 500 CURVE SMOOTH",
"755 500 OFFCURVE",
"769 511 OFFCURVE",
"769 520 CURVE SMOOTH",
"769 529 OFFCURVE",
"760 540 OFFCURVE",
"753 547 CURVE",
"745 558 OFFCURVE",
"737 561 OFFCURVE",
"720 554 CURVE SMOOTH",
"680 538 OFFCURVE",
"580 533 OFFCURVE",
"522 533 CURVE",
"503 540 OFFCURVE",
"486 545 OFFCURVE",
"469 547 CURVE SMOOTH",
"455 549 OFFCURVE",
"445 543 OFFCURVE",
"440 530 CURVE SMOOTH",
"436 519 OFFCURVE",
"439 517 OFFCURVE",
"446 513 CURVE SMOOTH",
"479 494 OFFCURVE",
"481 468 OFFCURVE",
"482 420 CURVE SMOOTH"
);
}
);
width = 900;
}
);
note = cid00371;
unicode = 313E;
},
{
glyphname = "rieulPhieuphCompa-ko";
lastChange = "2019-11-29 11:50:58 +0000";
layers = (
{
layerId = "210D674B-AD98-4874-A618-1698A23DB8A1";
paths = (
{
closed = 1;
nodes = (
"122 364 OFFCURVE",
"98 366 OFFCURVE",
"74 370 CURVE SMOOTH",
"63 371 OFFCURVE",
"55 353 OFFCURVE",
"59 345 CURVE SMOOTH",
"62 338 OFFCURVE",
"78 330 OFFCURVE",
"94 322 CURVE",
"95 321 OFFCURVE",
"96 320 OFFCURVE",
"97 320 CURVE",
"104 315 OFFCURVE",
"107 307 OFFCURVE",
"107 296 CURVE SMOOTH",
"107 218 LINE SMOOTH",
"107 174 OFFCURVE",
"127 137 OFFCURVE",
"158 138 CURVE SMOOTH",
"248 141 OFFCURVE",
"379 201 OFFCURVE",
"400 214 CURVE SMOOTH",
"425 230 OFFCURVE",
"421 256 OFFCURVE",
"392 243 CURVE SMOOTH",
"359 230 OFFCURVE",
"267 198 OFFCURVE",
"190 195 CURVE SMOOTH",
"169 194 OFFCURVE",
"168 216 OFFCURVE",
"168 235 CURVE SMOOTH",
"168 325 LINE",
"223 333 OFFCURVE",
"325 338 OFFCURVE",
"357 335 CURVE SMOOTH",
"361 335 OFFCURVE",
"377 350 OFFCURVE",
"377 361 CURVE SMOOTH",
"377 370 OFFCURVE",
"353 381 OFFCURVE",
"340 388 CURVE",
"353 436 OFFCURVE",
"374 501 OFFCURVE",
"377 510 CURVE SMOOTH",
"380 519 OFFCURVE",
"377 525 OFFCURVE",
"370 528 CURVE",
"349 533 OFFCURVE",
"339 538 OFFCURVE",
"322 542 CURVE SMOOTH",
"313 545 OFFCURVE",
"312 543 OFFCURVE",
"305 540 CURVE",
"266 529 OFFCURVE",
"209 527 OFFCURVE",
"165 527 CURVE SMOOTH",
"134 527 OFFCURVE",
"115 528 OFFCURVE",
"90 532 CURVE SMOOTH",
"79 533 OFFCURVE",
"68 518 OFFCURVE",
"75 510 CURVE SMOOTH",
"80 503 OFFCURVE",
"89 493 OFFCURVE",
"103 482 CURVE SMOOTH",
"118 470 OFFCURVE",
"122 468 OFFCURVE",
"150 475 CURVE SMOOTH",
"190 486 OFFCURVE",
"282 492 OFFCURVE",
"296 492 CURVE SMOOTH",
"300 492 OFFCURVE",
"307 491 OFFCURVE",
"307 480 CURVE SMOOTH",
"307 457 OFFCURVE",
"301 410 OFFCURVE",
"296 373 CURVE",
"261 368 OFFCURVE",
"200 362 OFFCURVE",
"151 363 CURVE SMOOTH"
);
},
{
closed = 1;
nodes = (
"827 174 OFFCURVE",
"841 183 OFFCURVE",
"840 192 CURVE",
"837 201 OFFCURVE",
"831 215 OFFCURVE",
"824 224 CURVE SMOOTH",
"817 232 OFFCURVE",
"812 238 OFFCURVE",
"797 233 CURVE SMOOTH",
"769 225 OFFCURVE",
"749 221 OFFCURVE",
"721 218 CURVE",
"732 280 OFFCURVE",
"741 353 OFFCURVE",
"749 401 CURVE",
"752 410 OFFCURVE",
"744 417 OFFCURVE",
"739 420 CURVE SMOOTH",
"727 427 OFFCURVE",
"696 441 OFFCURVE",
"677 444 CURVE SMOOTH",
"664 445 OFFCURVE",
"655 442 OFFCURVE",
"648 425 CURVE SMOOTH",
"645 416 OFFCURVE",
"652 410 OFFCURVE",
"656 407 CURVE",
"690 391 OFFCURVE",
"686 358 OFFCURVE",
"683 314 CURVE SMOOTH",
"674 213 LINE",
"631 210 LINE SMOOTH",
"611 207 OFFCURVE",
"589 207 OFFCURVE",
"566 206 CURVE",
"565 267 OFFCURVE",
"565 313 OFFCURVE",
"568 342 CURVE SMOOTH",
"569 361 OFFCURVE",
"571 378 OFFCURVE",
"572 386 CURVE SMOOTH",
"572 393 OFFCURVE",
"571 397 OFFCURVE",
"556 408 CURVE SMOOTH",
"537 420 OFFCURVE",
"527 426 OFFCURVE",
"506 433 CURVE SMOOTH",
"495 436 OFFCURVE",
"481 437 OFFCURVE",
"472 418 CURVE SMOOTH",
"469 410 OFFCURVE",
"472 402 OFFCURVE",
"479 399 CURVE",
"512 380 OFFCURVE",
"516 336 OFFCURVE",
"519 288 CURVE SMOOTH",
"523 206 LINE",
"480 206 OFFCURVE",
"444 208 OFFCURVE",
"425 215 CURVE SMOOTH",
"417 219 OFFCURVE",
"405 201 OFFCURVE",
"408 194 CURVE SMOOTH",
"412 186 OFFCURVE",
"433 170 OFFCURVE",
"444 163 CURVE SMOOTH",
"456 156 OFFCURVE",
"461 156 OFFCURVE",
"477 157 CURVE",
"547 168 OFFCURVE",
"543 170 OFFCURVE",
"647 175 CURVE SMOOTH",
"722 178 OFFCURVE",
"748 177 OFFCURVE",
"823 174 CURVE SMOOTH"
);
},
{
closed = 1;
nodes = (
"422 521 OFFCURVE",
"411 505 OFFCURVE",
"414 498 CURVE",
"419 491 OFFCURVE",
"432 474 OFFCURVE",
"444 465 CURVE SMOOTH",
"459 456 OFFCURVE",
"467 456 OFFCURVE",
"487 459 CURVE",
"518 467 OFFCURVE",
"583 474 OFFCURVE",
"607 474 CURVE SMOOTH",
"663 477 OFFCURVE",
"702 484 OFFCURVE",
"795 476 CURVE SMOOTH",
"798 476 OFFCURVE",
"811 485 OFFCURVE",
"811 492 CURVE SMOOTH",
"811 503 OFFCURVE",
"802 520 OFFCURVE",
"795 528 CURVE SMOOTH",
"788 535 OFFCURVE",
"784 539 OFFCURVE",
"769 534 CURVE",
"716 521 OFFCURVE",
"660 515 OFFCURVE",
"600 512 CURVE SMOOTH",
"536 509 OFFCURVE",
"464 508 OFFCURVE",
"430 518 CURVE SMOOTH"
);
}
);
width = 900;
}
);
note = cid00372;
unicode = 313F;
},
{
glyphname = "rieulHieuhCompa-ko";
lastChange = "2019-11-29 11:50:58 +0000";
layers = (
{
layerId = "210D674B-AD98-4874-A618-1698A23DB8A1";
paths = (
{
closed = 1;
nodes = (
"509 372 OFFCURVE",
"460 304 OFFCURVE",
"460 242 CURVE SMOOTH",
"460 182 OFFCURVE",
"516 111 OFFCURVE",
"622 114 CURVE SMOOTH",
"725 117 OFFCURVE",
"783 184 OFFCURVE",
"783 248 CURVE SMOOTH",
"783 324 OFFCURVE",
"726 378 OFFCURVE",
"625 375 CURVE SMOOTH"
);
},
{
closed = 1;
nodes = (
"121 370 OFFCURVE",
"100 372 OFFCURVE",
"75 375 CURVE",
"64 378 OFFCURVE",
"55 359 OFFCURVE",
"59 352 CURVE SMOOTH",
"64 344 OFFCURVE",
"79 335 OFFCURVE",
"94 327 CURVE",
"95 326 OFFCURVE",
"97 325 OFFCURVE",
"98 325 CURVE",
"107 320 OFFCURVE",
"109 314 OFFCURVE",
"109 302 CURVE SMOOTH",
"109 223 LINE SMOOTH",
"109 179 OFFCURVE",
"129 139 OFFCURVE",
"158 140 CURVE SMOOTH",
"250 145 OFFCURVE",
"386 206 OFFCURVE",
"407 214 CURVE",
"433 230 OFFCURVE",
"432 257 OFFCURVE",
"402 246 CURVE SMOOTH",
"373 233 OFFCURVE",
"262 196 OFFCURVE",
"191 196 CURVE SMOOTH",
"170 196 OFFCURVE",
"169 222 OFFCURVE",
"169 242 CURVE SMOOTH",
"169 331 LINE",
"221 339 OFFCURVE",
"324 344 OFFCURVE",
"356 341 CURVE SMOOTH",
"361 341 OFFCURVE",
"375 355 OFFCURVE",
"375 366 CURVE SMOOTH",
"375 377 OFFCURVE",
"351 387 OFFCURVE",
"339 394 CURVE",
"356 466 OFFCURVE",
"372 504 OFFCURVE",
"375 512 CURVE SMOOTH",
"379 521 OFFCURVE",
"374 527 OFFCURVE",
"370 530 CURVE",
"321 545 LINE SMOOTH",
"312 548 OFFCURVE",
"310 543 OFFCURVE",
"303 542 CURVE",
"264 531 OFFCURVE",
"211 529 OFFCURVE",
"166 529 CURVE SMOOTH",
"137 529 OFFCURVE",
"116 530 OFFCURVE",
"91 534 CURVE",
"82 537 OFFCURVE",
"69 519 OFFCURVE",
"76 512 CURVE SMOOTH",
"84 504 OFFCURVE",
"88 496 OFFCURVE",
"104 484 CURVE SMOOTH",
"120 471 OFFCURVE",
"122 472 OFFCURVE",
"151 477 CURVE",
"193 488 OFFCURVE",
"280 494 OFFCURVE",
"296 494 CURVE SMOOTH",
"299 494 OFFCURVE",
"305 493 OFFCURVE",
"305 482 CURVE SMOOTH",
"305 462 OFFCURVE",
"300 416 OFFCURVE",
"296 379 CURVE",
"263 372 OFFCURVE",
"203 368 OFFCURVE",
"152 369 CURVE SMOOTH"
);
},
{
closed = 1;
nodes = (
"558 157 OFFCURVE",
"517 201 OFFCURVE",
"517 246 CURVE SMOOTH",
"517 295 OFFCURVE",
"550 337 OFFCURVE",
"625 340 CURVE SMOOTH",
"698 343 OFFCURVE",
"726 289 OFFCURVE",
"723 250 CURVE SMOOTH",
"720 199 OFFCURVE",
"685 163 OFFCURVE",
"622 160 CURVE SMOOTH"
);
},
{
closed = 1;
nodes = (
"383 462 OFFCURVE",
"374 446 OFFCURVE",
"377 438 CURVE SMOOTH",
"381 430 OFFCURVE",
"394 421 OFFCURVE",
"407 408 CURVE SMOOTH",
"415 399 OFFCURVE",
"423 391 OFFCURVE",
"447 398 CURVE SMOOTH",
"480 406 OFFCURVE",
"528 416 OFFCURVE",
"607 420 CURVE SMOOTH",
"729 428 OFFCURVE",
"767 426 OFFCURVE",
"825 421 CURVE SMOOTH",
"830 421 OFFCURVE",
"842 429 OFFCURVE",
"842 438 CURVE SMOOTH",
"842 449 OFFCURVE",
"835 462 OFFCURVE",
"830 471 CURVE",
"823 480 OFFCURVE",
"819 484 OFFCURVE",
"804 480 CURVE SMOOTH",
"761 467 OFFCURVE",
"707 462 OFFCURVE",
"610 455 CURVE SMOOTH",
"550 452 OFFCURVE",
"459 446 OFFCURVE",
"394 459 CURVE SMOOTH"
);
},
{
closed = 1;
nodes = (
"485 582 OFFCURVE",
"476 559 OFFCURVE",
"484 551 CURVE",
"513 530 OFFCURVE",
"560 520 OFFCURVE",
"596 517 CURVE SMOOTH",
"651 512 OFFCURVE",
"702 517 OFFCURVE",
"723 524 CURVE SMOOTH",
"736 529 OFFCURVE",
"746 547 OFFCURVE",
"745 558 CURVE SMOOTH",
"744 565 OFFCURVE",
"733 574 OFFCURVE",
"722 574 CURVE SMOOTH",
"659 570 OFFCURVE",
"590 560 OFFCURVE",
"501 579 CURVE SMOOTH"
);
}
);
width = 900;
}
);
note = cid00373;
unicode = 3140;
},
{
glyphname = "mieumCompa-ko";
lastChange = "2019-11-29 11:50:58 +0000";
layers = (
{
layerId = "210D674B-AD98-4874-A618-1698A23DB8A1";
paths = (
{
closed = 1;
nodes = (
"242 137 LINE",
"245 114 OFFCURVE",
"253 97 OFFCURVE",
"268 101 CURVE SMOOTH",
"280 104 OFFCURVE",
"294 118 OFFCURVE",
"297 142 CURVE",
"388 146 OFFCURVE",
"614 154 OFFCURVE",
"692 146 CURVE SMOOTH",
"696 146 OFFCURVE",
"709 159 OFFCURVE",
"709 170 CURVE SMOOTH",
"709 177 OFFCURVE",
"687 200 OFFCURVE",
"674 208 CURVE",
"685 268 OFFCURVE",
"700 362 OFFCURVE",
"708 409 CURVE",
"716 440 OFFCURVE",
"725 495 OFFCURVE",
"733 511 CURVE SMOOTH",
"736 518 OFFCURVE",
"733 524 OFFCURVE",
"726 527 CURVE",
"659 547 LINE",
"652 548 OFFCURVE",
"647 547 OFFCURVE",
"642 546 CURVE",
"626 538 OFFCURVE",
"571 531 OFFCURVE",
"541 528 CURVE SMOOTH",
"475 523 OFFCURVE",
"333 517 OFFCURVE",
"269 520 CURVE",
"246 528 OFFCURVE",
"211 538 OFFCURVE",
"196 541 CURVE SMOOTH",
"183 542 OFFCURVE",
"173 538 OFFCURVE",
"166 522 CURVE SMOOTH",
"163 515 OFFCURVE",
"165 509 OFFCURVE",
"172 505 CURVE SMOOTH",
"211 485 OFFCURVE",
"220 465 OFFCURVE",
"224 414 CURVE SMOOTH"
);
},
{
closed = 1;
nodes = (
"639 487 OFFCURVE",
"643 486 OFFCURVE",
"643 475 CURVE SMOOTH",
"623 198 LINE",
"552 186 OFFCURVE",
"341 185 OFFCURVE",
"296 189 CURVE",
"288 475 LINE",
"381 478 OFFCURVE",
"575 487 OFFCURVE",
"636 487 CURVE SMOOTH"
);
}
);
width = 900;
}
);
note = cid00374;
unicode = 3141;
},
{
glyphname = "pieupCompa-ko";
lastChange = "2019-11-29 11:50:58 +0000";
layers = (
{
layerId = "210D674B-AD98-4874-A618-1698A23DB8A1";
paths = (
{
closed = 1;
nodes = (
"251 125 LINE SMOOTH",
"252 102 OFFCURVE",
"258 88 OFFCURVE",
"274 89 CURVE SMOOTH",
"289 90 OFFCURVE",
"304 110 OFFCURVE",
"307 138 CURVE",
"398 141 OFFCURVE",
"542 145 OFFCURVE",
"639 145 CURVE",
"642 125 OFFCURVE",
"648 105 OFFCURVE",
"663 108 CURVE SMOOTH",
"690 111 OFFCURVE",
"701 149 OFFCURVE",
"701 192 CURVE SMOOTH",
"701 443 LINE SMOOTH",
"701 474 OFFCURVE",
"705 517 OFFCURVE",
"709 540 CURVE SMOOTH",
"710 545 OFFCURVE",
"705 552 OFFCURVE",
"694 561 CURVE SMOOTH",
"675 578 OFFCURVE",
"638 598 OFFCURVE",
"617 603 CURVE SMOOTH",
"604 606 OFFCURVE",
"593 601 OFFCURVE",
"584 588 CURVE SMOOTH",
"579 581 OFFCURVE",
"581 574 OFFCURVE",
"588 569 CURVE SMOOTH",
"633 540 OFFCURVE",
"639 502 OFFCURVE",
"638 437 CURVE SMOOTH",
"638 406 LINE",
"570 398 OFFCURVE",
"356 392 OFFCURVE",
"305 392 CURVE",
"305 398 LINE SMOOTH",
"305 429 OFFCURVE",
"307 466 OFFCURVE",
"310 489 CURVE SMOOTH",
"311 495 OFFCURVE",
"306 503 OFFCURVE",
"295 513 CURVE SMOOTH",
"276 529 OFFCURVE",
"248 547 OFFCURVE",
"225 552 CURVE SMOOTH",
"213 556 OFFCURVE",
"202 551 OFFCURVE",
"192 537 CURVE SMOOTH",
"187 528 OFFCURVE",
"189 521 OFFCURVE",
"196 518 CURVE",
"238 486 OFFCURVE",
"245 456 OFFCURVE",
"245 380 CURVE SMOOTH"
);
},
{
closed = 1;
nodes = (
"638 195 LINE",
"593 187 OFFCURVE",
"371 183 OFFCURVE",
"306 183 CURVE",
"305 347 LINE",
"393 350 OFFCURVE",
"579 356 OFFCURVE",
"638 356 CURVE"
);
}
);
width = 900;
}
);
note = cid00375;
unicode = 3142;
},
{
glyphname = "ssangpieupCompa-ko";
lastChange = "2019-11-29 11:50:58 +0000";
layers = (
{
layerId = "210D674B-AD98-4874-A618-1698A23DB8A1";
paths = (
{
closed = 1;
nodes = (
"517 157 LINE SMOOTH",
"517 126 OFFCURVE",
"524 118 OFFCURVE",
"537 119 CURVE SMOOTH",
"548 120 OFFCURVE",
"566 134 OFFCURVE",
"570 161 CURVE",
"605 161 OFFCURVE",
"677 160 OFFCURVE",
"731 160 CURVE",
"734 141 OFFCURVE",
"738 126 OFFCURVE",
"750 127 CURVE SMOOTH",
"785 130 OFFCURVE",
"791 174 OFFCURVE",
"791 219 CURVE SMOOTH",
"791 453 LINE SMOOTH",
"791 488 OFFCURVE",
"792 508 OFFCURVE",
"795 537 CURVE SMOOTH",
"795 545 OFFCURVE",
"793 552 OFFCURVE",
"782 563 CURVE SMOOTH",
"771 572 OFFCURVE",
"743 586 OFFCURVE",
"720 593 CURVE SMOOTH",
"708 597 OFFCURVE",
"694 593 OFFCURVE",
"687 580 CURVE SMOOTH",
"682 573 OFFCURVE",
"683 567 OFFCURVE",
"691 562 CURVE SMOOTH",
"731 535 OFFCURVE",
"730 513 OFFCURVE",
"730 455 CURVE SMOOTH",
"730 413 LINE",
"683 408 OFFCURVE",
"599 407 OFFCURVE",
"571 410 CURVE",
"572 453 OFFCURVE",
"574 489 OFFCURVE",
"577 510 CURVE SMOOTH",
"578 519 OFFCURVE",
"570 528 OFFCURVE",
"563 535 CURVE SMOOTH",
"550 546 OFFCURVE",
"534 559 OFFCURVE",
"515 566 CURVE SMOOTH",
"502 571 OFFCURVE",
"489 571 OFFCURVE",
"480 555 CURVE SMOOTH",
"473 543 OFFCURVE",
"480 537 OFFCURVE",
"485 533 CURVE SMOOTH",
"519 507 OFFCURVE",
"517 464 OFFCURVE",
"517 416 CURVE SMOOTH"
);
},
{
closed = 1;
nodes = (
"151 148 LINE SMOOTH",
"152 125 OFFCURVE",
"157 110 OFFCURVE",
"172 113 CURVE SMOOTH",
"185 114 OFFCURVE",
"199 129 OFFCURVE",
"203 153 CURVE",
"242 156 OFFCURVE",
"310 156 OFFCURVE",
"358 156 CURVE",
"361 139 OFFCURVE",
"365 125 OFFCURVE",
"378 126 CURVE SMOOTH",
"407 129 OFFCURVE",
"413 172 OFFCURVE",
"413 217 CURVE SMOOTH",
"413 418 LINE SMOOTH",
"413 455 OFFCURVE",
"413 474 OFFCURVE",
"417 505 CURVE SMOOTH",
"418 514 OFFCURVE",
"414 522 OFFCURVE",
"405 529 CURVE SMOOTH",
"389 541 OFFCURVE",
"372 553 OFFCURVE",
"349 562 CURVE SMOOTH",
"334 567 OFFCURVE",
"323 562 OFFCURVE",
"315 547 CURVE",
"312 539 OFFCURVE",
"312 535 OFFCURVE",
"319 528 CURVE",
"358 499 OFFCURVE",
"357 477 OFFCURVE",
"357 418 CURVE SMOOTH",
"357 396 LINE",
"314 391 OFFCURVE",
"237 388 OFFCURVE",
"200 391 CURVE",
"200 426 OFFCURVE",
"201 454 OFFCURVE",
"204 473 CURVE SMOOTH",
"205 482 OFFCURVE",
"197 491 OFFCURVE",
"190 499 CURVE",
"167 518 OFFCURVE",
"150 527 OFFCURVE",
"131 534 CURVE SMOOTH",
"115 538 OFFCURVE",
"103 533 OFFCURVE",
"96 518 CURVE SMOOTH",
"93 509 OFFCURVE",
"95 502 OFFCURVE",
"103 499 CURVE",
"146 467 OFFCURVE",
"143 426 OFFCURVE",
"146 381 CURVE"
);
},
{
closed = 1;
nodes = (
"730 206 LINE",
"693 201 OFFCURVE",
"607 201 OFFCURVE",
"571 201 CURVE",
"571 252 OFFCURVE",
"570 310 OFFCURVE",
"571 366 CURVE",
"613 369 OFFCURVE",
"689 367 OFFCURVE",
"730 367 CURVE"
);
},
{
closed = 1;
nodes = (
"357 203 LINE",
"326 200 OFFCURVE",
"247 197 OFFCURVE",
"204 197 CURVE",
"203 245 OFFCURVE",
"201 298 OFFCURVE",
"201 346 CURVE",
"270 349 OFFCURVE",
"322 350 OFFCURVE",
"357 350 CURVE"
);
}
);
width = 900;
}
);
note = cid00376;
unicode = 3143;
},
{
glyphname = "pieupSiosCompa-ko";
lastChange = "2019-11-29 11:50:58 +0000";
layers = (
{
layerId = "210D674B-AD98-4874-A618-1698A23DB8A1";
paths = (
{
closed = 1;
nodes = (
"426 406 LINE SMOOTH",
"426 441 OFFCURVE",
"427 473 OFFCURVE",
"431 500 CURVE SMOOTH",
"432 509 OFFCURVE",
"426 515 OFFCURVE",
"418 523 CURVE SMOOTH",
"407 532 OFFCURVE",
"380 547 OFFCURVE",
"363 552 CURVE SMOOTH",
"348 558 OFFCURVE",
"336 554 OFFCURVE",
"328 540 CURVE",
"325 532 OFFCURVE",
"326 525 OFFCURVE",
"332 520 CURVE",
"371 494 OFFCURVE",
"369 472 OFFCURVE",
"369 422 CURVE SMOOTH",
"369 396 LINE",
"319 391 OFFCURVE",
"204 391 OFFCURVE",
"170 391 CURVE",
"170 418 OFFCURVE",
"170 448 OFFCURVE",
"174 467 CURVE SMOOTH",
"175 471 OFFCURVE",
"174 475 OFFCURVE",
"161 486 CURVE SMOOTH",
"148 499 OFFCURVE",
"124 511 OFFCURVE",
"103 518 CURVE SMOOTH",
"90 522 OFFCURVE",
"79 517 OFFCURVE",
"70 504 CURVE",
"65 499 OFFCURVE",
"66 493 OFFCURVE",
"73 486 CURVE",
"113 458 OFFCURVE",
"113 420 OFFCURVE",
"113 369 CURVE SMOOTH",
"113 195 LINE SMOOTH",
"113 184 OFFCURVE",
"113 173 OFFCURVE",
"114 163 CURVE SMOOTH",
"114 128 OFFCURVE",
"123 120 OFFCURVE",
"139 123 CURVE SMOOTH",
"152 126 OFFCURVE",
"165 138 OFFCURVE",
"169 165 CURVE",
"244 168 OFFCURVE",
"341 170 OFFCURVE",
"368 170 CURVE",
"369 151 OFFCURVE",
"372 131 OFFCURVE",
"387 134 CURVE",
"418 137 OFFCURVE",
"425 170 OFFCURVE",
"426 210 CURVE SMOOTH"
);
},
{
closed = 1;
nodes = (
"707 512 OFFCURVE",
"692 522 OFFCURVE",
"681 530 CURVE SMOOTH",
"664 541 OFFCURVE",
"645 549 OFFCURVE",
"618 556 CURVE SMOOTH",
"605 559 OFFCURVE",
"590 562 OFFCURVE",
"579 539 CURVE SMOOTH",
"576 531 OFFCURVE",
"575 524 OFFCURVE",
"586 519 CURVE SMOOTH",
"621 500 OFFCURVE",
"623 485 OFFCURVE",
"604 424 CURVE SMOOTH",
"578 350 OFFCURVE",
"529 235 OFFCURVE",
"415 126 CURVE SMOOTH",
"393 107 OFFCURVE",
"426 92 OFFCURVE",
"450 111 CURVE SMOOTH",
"529 171 OFFCURVE",
"591 262 OFFCURVE",
"634 342 CURVE",
"687 281 OFFCURVE",
"752 201 OFFCURVE",
"795 131 CURVE SMOOTH",
"800 124 OFFCURVE",
"827 134 OFFCURVE",
"832 149 CURVE",
"839 181 OFFCURVE",
"826 220 OFFCURVE",
"807 235 CURVE",
"758 265 OFFCURVE",
"714 301 OFFCURVE",
"650 376 CURVE",
"657 389 OFFCURVE",
"663 402 OFFCURVE",
"668 417 CURVE SMOOTH",
"680 452 OFFCURVE",
"690 473 OFFCURVE",
"702 502 CURVE SMOOTH"
);
},
{
closed = 1;
nodes = (
"369 214 LINE",
"332 209 OFFCURVE",
"219 205 OFFCURVE",
"170 208 CURVE",
"170 350 LINE",
"243 353 OFFCURVE",
"332 354 OFFCURVE",
"369 354 CURVE"
);
}
);
width = 900;
}
);
note = cid00377;
unicode = 3144;
},
{
glyphname = "siosCompa-ko";
lastChange = "2019-11-29 11:50:58 +0000";
layers = (
{
layerId = "210D674B-AD98-4874-A618-1698A23DB8A1";
paths = (
{
closed = 1;
nodes = (
"383 348 OFFCURVE",
"270 222 OFFCURVE",
"151 159 CURVE SMOOTH",
"117 140 OFFCURVE",
"151 122 OFFCURVE",
"181 135 CURVE SMOOTH",
"282 175 OFFCURVE",
"383 268 OFFCURVE",
"452 364 CURVE",
"522 321 OFFCURVE",
"657 225 OFFCURVE",
"726 156 CURVE SMOOTH",
"733 149 OFFCURVE",
"765 167 OFFCURVE",
"762 183 CURVE",
"762 212 OFFCURVE",
"733 257 OFFCURVE",
"711 265 CURVE SMOOTH",
"638 289 OFFCURVE",
"549 343 OFFCURVE",
"475 396 CURVE",
"495 428 LINE SMOOTH",
"510 455 OFFCURVE",
"532 490 OFFCURVE",
"551 521 CURVE SMOOTH",
"554 526 OFFCURVE",
"549 536 OFFCURVE",
"535 550 CURVE SMOOTH",
"526 559 OFFCURVE",
"491 582 OFFCURVE",
"478 587 CURVE SMOOTH",
"459 594 OFFCURVE",
"448 596 OFFCURVE",
"435 577 CURVE SMOOTH",
"428 568 OFFCURVE",
"434 559 OFFCURVE",
"443 552 CURVE SMOOTH",
"477 528 OFFCURVE",
"454 482 OFFCURVE",
"439 454 CURVE SMOOTH"
);
}
);
width = 900;
}
);
note = cid00378;
unicode = 3145;
},
{
glyphname = "ssangSiosCompa-ko";
lastChange = "2019-11-29 11:50:58 +0000";
layers = (
{
layerId = "210D674B-AD98-4874-A618-1698A23DB8A1";
paths = (
{
closed = 1;
nodes = (
"322 97 OFFCURVE",
"374 86 OFFCURVE",
"395 102 CURVE SMOOTH",
"491 167 OFFCURVE",
"564 254 OFFCURVE",
"613 334 CURVE",
"673 281 OFFCURVE",
"737 208 OFFCURVE",
"786 141 CURVE",
"792 135 OFFCURVE",
"822 147 OFFCURVE",
"827 160 CURVE",
"831 193 OFFCURVE",
"815 232 OFFCURVE",
"796 247 CURVE",
"746 271 OFFCURVE",
"701 305 OFFCURVE",
"632 366 CURVE",
"643 386 OFFCURVE",
"652 405 OFFCURVE",
"660 424 CURVE SMOOTH",
"675 459 OFFCURVE",
"686 489 OFFCURVE",
"695 508 CURVE SMOOTH",
"698 513 OFFCURVE",
"696 521 OFFCURVE",
"684 532 CURVE SMOOTH",
"675 541 OFFCURVE",
"641 561 OFFCURVE",
"619 569 CURVE SMOOTH",
"604 574 OFFCURVE",
"588 577 OFFCURVE",
"577 554 CURVE SMOOTH",
"574 547 OFFCURVE",
"577 541 OFFCURVE",
"585 537 CURVE SMOOTH",
"625 513 OFFCURVE",
"606 466 OFFCURVE",
"595 433 CURVE SMOOTH",
"566 350 OFFCURVE",
"480 210 OFFCURVE",
"359 121 CURVE"
);
},
{
closed = 1;
nodes = (
"327 407 LINE",
"339 435 OFFCURVE",
"351 458 OFFCURVE",
"364 486 CURVE",
"365 493 OFFCURVE",
"362 497 OFFCURVE",
"350 508 CURVE SMOOTH",
"335 520 OFFCURVE",
"317 530 OFFCURVE",
"297 538 CURVE SMOOTH",
"282 543 OFFCURVE",
"268 546 OFFCURVE",
"257 526 CURVE SMOOTH",
"253 518 OFFCURVE",
"254 511 OFFCURVE",
"261 506 CURVE",
"296 490 OFFCURVE",
"281 445 OFFCURVE",
"262 405 CURVE SMOOTH",
"233 337 OFFCURVE",
"160 231 OFFCURVE",
"81 181 CURVE SMOOTH",
"54 162 OFFCURVE",
"93 150 OFFCURVE",
"117 163 CURVE SMOOTH",
"185 202 OFFCURVE",
"245 273 OFFCURVE",
"296 353 CURVE",
"331 320 OFFCURVE",
"397 260 OFFCURVE",
"423 220 CURVE SMOOTH",
"426 215 OFFCURVE",
"455 225 OFFCURVE",
"455 233 CURVE",
"466 261 OFFCURVE",
"445 294 OFFCURVE",
"422 309 CURVE",
"385 322 OFFCURVE",
"335 359 OFFCURVE",
"312 380 CURVE"
);
}
);
width = 900;
}
);
note = cid00379;
unicode = 3146;
},
{
glyphname = "ieungCompa-ko";
lastChange = "2019-11-29 11:50:58 +0000";
layers = (
{
layerId = "210D674B-AD98-4874-A618-1698A23DB8A1";
paths = (
{
closed = 1;
nodes = (
"201 214 OFFCURVE",
"313 128 OFFCURVE",
"449 131 CURVE SMOOTH",
"583 134 OFFCURVE",
"698 230 OFFCURVE",
"698 354 CURVE SMOOTH",
"698 491 OFFCURVE",
"583 569 OFFCURVE",
"450 566 CURVE SMOOTH",
"313 563 OFFCURVE",
"201 469 OFFCURVE",
"201 345 CURVE SMOOTH"
);
},
{
closed = 1;
nodes = (
"267 448 OFFCURVE",
"347 512 OFFCURVE",
"449 517 CURVE SMOOTH",
"549 522 OFFCURVE",
"629 466 OFFCURVE",
"629 354 CURVE SMOOTH",
"629 248 OFFCURVE",
"550 186 OFFCURVE",
"450 183 CURVE SMOOTH",
"348 178 OFFCURVE",
"267 238 OFFCURVE",
"267 346 CURVE SMOOTH"
);
}
);
width = 900;
}
);
note = cid00380;
unicode = 3147;
},
{
glyphname = "cieucCompa-ko";
lastChange = "2019-11-29 11:50:58 +0000";
layers = (
{
layerId = "210D674B-AD98-4874-A618-1698A23DB8A1";
paths = (
{
closed = 1;
nodes = (
"213 548 OFFCURVE",
"202 533 OFFCURVE",
"207 526 CURVE",
"207 524 OFFCURVE",
"228 498 OFFCURVE",
"236 490 CURVE SMOOTH",
"247 479 OFFCURVE",
"251 475 OFFCURVE",
"280 480 CURVE SMOOTH",
"315 485 OFFCURVE",
"400 496 OFFCURVE",
"429 499 CURVE",
"452 492 OFFCURVE",
"458 480 OFFCURVE",
"457 465 CURVE SMOOTH",
"452 396 OFFCURVE",
"335 238 OFFCURVE",
"173 158 CURVE SMOOTH",
"141 142 OFFCURVE",
"178 118 OFFCURVE",
"207 134 CURVE",
"315 184 OFFCURVE",
"405 263 OFFCURVE",
"461 333 CURVE",
"534 287 OFFCURVE",
"632 220 OFFCURVE",
"701 159 CURVE",
"708 154 OFFCURVE",
"738 170 OFFCURVE",
"738 187 CURVE",
"732 215 OFFCURVE",
"709 252 OFFCURVE",
"685 260 CURVE SMOOTH",
"621 279 OFFCURVE",
"558 314 OFFCURVE",
"481 361 CURVE",
"506 397 OFFCURVE",
"523 430 OFFCURVE",
"528 455 CURVE SMOOTH",
"531 470 OFFCURVE",
"508 490 OFFCURVE",
"484 501 CURVE",
"584 505 OFFCURVE",
"654 503 OFFCURVE",
"709 500 CURVE SMOOTH",
"713 500 OFFCURVE",
"727 508 OFFCURVE",
"727 517 CURVE SMOOTH",
"727 528 OFFCURVE",
"719 547 OFFCURVE",
"712 558 CURVE SMOOTH",
"705 569 OFFCURVE",
"700 573 OFFCURVE",
"684 568 CURVE SMOOTH",
"624 553 OFFCURVE",
"540 545 OFFCURVE",
"459 540 CURVE SMOOTH",
"395 537 OFFCURVE",
"288 536 OFFCURVE",
"221 547 CURVE SMOOTH"
);
}
);
width = 900;
}
);
note = cid00381;
unicode = 3148;
},
{
glyphname = "ssangcieucCompa-ko";
lastChange = "2019-11-29 11:50:58 +0000";
layers = (
{
layerId = "210D674B-AD98-4874-A618-1698A23DB8A1";
paths = (
{
closed = 1;
nodes = (
"779 492 OFFCURVE",
"792 501 OFFCURVE",
"792 508 CURVE SMOOTH",
"792 519 OFFCURVE",
"779 541 OFFCURVE",
"776 550 CURVE",
"769 558 OFFCURVE",
"762 561 OFFCURVE",
"746 557 CURVE SMOOTH",
"683 539 OFFCURVE",
"517 526 OFFCURVE",
"450 537 CURVE",
"438 537 OFFCURVE",
"431 522 OFFCURVE",
"435 514 CURVE SMOOTH",
"438 506 OFFCURVE",
"444 501 OFFCURVE",
"459 486 CURVE SMOOTH",
"471 475 OFFCURVE",
"475 468 OFFCURVE",
"500 476 CURVE SMOOTH",
"527 483 OFFCURVE",
"549 486 OFFCURVE",
"576 489 CURVE",
"589 485 OFFCURVE",
"598 476 OFFCURVE",
"593 452 CURVE SMOOTH",
"580 386 OFFCURVE",
"502 213 OFFCURVE",
"366 120 CURVE SMOOTH",
"342 104 OFFCURVE",
"376 86 OFFCURVE",
"405 99 CURVE",
"487 149 OFFCURVE",
"564 243 OFFCURVE",
"611 327 CURVE",
"671 275 OFFCURVE",
"732 207 OFFCURVE",
"783 138 CURVE SMOOTH",
"789 130 OFFCURVE",
"819 142 OFFCURVE",
"824 157 CURVE",
"828 190 OFFCURVE",
"812 230 OFFCURVE",
"793 243 CURVE",
"740 270 OFFCURVE",
"703 293 OFFCURVE",
"629 359 CURVE",
"646 392 OFFCURVE",
"659 422 OFFCURVE",
"667 449 CURVE",
"671 470 OFFCURVE",
"645 484 OFFCURVE",
"622 492 CURVE",
"653 495 OFFCURVE",
"752 495 OFFCURVE",
"776 492 CURVE SMOOTH"
);
},
{
closed = 1;
nodes = (
"408 468 OFFCURVE",
"422 477 OFFCURVE",
"422 484 CURVE SMOOTH",
"422 495 OFFCURVE",
"415 514 OFFCURVE",
"408 521 CURVE SMOOTH",
"401 530 OFFCURVE",
"397 533 OFFCURVE",
"382 528 CURVE SMOOTH",
"323 507 OFFCURVE",
"164 502 OFFCURVE",
"121 513 CURVE SMOOTH",
"110 516 OFFCURVE",
"102 500 OFFCURVE",
"106 492 CURVE SMOOTH",
"110 484 OFFCURVE",
"126 470 OFFCURVE",
"132 463 CURVE",
"144 453 OFFCURVE",
"146 447 OFFCURVE",
"173 454 CURVE SMOOTH",
"192 459 OFFCURVE",
"222 463 OFFCURVE",
"254 466 CURVE",
"273 465 OFFCURVE",
"288 458 OFFCURVE",
"287 437 CURVE SMOOTH",
"284 392 OFFCURVE",
"204 257 OFFCURVE",
"85 178 CURVE SMOOTH",
"62 163 OFFCURVE",
"84 146 OFFCURVE",
"116 159 CURVE SMOOTH",
"171 181 OFFCURVE",
"251 261 OFFCURVE",
"305 334 CURVE",
"343 301 OFFCURVE",
"400 248 OFFCURVE",
"429 216 CURVE SMOOTH",
"431 214 OFFCURVE",
"461 226 OFFCURVE",
"461 234 CURVE",
"466 266 OFFCURVE",
"442 294 OFFCURVE",
"419 305 CURVE",
"384 313 OFFCURVE",
"346 340 OFFCURVE",
"323 360 CURVE",
"342 388 OFFCURVE",
"353 413 OFFCURVE",
"354 430 CURVE",
"357 445 OFFCURVE",
"331 461 OFFCURVE",
"308 470 CURVE",
"343 471 OFFCURVE",
"376 471 OFFCURVE",
"403 468 CURVE SMOOTH"
);
}
);
width = 900;
}
);
note = cid00382;
unicode = 3149;
},
{
glyphname = "chieuchCompa-ko";
lastChange = "2019-11-29 11:50:58 +0000";
layers = (
{
layerId = "210D674B-AD98-4874-A618-1698A23DB8A1";
paths = (
{
closed = 1;
nodes = (
"205 471 OFFCURVE",
"196 457 OFFCURVE",
"199 448 CURVE SMOOTH",
"200 444 OFFCURVE",
"221 421 OFFCURVE",
"229 412 CURVE SMOOTH",
"240 401 OFFCURVE",
"249 397 OFFCURVE",
"273 402 CURVE SMOOTH",
"313 413 OFFCURVE",
"408 419 OFFCURVE",
"434 422 CURVE SMOOTH",
"440 422 LINE",
"459 415 OFFCURVE",
"463 404 OFFCURVE",
"462 389 CURVE",
"451 332 OFFCURVE",
"341 220 OFFCURVE",
"177 145 CURVE SMOOTH",
"145 132 OFFCURVE",
"181 110 OFFCURVE",
"210 121 CURVE SMOOTH",
"322 168 OFFCURVE",
"413 230 OFFCURVE",
"473 290 CURVE",
"541 251 OFFCURVE",
"624 193 OFFCURVE",
"700 129 CURVE SMOOTH",
"708 123 OFFCURVE",
"735 143 OFFCURVE",
"735 159 CURVE",
"732 187 OFFCURVE",
"707 225 OFFCURVE",
"684 230 CURVE SMOOTH",
"655 234 OFFCURVE",
"583 264 OFFCURVE",
"495 316 CURVE",
"512 335 OFFCURVE",
"523 354 OFFCURVE",
"530 372 CURVE SMOOTH",
"535 387 OFFCURVE",
"513 412 OFFCURVE",
"488 425 CURVE",
"588 432 OFFCURVE",
"652 434 OFFCURVE",
"707 430 CURVE SMOOTH",
"712 430 OFFCURVE",
"726 438 OFFCURVE",
"725 447 CURVE SMOOTH",
"724 458 OFFCURVE",
"718 473 OFFCURVE",
"713 484 CURVE",
"706 495 OFFCURVE",
"700 499 OFFCURVE",
"685 494 CURVE SMOOTH",
"625 479 OFFCURVE",
"539 468 OFFCURVE",
"459 465 CURVE SMOOTH",
"394 462 OFFCURVE",
"282 455 OFFCURVE",
"216 468 CURVE SMOOTH"
);
},
{
closed = 1;
nodes = (
"296 636 OFFCURVE",
"286 614 OFFCURVE",
"295 605 CURVE SMOOTH",
"313 584 OFFCURVE",
"386 557 OFFCURVE",
"424 554 CURVE SMOOTH",
"488 549 OFFCURVE",
"563 546 OFFCURVE",
"592 559 CURVE SMOOTH",
"605 566 OFFCURVE",
"620 584 OFFCURVE",
"619 595 CURVE SMOOTH",
"618 602 OFFCURVE",
"608 614 OFFCURVE",
"597 613 CURVE SMOOTH",
"537 605 OFFCURVE",
"413 610 OFFCURVE",
"308 634 CURVE SMOOTH"
);
}
);
width = 900;
}
);
note = cid00383;
unicode = 314A;
},
{
glyphname = "khieukhCompa-ko";
lastChange = "2019-11-29 11:50:58 +0000";
layers = (
{
layerId = "210D674B-AD98-4874-A618-1698A23DB8A1";
paths = (
{
closed = 1;
nodes = (
"182 324 OFFCURVE",
"173 309 OFFCURVE",
"177 302 CURVE SMOOTH",
"182 293 OFFCURVE",
"212 272 OFFCURVE",
"225 263 CURVE",
"236 258 OFFCURVE",
"248 251 OFFCURVE",
"269 260 CURVE SMOOTH",
"285 268 OFFCURVE",
"365 281 OFFCURVE",
"400 289 CURVE SMOOTH",
"509 309 OFFCURVE",
"588 329 OFFCURVE",
"623 340 CURVE",
"614 260 OFFCURVE",
"603 188 OFFCURVE",
"595 139 CURVE SMOOTH",
"591 118 OFFCURVE",
"592 103 OFFCURVE",
"603 102 CURVE SMOOTH",
"623 102 OFFCURVE",
"639 127 OFFCURVE",
"652 176 CURVE SMOOTH",
"665 229 OFFCURVE",
"686 352 OFFCURVE",
"697 409 CURVE SMOOTH",
"700 424 OFFCURVE",
"713 499 OFFCURVE",
"721 520 CURVE SMOOTH",
"726 532 OFFCURVE",
"723 539 OFFCURVE",
"716 540 CURVE",
"656 562 LINE",
"649 566 OFFCURVE",
"645 565 OFFCURVE",
"638 562 CURVE SMOOTH",
"602 549 OFFCURVE",
"521 538 OFFCURVE",
"454 538 CURVE SMOOTH",
"385 535 OFFCURVE",
"268 531 OFFCURVE",
"225 542 CURVE",
"214 546 OFFCURVE",
"205 529 OFFCURVE",
"210 521 CURVE SMOOTH",
"214 513 OFFCURVE",
"227 501 OFFCURVE",
"242 486 CURVE SMOOTH",
"254 474 OFFCURVE",
"259 469 OFFCURVE",
"287 476 CURVE SMOOTH",
"330 487 OFFCURVE",
"401 492 OFFCURVE",
"465 496 CURVE SMOOTH",
"500 499 OFFCURVE",
"591 503 OFFCURVE",
"626 503 CURVE SMOOTH",
"630 503 OFFCURVE",
"638 504 OFFCURVE",
"637 492 CURVE SMOOTH",
"634 453 OFFCURVE",
"631 412 OFFCURVE",
"627 373 CURVE",
"545 344 OFFCURVE",
"288 307 OFFCURVE",
"190 323 CURVE SMOOTH"
);
}
);
width = 900;
}
);
note = cid00384;
unicode = 314B;
},
{
glyphname = "thieuthCompa-ko";
lastChange = "2019-11-29 11:50:58 +0000";
layers = (
{
layerId = "210D674B-AD98-4874-A618-1698A23DB8A1";
paths = (
{
closed = 1;
nodes = (
"237 206 LINE SMOOTH",
"237 157 OFFCURVE",
"256 131 OFFCURVE",
"288 131 CURVE SMOOTH",
"356 131 OFFCURVE",
"369 133 OFFCURVE",
"459 138 CURVE SMOOTH",
"555 142 OFFCURVE",
"624 147 OFFCURVE",
"700 144 CURVE SMOOTH",
"705 144 OFFCURVE",
"723 155 OFFCURVE",
"720 166 CURVE SMOOTH",
"717 177 OFFCURVE",
"714 183 OFFCURVE",
"703 194 CURVE SMOOTH",
"694 205 OFFCURVE",
"687 205 OFFCURVE",
"668 200 CURVE SMOOTH",
"645 192 OFFCURVE",
"571 184 OFFCURVE",
"496 179 CURVE SMOOTH",
"414 174 OFFCURVE",
"344 174 OFFCURVE",
"333 174 CURVE SMOOTH",
"304 174 OFFCURVE",
"300 185 OFFCURVE",
"300 214 CURVE SMOOTH",
"300 315 LINE",
"354 318 OFFCURVE",
"459 320 OFFCURVE",
"515 323 CURVE SMOOTH",
"584 326 OFFCURVE",
"609 326 OFFCURVE",
"659 323 CURVE SMOOTH",
"664 323 OFFCURVE",
"676 335 OFFCURVE",
"676 344 CURVE SMOOTH",
"676 353 OFFCURVE",
"659 370 OFFCURVE",
"655 373 CURVE SMOOTH",
"648 380 OFFCURVE",
"645 382 OFFCURVE",
"630 378 CURVE SMOOTH",
"617 373 OFFCURVE",
"572 366 OFFCURVE",
"507 362 CURVE SMOOTH",
"445 357 OFFCURVE",
"354 355 OFFCURVE",
"300 355 CURVE",
"300 488 LINE",
"413 493 OFFCURVE",
"597 500 OFFCURVE",
"674 495 CURVE SMOOTH",
"681 495 OFFCURVE",
"692 506 OFFCURVE",
"692 517 CURVE SMOOTH",
"692 526 OFFCURVE",
"680 541 OFFCURVE",
"673 549 CURVE SMOOTH",
"665 560 OFFCURVE",
"661 562 OFFCURVE",
"641 557 CURVE",
"582 533 OFFCURVE",
"364 528 OFFCURVE",
"277 531 CURVE",
"256 539 OFFCURVE",
"225 547 OFFCURVE",
"210 550 CURVE SMOOTH",
"196 551 OFFCURVE",
"186 545 OFFCURVE",
"180 530 CURVE SMOOTH",
"177 523 OFFCURVE",
"180 517 OFFCURVE",
"187 513 CURVE SMOOTH",
"227 492 OFFCURVE",
"237 466 OFFCURVE",
"237 419 CURVE SMOOTH"
);
}
);
width = 900;
}
);
note = cid00385;
unicode = 314C;
},
{
glyphname = "phieuphCompa-ko";
lastChange = "2019-11-29 11:50:58 +0000";
layers = (
{
layerId = "210D674B-AD98-4874-A618-1698A23DB8A1";
paths = (
{
closed = 1;
nodes = (
"736 144 OFFCURVE",
"749 153 OFFCURVE",
"749 160 CURVE SMOOTH",
"749 171 OFFCURVE",
"741 186 OFFCURVE",
"734 194 CURVE",
"729 205 OFFCURVE",
"723 209 OFFCURVE",
"706 204 CURVE SMOOTH",
"672 196 OFFCURVE",
"651 191 OFFCURVE",
"595 186 CURVE",
"612 331 LINE SMOOTH",
"617 371 OFFCURVE",
"624 398 OFFCURVE",
"627 406 CURVE",
"630 410 OFFCURVE",
"622 418 OFFCURVE",
"615 425 CURVE",
"600 436 OFFCURVE",
"563 449 OFFCURVE",
"542 453 CURVE SMOOTH",
"526 456 OFFCURVE",
"516 455 OFFCURVE",
"508 436 CURVE",
"505 424 OFFCURVE",
"513 420 OFFCURVE",
"518 417 CURVE SMOOTH",
"553 400 OFFCURVE",
"555 370 OFFCURVE",
"551 309 CURVE SMOOTH",
"546 260 OFFCURVE",
"543 212 OFFCURVE",
"540 181 CURVE",
"503 176 OFFCURVE",
"425 174 OFFCURVE",
"366 171 CURVE",
"369 190 OFFCURVE",
"370 222 OFFCURVE",
"370 247 CURVE SMOOTH",
"370 288 LINE SMOOTH",
"370 319 OFFCURVE",
"373 354 OFFCURVE",
"376 374 CURVE",
"376 381 OFFCURVE",
"371 389 OFFCURVE",
"360 398 CURVE",
"340 411 OFFCURVE",
"313 426 OFFCURVE",
"294 430 CURVE SMOOTH",
"282 433 OFFCURVE",
"272 428 OFFCURVE",
"265 414 CURVE SMOOTH",
"262 407 OFFCURVE",
"265 400 OFFCURVE",
"273 394 CURVE SMOOTH",
"308 369 OFFCURVE",
"312 335 OFFCURVE",
"316 287 CURVE SMOOTH",
"319 207 OFFCURVE",
"320 183 OFFCURVE",
"320 170 CURVE",
"302 170 LINE SMOOTH",
"247 170 OFFCURVE",
"199 173 OFFCURVE",
"171 181 CURVE SMOOTH",
"160 184 OFFCURVE",
"148 165 OFFCURVE",
"151 156 CURVE SMOOTH",
"154 148 OFFCURVE",
"180 127 OFFCURVE",
"191 119 CURVE SMOOTH",
"202 112 OFFCURVE",
"211 111 OFFCURVE",
"227 114 CURVE SMOOTH",
"291 125 OFFCURVE",
"345 129 OFFCURVE",
"460 137 CURVE SMOOTH",
"566 145 OFFCURVE",
"627 147 OFFCURVE",
"731 144 CURVE SMOOTH"
);
},
{
closed = 1;
nodes = (
"182 536 OFFCURVE",
"167 519 OFFCURVE",
"172 512 CURVE SMOOTH",
"177 504 OFFCURVE",
"191 485 OFFCURVE",
"207 474 CURVE",
"220 462 OFFCURVE",
"227 462 OFFCURVE",
"252 467 CURVE SMOOTH",
"284 475 OFFCURVE",
"331 477 OFFCURVE",
"359 480 CURVE",
"514 487 LINE SMOOTH",
"571 490 OFFCURVE",
"665 490 OFFCURVE",
"697 487 CURVE SMOOTH",
"702 487 OFFCURVE",
"715 496 OFFCURVE",
"715 505 CURVE SMOOTH",
"715 516 OFFCURVE",
"706 539 OFFCURVE",
"699 548 CURVE SMOOTH",
"692 556 OFFCURVE",
"687 559 OFFCURVE",
"671 555 CURVE SMOOTH",
"644 548 OFFCURVE",
"598 541 OFFCURVE",
"549 534 CURVE SMOOTH",
"486 527 OFFCURVE",
"414 524 OFFCURVE",
"358 523 CURVE SMOOTH",
"302 523 OFFCURVE",
"226 524 OFFCURVE",
"189 534 CURVE SMOOTH"
);
}
);
width = 900;
}
);
note = cid00386;
unicode = 314D;
},
{
glyphname = "hieuhCompa-ko";
lastChange = "2019-11-29 11:50:58 +0000";
layers = (
{
layerId = "210D674B-AD98-4874-A618-1698A23DB8A1";
paths = (
{
closed = 1;
nodes = (
"155 490 OFFCURVE",
"146 473 OFFCURVE",
"150 465 CURVE SMOOTH",
"154 458 OFFCURVE",
"170 439 OFFCURVE",
"181 428 CURVE SMOOTH",
"193 416 OFFCURVE",
"203 411 OFFCURVE",
"228 416 CURVE SMOOTH",
"303 433 OFFCURVE",
"369 434 OFFCURVE",
"458 438 CURVE SMOOTH",
"626 446 OFFCURVE",
"671 443 OFFCURVE",
"732 438 CURVE SMOOTH",
"737 438 OFFCURVE",
"750 446 OFFCURVE",
"750 455 CURVE SMOOTH",
"750 464 OFFCURVE",
"741 486 OFFCURVE",
"736 494 CURVE SMOOTH",
"729 506 OFFCURVE",
"720 510 OFFCURVE",
"707 505 CURVE SMOOTH",
"688 498 OFFCURVE",
"634 491 OFFCURVE",
"581 484 CURVE SMOOTH",
"497 476 OFFCURVE",
"410 475 OFFCURVE",
"334 475 CURVE SMOOTH",
"266 475 OFFCURVE",
"210 476 OFFCURVE",
"166 487 CURVE SMOOTH"
);
},
{
closed = 1;
nodes = (
"334 375 OFFCURVE",
"270 298 OFFCURVE",
"270 229 CURVE SMOOTH",
"270 148 OFFCURVE",
"338 69 OFFCURVE",
"461 74 CURVE SMOOTH",
"584 79 OFFCURVE",
"647 154 OFFCURVE",
"650 231 CURVE SMOOTH",
"653 327 OFFCURVE",
"574 383 OFFCURVE",
"462 380 CURVE SMOOTH"
);
},
{
closed = 1;
nodes = (
"381 118 OFFCURVE",
"333 166 OFFCURVE",
"334 231 CURVE SMOOTH",
"334 279 OFFCURVE",
"378 338 OFFCURVE",
"465 338 CURVE SMOOTH",
"556 341 OFFCURVE",
"585 274 OFFCURVE",
"585 231 CURVE SMOOTH",
"582 179 OFFCURVE",
"542 124 OFFCURVE",
"461 121 CURVE SMOOTH"
);
},
{
closed = 1;
nodes = (
"277 644 OFFCURVE",
"271 618 OFFCURVE",
"278 611 CURVE SMOOTH",
"300 589 OFFCURVE",
"371 565 OFFCURVE",
"411 560 CURVE SMOOTH",
"474 555 OFFCURVE",
"561 558 OFFCURVE",
"588 570 CURVE SMOOTH",
"603 577 OFFCURVE",
"620 594 OFFCURVE",
"619 605 CURVE SMOOTH",
"618 612 OFFCURVE",
"605 624 OFFCURVE",
"594 623 CURVE SMOOTH",
"531 615 OFFCURVE",
"405 617 OFFCURVE",
"295 641 CURVE SMOOTH"
);
}
);
width = 900;
}
);
note = cid00387;
unicode = 314E;
},
{
glyphname = "aCompa-ko";
lastChange = "2019-11-29 11:50:58 +0000";
layers = (
{
layerId = "210D674B-AD98-4874-A618-1698A23DB8A1";
paths = (
{
closed = 1;
nodes = (
"458 -83 OFFCURVE",
"464 1 OFFCURVE",
"464 41 CURVE SMOOTH",
"464 340 LINE",
"520 340 OFFCURVE",
"584 341 OFFCURVE",
"640 334 CURVE SMOOTH",
"644 334 OFFCURVE",
"655 342 OFFCURVE",
"655 350 CURVE SMOOTH",
"655 359 OFFCURVE",
"647 383 OFFCURVE",
"640 392 CURVE SMOOTH",
"633 400 OFFCURVE",
"630 405 OFFCURVE",
"615 400 CURVE SMOOTH",
"592 393 OFFCURVE",
"535 378 OFFCURVE",
"464 378 CURVE",
"464 650 LINE SMOOTH",
"464 682 OFFCURVE",
"466 703 OFFCURVE",
"470 731 CURVE SMOOTH",
"471 739 OFFCURVE",
"465 746 OFFCURVE",
"458 751 CURVE SMOOTH",
"445 761 OFFCURVE",
"401 781 OFFCURVE",
"377 784 CURVE SMOOTH",
"365 785 OFFCURVE",
"358 783 OFFCURVE",
"350 770 CURVE SMOOTH",
"345 762 OFFCURVE",
"347 756 OFFCURVE",
"355 752 CURVE SMOOTH",
"406 725 OFFCURVE",
"407 712 OFFCURVE",
"407 651 CURVE SMOOTH",
"407 39 LINE SMOOTH",
"407 0 OFFCURVE",
"409 -68 OFFCURVE",
"414 -84 CURVE SMOOTH",
"415 -89 OFFCURVE",
"421 -95 OFFCURVE",
"430 -91 CURVE"
);
}
);
width = 900;
}
);
note = cid00388;
unicode = 314F;
},
{
glyphname = "aeCompa-ko";
lastChange = "2019-11-29 11:50:58 +0000";
layers = (
{
layerId = "210D674B-AD98-4874-A618-1698A23DB8A1";
paths = (
{
closed = 1;
nodes = (
"375 -49 OFFCURVE",
"379 34 OFFCURVE",
"379 76 CURVE SMOOTH",
"379 365 LINE",
"436 366 OFFCURVE",
"482 366 OFFCURVE",
"513 366 CURVE",
"513 40 LINE SMOOTH",
"513 0 OFFCURVE",
"515 -68 OFFCURVE",
"520 -84 CURVE SMOOTH",
"521 -88 OFFCURVE",
"527 -95 OFFCURVE",
"536 -91 CURVE",
"564 -83 OFFCURVE",
"569 0 OFFCURVE",
"569 42 CURVE SMOOTH",
"569 650 LINE SMOOTH",
"569 682 OFFCURVE",
"570 705 OFFCURVE",
"574 733 CURVE SMOOTH",
"575 741 OFFCURVE",
"570 746 OFFCURVE",
"563 753 CURVE SMOOTH",
"548 765 OFFCURVE",
"514 784 OFFCURVE",
"490 788 CURVE SMOOTH",
"479 790 OFFCURVE",
"470 785 OFFCURVE",
"463 773 CURVE SMOOTH",
"459 766 OFFCURVE",
"461 760 OFFCURVE",
"468 755 CURVE SMOOTH",
"515 726 OFFCURVE",
"513 713 OFFCURVE",
"513 651 CURVE SMOOTH",
"513 412 LINE",
"469 408 OFFCURVE",
"411 407 OFFCURVE",
"379 407 CURVE",
"379 595 LINE SMOOTH",
"379 627 OFFCURVE",
"378 665 OFFCURVE",
"383 694 CURVE SMOOTH",
"384 701 OFFCURVE",
"379 706 OFFCURVE",
"372 713 CURVE SMOOTH",
"364 721 OFFCURVE",
"329 745 OFFCURVE",
"305 748 CURVE SMOOTH",
"294 749 OFFCURVE",
"286 746 OFFCURVE",
"278 733 CURVE SMOOTH",
"273 726 OFFCURVE",
"275 720 OFFCURVE",
"283 715 CURVE SMOOTH",
"328 688 OFFCURVE",
"324 657 OFFCURVE",
"324 596 CURVE SMOOTH",
"324 74 LINE SMOOTH",
"324 34 OFFCURVE",
"325 -35 OFFCURVE",
"330 -50 CURVE SMOOTH",
"331 -54 OFFCURVE",
"336 -61 OFFCURVE",
"347 -57 CURVE SMOOTH"
);
}
);
width = 900;
}
);
note = cid00389;
unicode = 3150;
},
{
glyphname = "yaCompa-ko";
lastChange = "2019-11-29 11:50:58 +0000";
layers = (
{
layerId = "210D674B-AD98-4874-A618-1698A23DB8A1";
paths = (
{
closed = 1;
nodes = (
"458 -83 OFFCURVE",
"464 1 OFFCURVE",
"464 41 CURVE SMOOTH",
"464 253 LINE",
"520 253 OFFCURVE",
"584 251 OFFCURVE",
"640 244 CURVE SMOOTH",
"644 244 OFFCURVE",
"655 252 OFFCURVE",
"655 260 CURVE SMOOTH",
"655 268 OFFCURVE",
"647 293 OFFCURVE",
"640 301 CURVE SMOOTH",
"633 310 OFFCURVE",
"630 315 OFFCURVE",
"615 310 CURVE SMOOTH",
"592 303 OFFCURVE",
"535 291 OFFCURVE",
"464 291 CURVE",
"464 486 LINE",
"520 487 OFFCURVE",
"581 491 OFFCURVE",
"636 486 CURVE SMOOTH",
"640 486 OFFCURVE",
"652 493 OFFCURVE",
"652 501 CURVE SMOOTH",
"652 510 OFFCURVE",
"645 532 OFFCURVE",
"638 541 CURVE SMOOTH",
"631 550 OFFCURVE",
"628 555 OFFCURVE",
"613 550 CURVE SMOOTH",
"590 543 OFFCURVE",
"532 524 OFFCURVE",
"464 523 CURVE",
"464 650 LINE SMOOTH",
"464 682 OFFCURVE",
"466 703 OFFCURVE",
"470 731 CURVE SMOOTH",
"471 739 OFFCURVE",
"465 746 OFFCURVE",
"458 751 CURVE SMOOTH",
"445 761 OFFCURVE",
"401 781 OFFCURVE",
"377 784 CURVE SMOOTH",
"365 785 OFFCURVE",
"358 783 OFFCURVE",
"350 770 CURVE SMOOTH",
"345 762 OFFCURVE",
"347 756 OFFCURVE",
"355 752 CURVE SMOOTH",
"406 725 OFFCURVE",
"407 712 OFFCURVE",
"407 651 CURVE SMOOTH",
"407 39 LINE SMOOTH",
"407 0 OFFCURVE",
"409 -68 OFFCURVE",
"414 -84 CURVE SMOOTH",
"415 -89 OFFCURVE",
"421 -95 OFFCURVE",
"430 -91 CURVE"
);
}
);
width = 900;
}
);
note = cid00390;
unicode = 3151;
},
{
glyphname = "yaeCompa-ko";
lastChange = "2019-11-29 11:50:58 +0000";
layers = (
{
layerId = "210D674B-AD98-4874-A618-1698A23DB8A1";
paths = (
{
closed = 1;
nodes = (
"375 -49 OFFCURVE",
"379 34 OFFCURVE",
"379 76 CURVE SMOOTH",
"379 258 LINE",
"435 261 OFFCURVE",
"481 260 OFFCURVE",
"513 260 CURVE",
"513 40 LINE SMOOTH",
"513 0 OFFCURVE",
"515 -68 OFFCURVE",
"520 -84 CURVE SMOOTH",
"521 -88 OFFCURVE",
"527 -95 OFFCURVE",
"536 -91 CURVE",
"564 -83 OFFCURVE",
"569 0 OFFCURVE",
"569 42 CURVE SMOOTH",
"569 650 LINE SMOOTH",
"569 682 OFFCURVE",
"570 705 OFFCURVE",
"574 733 CURVE SMOOTH",
"575 741 OFFCURVE",
"570 746 OFFCURVE",
"563 753 CURVE SMOOTH",
"548 765 OFFCURVE",
"514 784 OFFCURVE",
"490 788 CURVE SMOOTH",
"479 790 OFFCURVE",
"470 785 OFFCURVE",
"463 773 CURVE SMOOTH",
"459 766 OFFCURVE",
"461 760 OFFCURVE",
"468 755 CURVE SMOOTH",
"515 726 OFFCURVE",
"513 713 OFFCURVE",
"513 651 CURVE SMOOTH",
"513 527 LINE",
"470 524 OFFCURVE",
"411 522 OFFCURVE",
"379 522 CURVE",
"379 595 LINE SMOOTH",
"379 627 OFFCURVE",
"378 665 OFFCURVE",
"383 694 CURVE SMOOTH",
"384 701 OFFCURVE",
"379 706 OFFCURVE",
"372 713 CURVE SMOOTH",
"364 721 OFFCURVE",
"329 745 OFFCURVE",
"305 748 CURVE SMOOTH",
"294 749 OFFCURVE",
"286 746 OFFCURVE",
"278 733 CURVE SMOOTH",
"273 726 OFFCURVE",
"275 720 OFFCURVE",
"283 715 CURVE SMOOTH",
"328 688 OFFCURVE",
"324 657 OFFCURVE",
"324 596 CURVE SMOOTH",
"324 74 LINE SMOOTH",
"324 34 OFFCURVE",
"325 -35 OFFCURVE",
"330 -50 CURVE SMOOTH",
"331 -54 OFFCURVE",
"336 -61 OFFCURVE",
"347 -57 CURVE SMOOTH"
);
},
{
closed = 1;
nodes = (
"379 481 LINE",
"435 484 OFFCURVE",
"481 483 OFFCURVE",
"513 483 CURVE",
"513 304 LINE",
"470 301 OFFCURVE",
"411 299 OFFCURVE",
"379 299 CURVE"
);
}
);
width = 900;
}
);
note = cid00391;
unicode = 3152;
},
{
glyphname = "eoCompa-ko";
lastChange = "2019-11-29 11:50:58 +0000";
layers = (
{
layerId = "210D674B-AD98-4874-A618-1698A23DB8A1";
paths = (
{
closed = 1;
nodes = (
"537 -83 OFFCURVE",
"543 1 OFFCURVE",
"543 41 CURVE SMOOTH",
"543 650 LINE SMOOTH",
"543 682 OFFCURVE",
"545 703 OFFCURVE",
"549 731 CURVE SMOOTH",
"550 739 OFFCURVE",
"545 746 OFFCURVE",
"538 751 CURVE SMOOTH",
"523 761 OFFCURVE",
"480 781 OFFCURVE",
"456 784 CURVE SMOOTH",
"444 785 OFFCURVE",
"437 783 OFFCURVE",
"429 770 CURVE SMOOTH",
"424 762 OFFCURVE",
"426 756 OFFCURVE",
"434 752 CURVE SMOOTH",
"485 725 OFFCURVE",
"486 712 OFFCURVE",
"486 651 CURVE SMOOTH",
"486 443 LINE",
"467 440 OFFCURVE",
"447 440 OFFCURVE",
"428 439 CURVE SMOOTH",
"346 434 OFFCURVE",
"309 436 OFFCURVE",
"277 441 CURVE SMOOTH",
"268 442 OFFCURVE",
"258 427 OFFCURVE",
"261 419 CURVE SMOOTH",
"263 412 OFFCURVE",
"292 394 OFFCURVE",
"301 389 CURVE SMOOTH",
"312 384 OFFCURVE",
"318 383 OFFCURVE",
"333 386 CURVE SMOOTH",
"374 397 OFFCURVE",
"382 397 OFFCURVE",
"436 402 CURVE SMOOTH",
"486 404 LINE",
"486 39 LINE SMOOTH",
"486 0 OFFCURVE",
"488 -68 OFFCURVE",
"493 -84 CURVE SMOOTH",
"494 -89 OFFCURVE",
"500 -95 OFFCURVE",
"509 -91 CURVE"
);
}
);
width = 900;
}
);
note = cid00392;
unicode = 3153;
},
{
glyphname = "eCompa-ko";
lastChange = "2019-11-29 11:50:58 +0000";
layers = (
{
layerId = "210D674B-AD98-4874-A618-1698A23DB8A1";
paths = (
{
closed = 1;
nodes = (
"457 -49 OFFCURVE",
"461 34 OFFCURVE",
"461 76 CURVE SMOOTH",
"461 595 LINE SMOOTH",
"461 627 OFFCURVE",
"460 665 OFFCURVE",
"465 694 CURVE SMOOTH",
"466 701 OFFCURVE",
"462 706 OFFCURVE",
"455 713 CURVE SMOOTH",
"447 721 OFFCURVE",
"410 746 OFFCURVE",
"388 748 CURVE SMOOTH",
"376 749 OFFCURVE",
"368 746 OFFCURVE",
"360 733 CURVE",
"357 726 OFFCURVE",
"358 720 OFFCURVE",
"365 715 CURVE SMOOTH",
"410 688 OFFCURVE",
"406 657 OFFCURVE",
"406 596 CURVE SMOOTH",
"406 408 LINE",
"358 405 LINE SMOOTH",
"263 400 OFFCURVE",
"235 400 OFFCURVE",
"205 405 CURVE SMOOTH",
"196 406 OFFCURVE",
"188 392 OFFCURVE",
"191 384 CURVE SMOOTH",
"194 377 OFFCURVE",
"215 363 OFFCURVE",
"224 356 CURVE",
"233 351 OFFCURVE",
"244 349 OFFCURVE",
"255 352 CURVE SMOOTH",
"294 360 OFFCURVE",
"324 364 OFFCURVE",
"379 368 CURVE SMOOTH",
"406 369 LINE",
"406 74 LINE SMOOTH",
"406 34 OFFCURVE",
"408 -34 OFFCURVE",
"413 -50 CURVE SMOOTH",
"414 -54 OFFCURVE",
"420 -61 OFFCURVE",
"429 -57 CURVE"
);
},
{
closed = 1;
nodes = (
"614 -83 OFFCURVE",
"619 0 OFFCURVE",
"619 42 CURVE SMOOTH",
"619 650 LINE SMOOTH",
"619 682 OFFCURVE",
"620 705 OFFCURVE",
"624 733 CURVE SMOOTH",
"625 741 OFFCURVE",
"620 746 OFFCURVE",
"613 753 CURVE SMOOTH",
"598 765 OFFCURVE",
"564 784 OFFCURVE",
"540 788 CURVE SMOOTH",
"529 790 OFFCURVE",
"520 785 OFFCURVE",
"513 773 CURVE SMOOTH",
"509 766 OFFCURVE",
"511 760 OFFCURVE",
"518 755 CURVE SMOOTH",
"565 726 OFFCURVE",
"563 713 OFFCURVE",
"563 651 CURVE SMOOTH",
"563 40 LINE SMOOTH",
"563 0 OFFCURVE",
"565 -68 OFFCURVE",
"570 -84 CURVE SMOOTH",
"571 -88 OFFCURVE",
"577 -95 OFFCURVE",
"586 -91 CURVE"
);
}
);
width = 900;
}
);
note = cid00393;
unicode = 3154;
},
{
glyphname = "yeoCompa-ko";
lastChange = "2019-11-29 11:50:58 +0000";
layers = (
{
layerId = "210D674B-AD98-4874-A618-1698A23DB8A1";
paths = (
{
closed = 1;
nodes = (
"537 -83 OFFCURVE",
"543 1 OFFCURVE",
"543 41 CURVE SMOOTH",
"543 650 LINE SMOOTH",
"543 682 OFFCURVE",
"545 703 OFFCURVE",
"549 731 CURVE SMOOTH",
"550 739 OFFCURVE",
"545 746 OFFCURVE",
"538 751 CURVE SMOOTH",
"523 761 OFFCURVE",
"480 781 OFFCURVE",
"456 784 CURVE SMOOTH",
"444 785 OFFCURVE",
"437 783 OFFCURVE",
"429 770 CURVE SMOOTH",
"424 762 OFFCURVE",
"426 756 OFFCURVE",
"434 752 CURVE SMOOTH",
"485 725 OFFCURVE",
"486 712 OFFCURVE",
"486 651 CURVE SMOOTH",
"486 545 LINE",
"470 542 OFFCURVE",
"454 542 OFFCURVE",
"439 541 CURVE SMOOTH",
"342 533 OFFCURVE",
"309 539 OFFCURVE",
"279 544 CURVE SMOOTH",
"268 547 OFFCURVE",
"258 529 OFFCURVE",
"262 521 CURVE SMOOTH",
"265 514 OFFCURVE",
"290 499 OFFCURVE",
"301 492 CURVE",
"312 488 OFFCURVE",
"320 488 OFFCURVE",
"333 491 CURVE SMOOTH",
"373 499 OFFCURVE",
"391 498 OFFCURVE",
"425 501 CURVE SMOOTH",
"486 504 LINE",
"486 305 LINE",
"467 302 OFFCURVE",
"449 301 OFFCURVE",
"434 301 CURVE SMOOTH",
"338 296 OFFCURVE",
"304 295 OFFCURVE",
"273 303 CURVE SMOOTH",
"264 306 OFFCURVE",
"253 289 OFFCURVE",
"256 282 CURVE SMOOTH",
"258 275 OFFCURVE",
"284 257 OFFCURVE",
"294 252 CURVE SMOOTH",
"305 245 OFFCURVE",
"311 245 OFFCURVE",
"326 248 CURVE SMOOTH",
"366 256 OFFCURVE",
"378 260 OFFCURVE",
"455 265 CURVE SMOOTH",
"486 266 LINE",
"486 39 LINE SMOOTH",
"486 0 OFFCURVE",
"488 -68 OFFCURVE",
"493 -84 CURVE SMOOTH",
"494 -89 OFFCURVE",
"500 -95 OFFCURVE",
"509 -91 CURVE"
);
}
);
width = 900;
}
);
note = cid00394;
unicode = 3155;
},
{
glyphname = "yeCompa-ko";
lastChange = "2019-11-29 11:50:58 +0000";
layers = (
{
layerId = "210D674B-AD98-4874-A618-1698A23DB8A1";
paths = (
{
closed = 1;
nodes = (
"457 -49 OFFCURVE",
"461 34 OFFCURVE",
"461 76 CURVE SMOOTH",
"461 595 LINE SMOOTH",
"461 627 OFFCURVE",
"460 665 OFFCURVE",
"465 694 CURVE SMOOTH",
"466 701 OFFCURVE",
"461 706 OFFCURVE",
"454 713 CURVE SMOOTH",
"446 721 OFFCURVE",
"411 745 OFFCURVE",
"387 748 CURVE SMOOTH",
"376 749 OFFCURVE",
"368 746 OFFCURVE",
"360 733 CURVE SMOOTH",
"355 726 OFFCURVE",
"357 720 OFFCURVE",
"365 715 CURVE SMOOTH",
"410 688 OFFCURVE",
"406 657 OFFCURVE",
"406 596 CURVE SMOOTH",
"406 527 LINE",
"376 525 LINE SMOOTH",
"283 520 OFFCURVE",
"248 522 OFFCURVE",
"220 527 CURVE",
"211 530 OFFCURVE",
"202 515 OFFCURVE",
"205 507 CURVE",
"208 502 OFFCURVE",
"234 483 OFFCURVE",
"244 478 CURVE SMOOTH",
"255 473 OFFCURVE",
"262 475 OFFCURVE",
"275 478 CURVE SMOOTH",
"306 486 OFFCURVE",
"340 486 OFFCURVE",
"373 489 CURVE SMOOTH",
"406 490 LINE",
"406 315 LINE",
"373 312 LINE SMOOTH",
"283 304 OFFCURVE",
"246 308 OFFCURVE",
"216 313 CURVE SMOOTH",
"208 314 OFFCURVE",
"198 298 OFFCURVE",
"201 293 CURVE",
"204 285 OFFCURVE",
"228 270 OFFCURVE",
"238 263 CURVE",
"249 259 OFFCURVE",
"255 258 OFFCURVE",
"270 262 CURVE SMOOTH",
"303 270 OFFCURVE",
"345 275 OFFCURVE",
"395 277 CURVE SMOOTH",
"406 278 LINE",
"406 74 LINE SMOOTH",
"406 34 OFFCURVE",
"407 -35 OFFCURVE",
"412 -50 CURVE SMOOTH",
"413 -54 OFFCURVE",
"418 -61 OFFCURVE",
"429 -57 CURVE SMOOTH"
);
},
{
closed = 1;
nodes = (
"614 -83 OFFCURVE",
"618 0 OFFCURVE",
"618 42 CURVE SMOOTH",
"618 650 LINE SMOOTH",
"618 682 OFFCURVE",
"620 705 OFFCURVE",
"624 733 CURVE SMOOTH",
"625 741 OFFCURVE",
"619 746 OFFCURVE",
"612 753 CURVE SMOOTH",
"597 765 OFFCURVE",
"563 784 OFFCURVE",
"539 788 CURVE SMOOTH",
"528 790 OFFCURVE",
"519 785 OFFCURVE",
"512 773 CURVE SMOOTH",
"508 766 OFFCURVE",
"510 760 OFFCURVE",
"517 755 CURVE SMOOTH",
"564 726 OFFCURVE",
"563 712 OFFCURVE",
"563 651 CURVE SMOOTH",
"563 40 LINE SMOOTH",
"563 0 OFFCURVE",
"564 -68 OFFCURVE",
"569 -84 CURVE SMOOTH",
"570 -88 OFFCURVE",
"575 -95 OFFCURVE",
"586 -91 CURVE SMOOTH"
);
}
);
width = 900;
}
);
note = cid00395;
unicode = 3156;
},
{
glyphname = "oCompa-ko";
lastChange = "2019-11-29 11:50:58 +0000";
layers = (
{
layerId = "210D674B-AD98-4874-A618-1698A23DB8A1";
paths = (
{
closed = 1;
nodes = (
"559 209 OFFCURVE",
"517 209 OFFCURVE",
"476 208 CURVE",
"480 330 LINE SMOOTH",
"481 358 OFFCURVE",
"482 376 OFFCURVE",
"487 396 CURVE SMOOTH",
"488 401 OFFCURVE",
"484 407 OFFCURVE",
"475 415 CURVE",
"456 428 OFFCURVE",
"436 441 OFFCURVE",
"416 448 CURVE SMOOTH",
"403 451 OFFCURVE",
"393 448 OFFCURVE",
"386 437 CURVE SMOOTH",
"382 429 OFFCURVE",
"381 424 OFFCURVE",
"389 419 CURVE SMOOTH",
"427 397 OFFCURVE",
"428 345 OFFCURVE",
"428 304 CURVE SMOOTH",
"427 207 LINE",
"362 204 OFFCURVE",
"301 205 OFFCURVE",
"232 205 CURVE SMOOTH",
"161 204 OFFCURVE",
"111 209 OFFCURVE",
"68 218 CURVE",
"59 221 OFFCURVE",
"47 204 OFFCURVE",
"51 197 CURVE SMOOTH",
"54 189 OFFCURVE",
"82 162 OFFCURVE",
"95 154 CURVE SMOOTH",
"108 145 OFFCURVE",
"111 143 OFFCURVE",
"135 148 CURVE SMOOTH",
"174 156 OFFCURVE",
"215 161 OFFCURVE",
"274 164 CURVE SMOOTH",
"383 169 OFFCURVE",
"503 170 OFFCURVE",
"624 173 CURVE SMOOTH",
"686 173 OFFCURVE",
"771 173 OFFCURVE",
"832 168 CURVE SMOOTH",
"837 168 OFFCURVE",
"850 176 OFFCURVE",
"850 185 CURVE SMOOTH",
"850 196 OFFCURVE",
"839 215 OFFCURVE",
"831 226 CURVE SMOOTH",
"823 237 OFFCURVE",
"817 240 OFFCURVE",
"802 236 CURVE",
"773 225 OFFCURVE",
"694 215 OFFCURVE",
"607 212 CURVE SMOOTH"
);
}
);
width = 900;
}
);
note = cid00396;
unicode = 3157;
},
{
glyphname = "waCompa-ko";
lastChange = "2019-11-29 11:50:58 +0000";
layers = (
{
layerId = "210D674B-AD98-4874-A618-1698A23DB8A1";
paths = (
{
closed = 1;
nodes = (
"692 -83 OFFCURVE",
"699 1 OFFCURVE",
"699 41 CURVE SMOOTH",
"699 316 LINE",
"754 316 OFFCURVE",
"819 317 OFFCURVE",
"875 310 CURVE SMOOTH",
"878 310 OFFCURVE",
"890 318 OFFCURVE",
"890 326 CURVE SMOOTH",
"890 334 OFFCURVE",
"880 359 OFFCURVE",
"875 367 CURVE SMOOTH",
"868 376 OFFCURVE",
"864 381 OFFCURVE",
"849 376 CURVE SMOOTH",
"828 369 OFFCURVE",
"770 354 OFFCURVE",
"699 354 CURVE",
"699 650 LINE SMOOTH",
"699 682 OFFCURVE",
"701 703 OFFCURVE",
"705 731 CURVE SMOOTH",
"706 739 OFFCURVE",
"700 746 OFFCURVE",
"693 751 CURVE SMOOTH",
"680 761 OFFCURVE",
"636 781 OFFCURVE",
"612 784 CURVE SMOOTH",
"600 785 OFFCURVE",
"592 783 OFFCURVE",
"585 770 CURVE SMOOTH",
"580 762 OFFCURVE",
"582 756 OFFCURVE",
"589 752 CURVE SMOOTH",
"640 725 OFFCURVE",
"642 712 OFFCURVE",
"642 651 CURVE SMOOTH",
"642 39 LINE SMOOTH",
"642 0 OFFCURVE",
"644 -68 OFFCURVE",
"649 -84 CURVE SMOOTH",
"650 -89 OFFCURVE",
"654 -95 OFFCURVE",
"665 -91 CURVE SMOOTH"
);
},
{
closed = 1;
nodes = (
"564 234 OFFCURVE",
"478 206 OFFCURVE",
"335 187 CURVE",
"335 218 OFFCURVE",
"335 256 OFFCURVE",
"336 277 CURVE SMOOTH",
"337 304 OFFCURVE",
"338 327 OFFCURVE",
"342 346 CURVE SMOOTH",
"343 351 OFFCURVE",
"339 357 OFFCURVE",
"330 363 CURVE SMOOTH",
"317 374 OFFCURVE",
"294 385 OFFCURVE",
"278 389 CURVE SMOOTH",
"266 392 OFFCURVE",
"256 388 OFFCURVE",
"249 377 CURVE SMOOTH",
"245 370 OFFCURVE",
"244 362 OFFCURVE",
"252 359 CURVE",
"287 340 OFFCURVE",
"288 311 OFFCURVE",
"288 271 CURVE SMOOTH",
"288 181 LINE",
"186 172 LINE SMOOTH",
"141 169 OFFCURVE",
"88 170 OFFCURVE",
"40 177 CURVE",
"31 177 OFFCURVE",
"22 161 OFFCURVE",
"26 154 CURVE",
"29 145 OFFCURVE",
"61 124 OFFCURVE",
"75 116 CURVE SMOOTH",
"92 105 OFFCURVE",
"101 104 OFFCURVE",
"128 113 CURVE SMOOTH",
"164 124 OFFCURVE",
"228 130 OFFCURVE",
"280 138 CURVE SMOOTH",
"456 163 OFFCURVE",
"556 195 OFFCURVE",
"599 212 CURVE SMOOTH",
"623 220 OFFCURVE",
"623 254 OFFCURVE",
"599 246 CURVE SMOOTH"
);
}
);
width = 900;
}
);
note = cid00397;
unicode = 3158;
},
{
glyphname = "waeCompa-ko";
lastChange = "2019-11-29 11:50:58 +0000";
layers = (
{
layerId = "210D674B-AD98-4874-A618-1698A23DB8A1";
paths = (
{
closed = 1;
nodes = (
"607 -49 OFFCURVE",
"611 34 OFFCURVE",
"611 76 CURVE SMOOTH",
"611 355 LINE",
"660 358 OFFCURVE",
"695 357 OFFCURVE",
"723 357 CURVE",
"723 40 LINE SMOOTH",
"723 0 OFFCURVE",
"725 -68 OFFCURVE",
"730 -84 CURVE SMOOTH",
"731 -88 OFFCURVE",
"735 -95 OFFCURVE",
"746 -91 CURVE SMOOTH",
"774 -83 OFFCURVE",
"778 0 OFFCURVE",
"778 42 CURVE SMOOTH",
"778 650 LINE SMOOTH",
"778 682 OFFCURVE",
"780 705 OFFCURVE",
"784 733 CURVE SMOOTH",
"785 741 OFFCURVE",
"779 746 OFFCURVE",
"772 753 CURVE SMOOTH",
"757 765 OFFCURVE",
"724 784 OFFCURVE",
"700 788 CURVE SMOOTH",
"689 790 OFFCURVE",
"679 785 OFFCURVE",
"672 773 CURVE SMOOTH",
"669 766 OFFCURVE",
"670 760 OFFCURVE",
"677 755 CURVE SMOOTH",
"725 726 OFFCURVE",
"723 713 OFFCURVE",
"723 651 CURVE SMOOTH",
"723 402 LINE",
"686 399 OFFCURVE",
"642 398 OFFCURVE",
"611 398 CURVE",
"611 595 LINE SMOOTH",
"611 627 OFFCURVE",
"610 665 OFFCURVE",
"615 694 CURVE SMOOTH",
"616 701 OFFCURVE",
"612 706 OFFCURVE",
"605 713 CURVE SMOOTH",
"597 721 OFFCURVE",
"560 746 OFFCURVE",
"538 748 CURVE SMOOTH",
"526 749 OFFCURVE",
"518 746 OFFCURVE",
"510 733 CURVE",
"507 726 OFFCURVE",
"508 720 OFFCURVE",
"515 715 CURVE SMOOTH",
"560 688 OFFCURVE",
"556 657 OFFCURVE",
"556 596 CURVE SMOOTH",
"556 74 LINE SMOOTH",
"556 34 OFFCURVE",
"558 -34 OFFCURVE",
"563 -50 CURVE SMOOTH",
"564 -54 OFFCURVE",
"570 -61 OFFCURVE",
"579 -57 CURVE"
);
},
{
closed = 1;
nodes = (
"478 223 OFFCURVE",
"424 206 OFFCURVE",
"324 193 CURVE",
"324 221 OFFCURVE",
"324 254 OFFCURVE",
"325 274 CURVE SMOOTH",
"326 301 OFFCURVE",
"327 323 OFFCURVE",
"331 342 CURVE SMOOTH",
"332 347 OFFCURVE",
"328 352 OFFCURVE",
"319 358 CURVE",
"307 369 OFFCURVE",
"284 380 OFFCURVE",
"268 384 CURVE SMOOTH",
"257 387 OFFCURVE",
"247 383 OFFCURVE",
"240 372 CURVE SMOOTH",
"236 365 OFFCURVE",
"235 357 OFFCURVE",
"243 354 CURVE SMOOTH",
"277 338 OFFCURVE",
"278 305 OFFCURVE",
"278 268 CURVE SMOOTH",
"278 188 LINE",
"204 182 LINE SMOOTH",
"159 179 OFFCURVE",
"112 176 OFFCURVE",
"65 183 CURVE",
"56 183 OFFCURVE",
"47 168 OFFCURVE",
"51 161 CURVE SMOOTH",
"58 152 OFFCURVE",
"78 138 OFFCURVE",
"93 130 CURVE SMOOTH",
"109 119 OFFCURVE",
"120 120 OFFCURVE",
"145 128 CURVE SMOOTH",
"180 139 OFFCURVE",
"208 141 OFFCURVE",
"260 148 CURVE SMOOTH",
"423 172 OFFCURVE",
"462 187 OFFCURVE",
"507 200 CURVE SMOOTH",
"535 208 OFFCURVE",
"538 240 OFFCURVE",
"510 232 CURVE SMOOTH"
);
}
);
width = 900;
}
);
note = cid00398;
unicode = 3159;
},
{
glyphname = "oeCompa-ko";
lastChange = "2019-11-29 11:50:58 +0000";
layers = (
{
layerId = "210D674B-AD98-4874-A618-1698A23DB8A1";
paths = (
{
closed = 1;
nodes = (
"752 -83 OFFCURVE",
"758 1 OFFCURVE",
"758 41 CURVE SMOOTH",
"758 650 LINE SMOOTH",
"758 682 OFFCURVE",
"760 703 OFFCURVE",
"764 731 CURVE SMOOTH",
"765 739 OFFCURVE",
"760 746 OFFCURVE",
"753 751 CURVE SMOOTH",
"738 761 OFFCURVE",
"695 781 OFFCURVE",
"671 784 CURVE SMOOTH",
"659 785 OFFCURVE",
"652 783 OFFCURVE",
"644 770 CURVE SMOOTH",
"639 762 OFFCURVE",
"641 756 OFFCURVE",
"649 752 CURVE SMOOTH",
"700 725 OFFCURVE",
"701 712 OFFCURVE",
"701 651 CURVE SMOOTH",
"701 39 LINE SMOOTH",
"701 0 OFFCURVE",
"703 -68 OFFCURVE",
"708 -84 CURVE SMOOTH",
"709 -89 OFFCURVE",
"715 -95 OFFCURVE",
"724 -91 CURVE"
);
},
{
closed = 1;
nodes = (
"633 224 OFFCURVE",
"535 198 OFFCURVE",
"390 181 CURVE",
"390 214 OFFCURVE",
"390 257 OFFCURVE",
"391 277 CURVE SMOOTH",
"392 304 OFFCURVE",
"393 327 OFFCURVE",
"397 346 CURVE SMOOTH",
"398 351 OFFCURVE",
"394 357 OFFCURVE",
"385 363 CURVE SMOOTH",
"370 374 OFFCURVE",
"348 385 OFFCURVE",
"333 389 CURVE SMOOTH",
"320 392 OFFCURVE",
"310 388 OFFCURVE",
"303 377 CURVE",
"300 370 OFFCURVE",
"299 362 OFFCURVE",
"306 359 CURVE SMOOTH",
"341 340 OFFCURVE",
"342 311 OFFCURVE",
"342 271 CURVE SMOOTH",
"342 175 LINE",
"302 171 OFFCURVE",
"260 170 OFFCURVE",
"216 167 CURVE SMOOTH",
"171 164 OFFCURVE",
"118 165 OFFCURVE",
"70 172 CURVE",
"61 172 OFFCURVE",
"52 156 OFFCURVE",
"56 148 CURVE SMOOTH",
"59 140 OFFCURVE",
"92 119 OFFCURVE",
"105 111 CURVE SMOOTH",
"122 100 OFFCURVE",
"131 99 OFFCURVE",
"158 108 CURVE SMOOTH",
"192 119 OFFCURVE",
"264 127 OFFCURVE",
"315 132 CURVE SMOOTH",
"483 151 OFFCURVE",
"626 185 OFFCURVE",
"658 198 CURVE SMOOTH",
"682 209 OFFCURVE",
"686 241 OFFCURVE",
"660 233 CURVE SMOOTH"
);
}
);
width = 900;
}
);
note = cid00399;
unicode = 315A;
},
{
glyphname = "yoCompa-ko";
lastChange = "2019-11-29 11:50:58 +0000";
layers = (
{
layerId = "210D674B-AD98-4874-A618-1698A23DB8A1";
paths = (
{
closed = 1;
nodes = (
"346 293 LINE SMOOTH",
"346 329 OFFCURVE",
"348 366 OFFCURVE",
"351 375 CURVE",
"351 382 OFFCURVE",
"346 389 OFFCURVE",
"335 397 CURVE SMOOTH",
"320 408 OFFCURVE",
"295 418 OFFCURVE",
"282 421 CURVE SMOOTH",
"267 424 OFFCURVE",
"257 420 OFFCURVE",
"250 407 CURVE SMOOTH",
"247 400 OFFCURVE",
"249 395 OFFCURVE",
"256 390 CURVE",
"292 371 OFFCURVE",
"297 341 OFFCURVE",
"300 290 CURVE SMOOTH",
"300 269 OFFCURVE",
"301 225 OFFCURVE",
"301 205 CURVE",
"232 205 LINE SMOOTH",
"161 204 OFFCURVE",
"111 209 OFFCURVE",
"68 218 CURVE",
"59 221 OFFCURVE",
"47 204 OFFCURVE",
"51 197 CURVE SMOOTH",
"54 189 OFFCURVE",
"82 162 OFFCURVE",
"95 154 CURVE SMOOTH",
"108 145 OFFCURVE",
"111 143 OFFCURVE",
"135 148 CURVE SMOOTH",
"174 156 OFFCURVE",
"215 161 OFFCURVE",
"274 164 CURVE SMOOTH",
"383 169 OFFCURVE",
"503 170 OFFCURVE",
"624 173 CURVE SMOOTH",
"686 173 OFFCURVE",
"771 173 OFFCURVE",
"832 168 CURVE SMOOTH",
"837 168 OFFCURVE",
"850 176 OFFCURVE",
"850 185 CURVE SMOOTH",
"850 196 OFFCURVE",
"839 215 OFFCURVE",
"831 226 CURVE SMOOTH",
"823 237 OFFCURVE",
"817 240 OFFCURVE",
"802 236 CURVE SMOOTH",
"774 226 OFFCURVE",
"693 215 OFFCURVE",
"610 212 CURVE",
"613 233 OFFCURVE",
"619 297 OFFCURVE",
"622 318 CURVE SMOOTH",
"625 346 OFFCURVE",
"628 383 OFFCURVE",
"633 403 CURVE SMOOTH",
"634 409 OFFCURVE",
"630 415 OFFCURVE",
"621 422 CURVE SMOOTH",
"606 434 OFFCURVE",
"582 446 OFFCURVE",
"567 450 CURVE SMOOTH",
"554 454 OFFCURVE",
"544 451 OFFCURVE",
"537 440 CURVE SMOOTH",
"532 431 OFFCURVE",
"533 425 OFFCURVE",
"541 421 CURVE",
"574 399 OFFCURVE",
"574 354 OFFCURVE",
"571 313 CURVE SMOOTH",
"562 210 LINE",
"481 207 OFFCURVE",
"414 206 OFFCURVE",
"346 205 CURVE"
);
}
);
width = 900;
}
);
note = cid00400;
unicode = 315B;
},
{
glyphname = "uCompa-ko";
lastChange = "2019-11-29 11:50:58 +0000";
layers = (
{
layerId = "210D674B-AD98-4874-A618-1698A23DB8A1";
paths = (
{
closed = 1;
nodes = (
"460 417 OFFCURVE",
"360 415 OFFCURVE",
"232 415 CURVE SMOOTH",
"161 414 OFFCURVE",
"111 419 OFFCURVE",
"68 428 CURVE",
"59 431 OFFCURVE",
"47 414 OFFCURVE",
"51 407 CURVE SMOOTH",
"54 399 OFFCURVE",
"82 372 OFFCURVE",
"95 364 CURVE SMOOTH",
"108 355 OFFCURVE",
"111 353 OFFCURVE",
"135 358 CURVE SMOOTH",
"174 366 OFFCURVE",
"215 371 OFFCURVE",
"274 374 CURVE SMOOTH",
"323 377 OFFCURVE",
"374 378 OFFCURVE",
"429 379 CURVE",
"429 148 LINE SMOOTH",
"429 108 OFFCURVE",
"431 40 OFFCURVE",
"436 25 CURVE SMOOTH",
"437 20 OFFCURVE",
"443 13 OFFCURVE",
"452 17 CURVE SMOOTH",
"478 28 OFFCURVE",
"486 108 OFFCURVE",
"486 150 CURVE SMOOTH",
"486 380 LINE",
"624 383 LINE SMOOTH",
"686 383 OFFCURVE",
"771 383 OFFCURVE",
"832 378 CURVE SMOOTH",
"837 378 OFFCURVE",
"850 386 OFFCURVE",
"850 395 CURVE SMOOTH",
"850 406 OFFCURVE",
"839 425 OFFCURVE",
"831 436 CURVE SMOOTH",
"823 447 OFFCURVE",
"817 450 OFFCURVE",
"802 446 CURVE",
"773 435 OFFCURVE",
"694 425 OFFCURVE",
"607 422 CURVE SMOOTH"
);
}
);
width = 900;
}
);
note = cid00401;
unicode = 315C;
},
{
glyphname = "weoCompa-ko";
lastChange = "2019-11-29 11:50:58 +0000";
layers = (
{
layerId = "210D674B-AD98-4874-A618-1698A23DB8A1";
paths = (
{
closed = 1;
nodes = (
"751 -83 OFFCURVE",
"758 1 OFFCURVE",
"758 41 CURVE SMOOTH",
"758 650 LINE SMOOTH",
"758 682 OFFCURVE",
"760 703 OFFCURVE",
"764 731 CURVE SMOOTH",
"765 739 OFFCURVE",
"759 746 OFFCURVE",
"752 751 CURVE SMOOTH",
"737 761 OFFCURVE",
"694 781 OFFCURVE",
"671 784 CURVE SMOOTH",
"659 785 OFFCURVE",
"651 783 OFFCURVE",
"643 770 CURVE SMOOTH",
"638 762 OFFCURVE",
"640 756 OFFCURVE",
"648 752 CURVE SMOOTH",
"699 725 OFFCURVE",
"701 712 OFFCURVE",
"701 651 CURVE SMOOTH",
"701 206 LINE",
"681 203 OFFCURVE",
"652 199 OFFCURVE",
"627 198 CURVE SMOOTH",
"545 190 OFFCURVE",
"512 193 OFFCURVE",
"481 196 CURVE SMOOTH",
"473 197 OFFCURVE",
"464 180 OFFCURVE",
"468 173 CURVE SMOOTH",
"472 166 OFFCURVE",
"496 152 OFFCURVE",
"507 147 CURVE SMOOTH",
"518 142 OFFCURVE",
"524 141 OFFCURVE",
"539 144 CURVE SMOOTH",
"579 152 OFFCURVE",
"583 157 OFFCURVE",
"637 162 CURVE SMOOTH",
"701 167 LINE",
"701 39 LINE SMOOTH",
"701 0 OFFCURVE",
"702 -68 OFFCURVE",
"707 -84 CURVE SMOOTH",
"708 -89 OFFCURVE",
"713 -95 OFFCURVE",
"724 -91 CURVE SMOOTH"
);
},
{
closed = 1;
nodes = (
"580 355 OFFCURVE",
"454 310 OFFCURVE",
"211 305 CURVE SMOOTH",
"166 304 OFFCURVE",
"113 304 OFFCURVE",
"65 309 CURVE",
"56 309 OFFCURVE",
"47 294 OFFCURVE",
"51 286 CURVE SMOOTH",
"54 277 OFFCURVE",
"86 256 OFFCURVE",
"100 248 CURVE SMOOTH",
"117 239 OFFCURVE",
"126 237 OFFCURVE",
"153 245 CURVE SMOOTH",
"188 256 OFFCURVE",
"255 263 OFFCURVE",
"308 268 CURVE",
"311 171 OFFCURVE",
"289 16 OFFCURVE",
"273 -33 CURVE SMOOTH",
"265 -57 OFFCURVE",
"300 -57 OFFCURVE",
"317 -32 CURVE SMOOTH",
"349 19 OFFCURVE",
"374 187 OFFCURVE",
"374 276 CURVE",
"520 295 OFFCURVE",
"587 318 OFFCURVE",
"624 334 CURVE",
"648 342 OFFCURVE",
"648 378 OFFCURVE",
"624 370 CURVE SMOOTH"
);
}
);
width = 900;
}
);
note = cid00402;
unicode = 315D;
},
{
glyphname = "weCompa-ko";
lastChange = "2019-11-29 11:50:58 +0000";
layers = (
{
layerId = "210D674B-AD98-4874-A618-1698A23DB8A1";
paths = (
{
closed = 1;
nodes = (
"632 -49 OFFCURVE",
"636 34 OFFCURVE",
"636 76 CURVE SMOOTH",
"636 595 LINE SMOOTH",
"636 627 OFFCURVE",
"635 665 OFFCURVE",
"639 694 CURVE SMOOTH",
"640 699 OFFCURVE",
"636 706 OFFCURVE",
"629 713 CURVE SMOOTH",
"621 721 OFFCURVE",
"584 746 OFFCURVE",
"562 748 CURVE SMOOTH",
"550 749 OFFCURVE",
"542 746 OFFCURVE",
"535 733 CURVE SMOOTH",
"530 726 OFFCURVE",
"532 720 OFFCURVE",
"540 715 CURVE SMOOTH",
"585 688 OFFCURVE",
"580 657 OFFCURVE",
"580 596 CURVE SMOOTH",
"580 206 LINE",
"568 203 OFFCURVE",
"555 203 OFFCURVE",
"540 202 CURVE SMOOTH",
"459 194 OFFCURVE",
"425 196 OFFCURVE",
"393 201 CURVE SMOOTH",
"384 202 OFFCURVE",
"375 185 OFFCURVE",
"378 177 CURVE",
"381 172 OFFCURVE",
"408 154 OFFCURVE",
"418 149 CURVE SMOOTH",
"430 144 OFFCURVE",
"437 143 OFFCURVE",
"450 147 CURVE SMOOTH",
"489 158 OFFCURVE",
"495 162 OFFCURVE",
"548 167 CURVE SMOOTH",
"580 170 LINE",
"580 74 LINE SMOOTH",
"580 34 OFFCURVE",
"582 -34 OFFCURVE",
"587 -50 CURVE SMOOTH",
"588 -54 OFFCURVE",
"593 -61 OFFCURVE",
"604 -57 CURVE SMOOTH"
);
},
{
closed = 1;
nodes = (
"774 -83 OFFCURVE",
"778 0 OFFCURVE",
"778 42 CURVE SMOOTH",
"778 650 LINE SMOOTH",
"778 682 OFFCURVE",
"780 705 OFFCURVE",
"784 733 CURVE SMOOTH",
"785 741 OFFCURVE",
"779 746 OFFCURVE",
"772 753 CURVE SMOOTH",
"757 765 OFFCURVE",
"724 784 OFFCURVE",
"700 788 CURVE SMOOTH",
"689 790 OFFCURVE",
"679 785 OFFCURVE",
"672 773 CURVE SMOOTH",
"669 766 OFFCURVE",
"670 760 OFFCURVE",
"677 755 CURVE SMOOTH",
"725 726 OFFCURVE",
"723 713 OFFCURVE",
"723 651 CURVE SMOOTH",
"723 40 LINE SMOOTH",
"723 0 OFFCURVE",
"725 -68 OFFCURVE",
"730 -84 CURVE SMOOTH",
"731 -88 OFFCURVE",
"735 -95 OFFCURVE",
"746 -91 CURVE SMOOTH"
);
},
{
closed = 1;
nodes = (
"479 349 OFFCURVE",
"400 327 OFFCURVE",
"203 311 CURVE SMOOTH",
"158 307 OFFCURVE",
"107 305 OFFCURVE",
"59 312 CURVE",
"51 312 OFFCURVE",
"42 296 OFFCURVE",
"46 289 CURVE SMOOTH",
"49 281 OFFCURVE",
"75 265 OFFCURVE",
"89 257 CURVE SMOOTH",
"108 248 OFFCURVE",
"117 247 OFFCURVE",
"142 254 CURVE SMOOTH",
"177 265 OFFCURVE",
"194 268 OFFCURVE",
"246 276 CURVE SMOOTH",
"249 276 LINE",
"249 185 OFFCURVE",
"231 44 OFFCURVE",
"217 -6 CURVE SMOOTH",
"209 -31 OFFCURVE",
"239 -31 OFFCURVE",
"254 -8 CURVE SMOOTH",
"283 37 OFFCURVE",
"308 204 OFFCURVE",
"308 285 CURVE",
"426 304 OFFCURVE",
"479 317 OFFCURVE",
"516 330 CURVE SMOOTH",
"543 341 OFFCURVE",
"547 370 OFFCURVE",
"519 362 CURVE SMOOTH"
);
}
);
width = 900;
}
);
note = cid00403;
unicode = 315E;
},
{
glyphname = "wiCompa-ko";
lastChange = "2019-11-29 11:50:58 +0000";
layers = (
{
layerId = "210D674B-AD98-4874-A618-1698A23DB8A1";
paths = (
{
closed = 1;
nodes = (
"751 -83 OFFCURVE",
"758 1 OFFCURVE",
"758 41 CURVE SMOOTH",
"758 650 LINE SMOOTH",
"758 682 OFFCURVE",
"760 703 OFFCURVE",
"764 731 CURVE SMOOTH",
"765 739 OFFCURVE",
"759 746 OFFCURVE",
"752 751 CURVE SMOOTH",
"739 761 OFFCURVE",
"695 781 OFFCURVE",
"671 784 CURVE SMOOTH",
"659 785 OFFCURVE",
"651 783 OFFCURVE",
"644 770 CURVE SMOOTH",
"639 762 OFFCURVE",
"641 756 OFFCURVE",
"648 752 CURVE SMOOTH",
"699 725 OFFCURVE",
"701 712 OFFCURVE",
"701 651 CURVE SMOOTH",
"701 39 LINE SMOOTH",
"701 0 OFFCURVE",
"703 -68 OFFCURVE",
"708 -84 CURVE SMOOTH",
"709 -89 OFFCURVE",
"713 -95 OFFCURVE",
"724 -91 CURVE SMOOTH"
);
},
{
closed = 1;
nodes = (
"628 339 OFFCURVE",
"450 301 OFFCURVE",
"206 290 CURVE SMOOTH",
"161 287 OFFCURVE",
"108 288 OFFCURVE",
"60 295 CURVE",
"51 295 OFFCURVE",
"42 279 OFFCURVE",
"46 272 CURVE",
"49 263 OFFCURVE",
"81 242 OFFCURVE",
"95 234 CURVE SMOOTH",
"112 223 OFFCURVE",
"121 222 OFFCURVE",
"148 231 CURVE SMOOTH",
"184 242 OFFCURVE",
"248 246 OFFCURVE",
"300 253 CURVE",
"305 253 OFFCURVE",
"310 254 OFFCURVE",
"315 254 CURVE",
"318 156 OFFCURVE",
"303 3 OFFCURVE",
"289 -43 CURVE SMOOTH",
"281 -67 OFFCURVE",
"316 -67 OFFCURVE",
"333 -42 CURVE SMOOTH",
"363 6 OFFCURVE",
"381 170 OFFCURVE",
"381 263 CURVE",
"530 284 OFFCURVE",
"636 309 OFFCURVE",
"673 324 CURVE SMOOTH",
"697 335 OFFCURVE",
"697 363 OFFCURVE",
"673 355 CURVE SMOOTH"
);
}
);
width = 900;
}
);
note = cid00404;
unicode = 315F;
},
{
glyphname = "yuCompa-ko";
lastChange = "2019-11-29 11:50:58 +0000";
layers = (
{
layerId = "210D674B-AD98-4874-A618-1698A23DB8A1";
paths = (
{
closed = 1;
nodes = (
"460 417 OFFCURVE",
"360 415 OFFCURVE",
"232 415 CURVE SMOOTH",
"161 414 OFFCURVE",
"111 419 OFFCURVE",
"68 428 CURVE",
"59 431 OFFCURVE",
"47 414 OFFCURVE",
"51 407 CURVE SMOOTH",
"54 399 OFFCURVE",
"82 372 OFFCURVE",
"95 364 CURVE SMOOTH",
"108 355 OFFCURVE",
"111 353 OFFCURVE",
"135 358 CURVE SMOOTH",
"174 366 OFFCURVE",
"215 371 OFFCURVE",
"274 374 CURVE SMOOTH",
"282 374 OFFCURVE",
"289 374 OFFCURVE",
"297 375 CURVE",
"302 263 OFFCURVE",
"274 128 OFFCURVE",
"250 54 CURVE SMOOTH",
"245 36 OFFCURVE",
"272 34 OFFCURVE",
"286 50 CURVE SMOOTH",
"342 123 OFFCURVE",
"364 310 OFFCURVE",
"361 377 CURVE",
"433 380 OFFCURVE",
"507 381 OFFCURVE",
"583 382 CURVE",
"583 153 LINE SMOOTH",
"583 113 OFFCURVE",
"585 45 OFFCURVE",
"590 30 CURVE SMOOTH",
"591 25 OFFCURVE",
"597 18 OFFCURVE",
"606 22 CURVE SMOOTH",
"634 33 OFFCURVE",
"640 112 OFFCURVE",
"640 155 CURVE SMOOTH",
"640 383 LINE",
"700 384 OFFCURVE",
"776 383 OFFCURVE",
"832 378 CURVE SMOOTH",
"837 378 OFFCURVE",
"850 386 OFFCURVE",
"850 395 CURVE SMOOTH",
"850 406 OFFCURVE",
"839 425 OFFCURVE",
"831 436 CURVE SMOOTH",
"823 447 OFFCURVE",
"817 450 OFFCURVE",
"802 446 CURVE",
"773 435 OFFCURVE",
"694 425 OFFCURVE",
"607 422 CURVE SMOOTH"
);
}
);
width = 900;
}
);
note = cid00405;
unicode = 3160;
},
{
glyphname = "euCompa-ko";
lastChange = "2019-11-29 11:50:58 +0000";
layers = (
{
layerId = "210D674B-AD98-4874-A618-1698A23DB8A1";
paths = (
{
closed = 1;
nodes = (
"460 302 OFFCURVE",
"360 300 OFFCURVE",
"232 300 CURVE SMOOTH",
"161 299 OFFCURVE",
"111 304 OFFCURVE",
"68 313 CURVE",
"59 316 OFFCURVE",
"47 299 OFFCURVE",
"51 292 CURVE SMOOTH",
"54 284 OFFCURVE",
"82 257 OFFCURVE",
"95 249 CURVE SMOOTH",
"108 240 OFFCURVE",
"111 238 OFFCURVE",
"135 243 CURVE SMOOTH",
"174 251 OFFCURVE",
"215 256 OFFCURVE",
"274 259 CURVE SMOOTH",
"383 264 OFFCURVE",
"503 265 OFFCURVE",
"624 268 CURVE SMOOTH",
"686 268 OFFCURVE",
"771 268 OFFCURVE",
"832 263 CURVE SMOOTH",
"837 263 OFFCURVE",
"850 271 OFFCURVE",
"850 280 CURVE SMOOTH",
"850 291 OFFCURVE",
"839 310 OFFCURVE",
"831 321 CURVE SMOOTH",
"823 332 OFFCURVE",
"817 335 OFFCURVE",
"802 331 CURVE",
"773 320 OFFCURVE",
"694 310 OFFCURVE",
"607 307 CURVE SMOOTH"
);
}
);
width = 900;
}
);
note = cid00406;
unicode = 3161;
},
{
glyphname = "yiCompa-ko";
lastChange = "2019-11-29 11:50:58 +0000";
layers = (
{
layerId = "210D674B-AD98-4874-A618-1698A23DB8A1";
paths = (
{
closed = 1;
nodes = (
"752 -83 OFFCURVE",
"758 1 OFFCURVE",
"758 41 CURVE SMOOTH",
"758 650 LINE SMOOTH",
"758 682 OFFCURVE",
"760 703 OFFCURVE",
"764 731 CURVE SMOOTH",
"765 739 OFFCURVE",
"760 746 OFFCURVE",
"753 751 CURVE SMOOTH",
"738 761 OFFCURVE",
"695 781 OFFCURVE",
"671 784 CURVE SMOOTH",
"659 785 OFFCURVE",
"652 783 OFFCURVE",
"644 770 CURVE SMOOTH",
"639 762 OFFCURVE",
"641 756 OFFCURVE",
"649 752 CURVE SMOOTH",
"700 725 OFFCURVE",
"701 712 OFFCURVE",
"701 651 CURVE SMOOTH",
"701 39 LINE SMOOTH",
"701 0 OFFCURVE",
"703 -68 OFFCURVE",
"708 -84 CURVE SMOOTH",
"709 -89 OFFCURVE",
"715 -95 OFFCURVE",
"724 -91 CURVE"
);
},
{
closed = 1;
nodes = (
"635 230 OFFCURVE",
"454 174 OFFCURVE",
"236 163 CURVE SMOOTH",
"191 160 OFFCURVE",
"138 160 OFFCURVE",
"90 167 CURVE",
"81 167 OFFCURVE",
"72 151 OFFCURVE",
"76 143 CURVE SMOOTH",
"79 135 OFFCURVE",
"112 114 OFFCURVE",
"125 106 CURVE SMOOTH",
"142 95 OFFCURVE",
"151 94 OFFCURVE",
"178 103 CURVE SMOOTH",
"213 114 OFFCURVE",
"283 122 OFFCURVE",
"335 130 CURVE SMOOTH",
"495 151 OFFCURVE",
"634 197 OFFCURVE",
"658 208 CURVE SMOOTH",
"683 219 OFFCURVE",
"684 253 OFFCURVE",
"660 242 CURVE SMOOTH"
);
}
);
width = 900;
}
);
note = cid00407;
unicode = 3162;
},
{
glyphname = "iCompa-ko";
lastChange = "2019-11-29 11:50:58 +0000";
layers = (
{
layerId = "210D674B-AD98-4874-A618-1698A23DB8A1";
paths = (
{
closed = 1;
nodes = (
"478 -83 OFFCURVE",
"484 1 OFFCURVE",
"484 41 CURVE SMOOTH",
"484 650 LINE SMOOTH",
"484 682 OFFCURVE",
"486 703 OFFCURVE",
"490 731 CURVE SMOOTH",
"491 739 OFFCURVE",
"485 746 OFFCURVE",
"478 751 CURVE SMOOTH",
"465 761 OFFCURVE",
"421 781 OFFCURVE",
"397 784 CURVE SMOOTH",
"385 785 OFFCURVE",
"378 783 OFFCURVE",
"370 770 CURVE SMOOTH",
"365 762 OFFCURVE",
"367 756 OFFCURVE",
"375 752 CURVE SMOOTH",
"426 725 OFFCURVE",
"427 712 OFFCURVE",
"427 651 CURVE SMOOTH",
"427 39 LINE SMOOTH",
"427 0 OFFCURVE",
"429 -68 OFFCURVE",
"434 -84 CURVE SMOOTH",
"435 -89 OFFCURVE",
"441 -95 OFFCURVE",
"450 -91 CURVE"
);
}
);
width = 900;
}
);
note = cid00408;
unicode = 3163;
},
{
glyphname = "ssangnieunCompa-ko";
lastChange = "2019-11-29 11:50:58 +0000";
layers = (
{
layerId = "210D674B-AD98-4874-A618-1698A23DB8A1";
paths = (
{
closed = 1;
nodes = (
"199 410 LINE SMOOTH",
"199 429 OFFCURVE",
"202 466 OFFCURVE",
"205 480 CURVE SMOOTH",
"206 487 OFFCURVE",
"202 494 OFFCURVE",
"193 501 CURVE SMOOTH",
"173 516 OFFCURVE",
"143 529 OFFCURVE",
"112 536 CURVE SMOOTH",
"99 539 OFFCURVE",
"89 533 OFFCURVE",
"82 518 CURVE SMOOTH",
"78 511 OFFCURVE",
"81 501 OFFCURVE",
"90 498 CURVE",
"124 482 OFFCURVE",
"136 464 OFFCURVE",
"136 407 CURVE SMOOTH",
"136 211 LINE SMOOTH",
"136 168 OFFCURVE",
"151 128 OFFCURVE",
"182 131 CURVE SMOOTH",
"270 142 OFFCURVE",
"394 178 OFFCURVE",
"441 204 CURVE SMOOTH",
"468 220 OFFCURVE",
"462 252 OFFCURVE",
"436 241 CURVE SMOOTH",
"388 220 OFFCURVE",
"289 200 OFFCURVE",
"222 195 CURVE SMOOTH",
"197 192 OFFCURVE",
"199 215 OFFCURVE",
"199 234 CURVE SMOOTH"
);
},
{
closed = 1;
nodes = (
"484 226 LINE SMOOTH",
"484 177 OFFCURVE",
"500 149 OFFCURVE",
"532 150 CURVE SMOOTH",
"624 155 OFFCURVE",
"715 162 OFFCURVE",
"795 157 CURVE SMOOTH",
"801 157 OFFCURVE",
"821 171 OFFCURVE",
"818 182 CURVE SMOOTH",
"814 193 OFFCURVE",
"809 201 OFFCURVE",
"801 212 CURVE SMOOTH",
"792 223 OFFCURVE",
"784 225 OFFCURVE",
"765 218 CURVE SMOOTH",
"738 207 OFFCURVE",
"671 198 OFFCURVE",
"575 197 CURVE SMOOTH",
"546 197 OFFCURVE",
"548 203 OFFCURVE",
"548 232 CURVE SMOOTH",
"548 454 LINE SMOOTH",
"548 473 OFFCURVE",
"550 492 OFFCURVE",
"553 504 CURVE SMOOTH",
"554 512 OFFCURVE",
"550 519 OFFCURVE",
"541 526 CURVE SMOOTH",
"521 541 OFFCURVE",
"491 553 OFFCURVE",
"460 560 CURVE SMOOTH",
"447 564 OFFCURVE",
"437 558 OFFCURVE",
"430 542 CURVE SMOOTH",
"427 537 OFFCURVE",
"429 526 OFFCURVE",
"438 522 CURVE SMOOTH",
"473 506 OFFCURVE",
"484 489 OFFCURVE",
"484 431 CURVE SMOOTH"
);
}
);
width = 900;
}
);
note = cid00409;
unicode = 3165;
},
{
glyphname = "nieunTikeutCompa-ko";
lastChange = "2019-11-29 11:50:58 +0000";
layers = (
{
layerId = "210D674B-AD98-4874-A618-1698A23DB8A1";
paths = (
{
closed = 1;
nodes = (
"486 225 LINE SMOOTH",
"486 176 OFFCURVE",
"502 148 OFFCURVE",
"534 149 CURVE SMOOTH",
"626 154 OFFCURVE",
"715 160 OFFCURVE",
"795 156 CURVE SMOOTH",
"801 156 OFFCURVE",
"821 170 OFFCURVE",
"818 181 CURVE SMOOTH",
"814 191 OFFCURVE",
"808 201 OFFCURVE",
"801 210 CURVE SMOOTH",
"792 221 OFFCURVE",
"784 222 OFFCURVE",
"765 215 CURVE SMOOTH",
"738 204 OFFCURVE",
"677 197 OFFCURVE",
"581 196 CURVE SMOOTH",
"552 196 OFFCURVE",
"548 202 OFFCURVE",
"548 231 CURVE SMOOTH",
"548 490 LINE",
"629 495 OFFCURVE",
"723 499 OFFCURVE",
"782 496 CURVE SMOOTH",
"787 496 OFFCURVE",
"801 510 OFFCURVE",
"801 519 CURVE SMOOTH",
"801 527 OFFCURVE",
"792 543 OFFCURVE",
"785 550 CURVE SMOOTH",
"777 559 OFFCURVE",
"771 563 OFFCURVE",
"752 556 CURVE SMOOTH",
"712 543 OFFCURVE",
"592 533 OFFCURVE",
"532 533 CURVE",
"512 541 OFFCURVE",
"484 547 OFFCURVE",
"468 550 CURVE SMOOTH",
"456 553 OFFCURVE",
"446 548 OFFCURVE",
"439 532 CURVE",
"436 521 OFFCURVE",
"439 520 OFFCURVE",
"446 517 CURVE SMOOTH",
"485 498 OFFCURVE",
"486 471 OFFCURVE",
"486 422 CURVE SMOOTH"
);
},
{
closed = 1;
nodes = (
"199 410 LINE SMOOTH",
"199 429 OFFCURVE",
"202 466 OFFCURVE",
"205 480 CURVE SMOOTH",
"206 487 OFFCURVE",
"202 494 OFFCURVE",
"193 501 CURVE SMOOTH",
"173 516 OFFCURVE",
"143 529 OFFCURVE",
"112 536 CURVE SMOOTH",
"99 539 OFFCURVE",
"89 533 OFFCURVE",
"82 518 CURVE SMOOTH",
"78 511 OFFCURVE",
"81 501 OFFCURVE",
"90 498 CURVE",
"124 482 OFFCURVE",
"136 464 OFFCURVE",
"136 407 CURVE SMOOTH",
"136 211 LINE SMOOTH",
"136 168 OFFCURVE",
"151 128 OFFCURVE",
"182 131 CURVE SMOOTH",
"270 142 OFFCURVE",
"394 178 OFFCURVE",
"441 204 CURVE SMOOTH",
"468 220 OFFCURVE",
"462 252 OFFCURVE",
"436 241 CURVE SMOOTH",
"388 220 OFFCURVE",
"289 200 OFFCURVE",
"222 195 CURVE SMOOTH",
"197 192 OFFCURVE",
"199 215 OFFCURVE",
"199 234 CURVE SMOOTH"
);
}
);
width = 900;
}
);
note = cid00410;
unicode = 3166;
},
{
glyphname = "nieunSiosCompa-ko";
lastChange = "2019-11-29 11:50:58 +0000";
layers = (
{
layerId = "210D674B-AD98-4874-A618-1698A23DB8A1";
paths = (
{
closed = 1;
nodes = (
"693 516 OFFCURVE",
"678 529 OFFCURVE",
"669 537 CURVE SMOOTH",
"660 544 OFFCURVE",
"633 561 OFFCURVE",
"613 569 CURVE SMOOTH",
"598 576 OFFCURVE",
"581 577 OFFCURVE",
"569 557 CURVE SMOOTH",
"564 548 OFFCURVE",
"564 543 OFFCURVE",
"576 536 CURVE SMOOTH",
"611 515 OFFCURVE",
"610 490 OFFCURVE",
"590 429 CURVE SMOOTH",
"574 381 OFFCURVE",
"500 221 OFFCURVE",
"396 136 CURVE",
"375 115 OFFCURVE",
"408 101 OFFCURVE",
"437 119 CURVE SMOOTH",
"508 166 OFFCURVE",
"574 267 OFFCURVE",
"617 350 CURVE",
"672 295 OFFCURVE",
"744 206 OFFCURVE",
"784 137 CURVE",
"787 129 OFFCURVE",
"820 139 OFFCURVE",
"825 154 CURVE SMOOTH",
"833 184 OFFCURVE",
"819 225 OFFCURVE",
"802 240 CURVE",
"755 267 OFFCURVE",
"703 315 OFFCURVE",
"634 383 CURVE",
"653 425 LINE SMOOTH",
"668 458 OFFCURVE",
"674 474 OFFCURVE",
"689 505 CURVE"
);
},
{
closed = 1;
nodes = (
"191 431 LINE SMOOTH",
"191 450 OFFCURVE",
"194 470 OFFCURVE",
"197 482 CURVE SMOOTH",
"198 489 OFFCURVE",
"194 496 OFFCURVE",
"185 503 CURVE SMOOTH",
"165 518 OFFCURVE",
"135 531 OFFCURVE",
"104 538 CURVE SMOOTH",
"91 541 OFFCURVE",
"81 535 OFFCURVE",
"74 520 CURVE SMOOTH",
"70 513 OFFCURVE",
"73 503 OFFCURVE",
"82 500 CURVE",
"116 484 OFFCURVE",
"128 466 OFFCURVE",
"128 409 CURVE SMOOTH",
"128 224 LINE SMOOTH",
"128 180 OFFCURVE",
"143 142 OFFCURVE",
"174 145 CURVE SMOOTH",
"263 156 OFFCURVE",
"396 196 OFFCURVE",
"445 223 CURVE",
"469 239 OFFCURVE",
"466 271 OFFCURVE",
"439 260 CURVE SMOOTH",
"391 239 OFFCURVE",
"282 214 OFFCURVE",
"214 209 CURVE SMOOTH",
"189 206 OFFCURVE",
"191 228 OFFCURVE",
"191 248 CURVE SMOOTH"
);
}
);
width = 900;
}
);
note = cid00411;
unicode = 3167;
},
{
glyphname = "nieunPansiosCompa-ko";
lastChange = "2019-11-29 11:50:58 +0000";
layers = (
{
layerId = "210D674B-AD98-4874-A618-1698A23DB8A1";
paths = (
{
closed = 1;
nodes = (
"191 443 LINE SMOOTH",
"191 462 OFFCURVE",
"194 481 OFFCURVE",
"197 493 CURVE SMOOTH",
"198 502 OFFCURVE",
"194 509 OFFCURVE",
"185 514 CURVE",
"165 529 OFFCURVE",
"135 542 OFFCURVE",
"104 549 CURVE SMOOTH",
"91 552 OFFCURVE",
"81 546 OFFCURVE",
"74 531 CURVE",
"70 526 OFFCURVE",
"73 514 OFFCURVE",
"82 511 CURVE",
"116 495 OFFCURVE",
"128 477 OFFCURVE",
"128 420 CURVE SMOOTH",
"128 235 LINE SMOOTH",
"128 193 OFFCURVE",
"143 153 OFFCURVE",
"174 156 CURVE SMOOTH",
"263 167 OFFCURVE",
"385 212 OFFCURVE",
"433 239 CURVE SMOOTH",
"459 255 OFFCURVE",
"454 286 OFFCURVE",
"428 276 CURVE SMOOTH",
"381 255 OFFCURVE",
"281 225 OFFCURVE",
"214 220 CURVE SMOOTH",
"189 217 OFFCURVE",
"191 240 OFFCURVE",
"191 259 CURVE SMOOTH"
);
},
{
closed = 1;
nodes = (
"503 147 OFFCURVE",
"765 150 OFFCURVE",
"809 146 CURVE",
"813 145 OFFCURVE",
"825 158 OFFCURVE",
"828 169 CURVE SMOOTH",
"828 170 OFFCURVE",
"826 173 OFFCURVE",
"823 178 CURVE SMOOTH",
"775 267 OFFCURVE",
"732 365 OFFCURVE",
"662 493 CURVE",
"676 517 LINE",
"679 524 OFFCURVE",
"672 532 OFFCURVE",
"664 540 CURVE SMOOTH",
"648 556 OFFCURVE",
"634 567 OFFCURVE",
"623 574 CURVE SMOOTH",
"611 581 OFFCURVE",
"596 582 OFFCURVE",
"587 567 CURVE SMOOTH",
"580 556 OFFCURVE",
"588 551 OFFCURVE",
"592 547 CURVE SMOOTH",
"611 530 OFFCURVE",
"604 502 OFFCURVE",
"580 453 CURVE SMOOTH",
"558 409 OFFCURVE",
"482 254 OFFCURVE",
"431 197 CURVE",
"422 190 OFFCURVE",
"406 183 OFFCURVE",
"413 174 CURVE SMOOTH",
"429 156 OFFCURVE",
"460 137 OFFCURVE",
"462 139 CURVE"
);
},
{
closed = 1;
nodes = (
"538 263 OFFCURVE",
"608 395 OFFCURVE",
"637 448 CURVE",
"671 379 OFFCURVE",
"721 267 OFFCURVE",
"753 200 CURVE",
"692 192 OFFCURVE",
"551 188 OFFCURVE",
"487 188 CURVE"
);
}
);
width = 900;
}
);
note = cid00412;
unicode = 3168;
},
{
glyphname = "rieulKiyeokSiosCompa-ko";
lastChange = "2019-11-29 11:50:58 +0000";
layers = (
{
layerId = "210D674B-AD98-4874-A618-1698A23DB8A1";
paths = (
{
closed = 1;
nodes = (
"59 362 OFFCURVE",
"44 364 OFFCURVE",
"19 368 CURVE SMOOTH",
"8 369 OFFCURVE",
"-1 351 OFFCURVE",
"3 344 CURVE SMOOTH",
"9 335 OFFCURVE",
"19 326 OFFCURVE",
"32 319 CURVE",
"33 318 OFFCURVE",
"33 318 OFFCURVE",
"34 318 CURVE",
"45 313 OFFCURVE",
"46 307 OFFCURVE",
"46 294 CURVE SMOOTH",
"46 218 LINE SMOOTH",
"46 174 OFFCURVE",
"66 130 OFFCURVE",
"94 135 CURVE",
"215 148 OFFCURVE",
"301 191 OFFCURVE",
"352 218 CURVE SMOOTH",
"379 231 OFFCURVE",
"376 262 OFFCURVE",
"347 249 CURVE SMOOTH",
"308 233 OFFCURVE",
"208 194 OFFCURVE",
"127 191 CURVE SMOOTH",
"106 191 OFFCURVE",
"105 216 OFFCURVE",
"105 237 CURVE SMOOTH",
"105 323 LINE",
"153 331 OFFCURVE",
"238 336 OFFCURVE",
"269 333 CURVE SMOOTH",
"273 333 OFFCURVE",
"289 348 OFFCURVE",
"289 359 CURVE SMOOTH",
"289 368 OFFCURVE",
"265 379 OFFCURVE",
"254 386 CURVE",
"270 459 OFFCURVE",
"283 501 OFFCURVE",
"287 508 CURVE SMOOTH",
"290 516 OFFCURVE",
"287 522 OFFCURVE",
"280 526 CURVE",
"260 533 OFFCURVE",
"249 537 OFFCURVE",
"232 542 CURVE",
"224 546 OFFCURVE",
"222 545 OFFCURVE",
"215 542 CURVE",
"187 534 OFFCURVE",
"137 529 OFFCURVE",
"102 529 CURVE SMOOTH",
"74 529 OFFCURVE",
"53 530 OFFCURVE",
"29 534 CURVE SMOOTH",
"18 537 OFFCURVE",
"8 519 OFFCURVE",
"15 512 CURVE SMOOTH",
"22 504 OFFCURVE",
"26 496 OFFCURVE",
"41 484 CURVE SMOOTH",
"56 472 OFFCURVE",
"59 470 OFFCURVE",
"87 477 CURVE SMOOTH",
"127 488 OFFCURVE",
"193 494 OFFCURVE",
"206 494 CURVE SMOOTH",
"209 494 OFFCURVE",
"216 493 OFFCURVE",
"216 482 CURVE SMOOTH",
"216 461 OFFCURVE",
"214 409 OFFCURVE",
"209 374 CURVE",
"178 367 OFFCURVE",
"137 362 OFFCURVE",
"88 362 CURVE SMOOTH"
);
},
{
closed = 1;
nodes = (
"810 507 OFFCURVE",
"796 520 OFFCURVE",
"787 528 CURVE",
"778 533 OFFCURVE",
"764 547 OFFCURVE",
"745 556 CURVE SMOOTH",
"730 563 OFFCURVE",
"716 567 OFFCURVE",
"701 547 CURVE SMOOTH",
"695 539 OFFCURVE",
"697 532 OFFCURVE",
"706 527 CURVE SMOOTH",
"734 508 OFFCURVE",
"730 477 OFFCURVE",
"711 421 CURVE SMOOTH",
"695 374 OFFCURVE",
"648 261 OFFCURVE",
"551 167 CURVE SMOOTH",
"531 147 OFFCURVE",
"560 130 OFFCURVE",
"587 151 CURVE SMOOTH",
"644 195 OFFCURVE",
"697 270 OFFCURVE",
"736 341 CURVE",
"779 290 OFFCURVE",
"822 230 OFFCURVE",
"855 162 CURVE",
"857 155 OFFCURVE",
"889 160 OFFCURVE",
"894 176 CURVE SMOOTH",
"902 204 OFFCURVE",
"894 245 OFFCURVE",
"878 259 CURVE",
"837 286 OFFCURVE",
"805 311 OFFCURVE",
"752 372 CURVE",
"760 388 OFFCURVE",
"765 403 OFFCURVE",
"772 418 CURVE SMOOTH",
"785 450 OFFCURVE",
"793 467 OFFCURVE",
"806 496 CURVE SMOOTH"
);
},
{
closed = 1;
nodes = (
"586 530 OFFCURVE",
"580 536 OFFCURVE",
"573 537 CURVE SMOOTH",
"556 540 OFFCURVE",
"539 543 OFFCURVE",
"522 548 CURVE SMOOTH",
"514 551 OFFCURVE",
"511 549 OFFCURVE",
"504 546 CURVE SMOOTH",
"476 536 OFFCURVE",
"360 520 OFFCURVE",
"320 531 CURVE SMOOTH",
"309 534 OFFCURVE",
"299 520 OFFCURVE",
"302 511 CURVE SMOOTH",
"306 503 OFFCURVE",
"320 489 OFFCURVE",
"331 480 CURVE SMOOTH",
"343 472 OFFCURVE",
"351 471 OFFCURVE",
"366 474 CURVE SMOOTH",
"398 481 OFFCURVE",
"443 489 OFFCURVE",
"504 493 CURVE SMOOTH",
"512 493 OFFCURVE",
"512 492 OFFCURVE",
"512 481 CURVE SMOOTH",
"512 282 LINE SMOOTH",
"512 253 OFFCURVE",
"511 207 OFFCURVE",
"515 182 CURVE SMOOTH",
"516 175 OFFCURVE",
"520 164 OFFCURVE",
"533 168 CURVE SMOOTH",
"562 179 OFFCURVE",
"568 247 OFFCURVE",
"568 293 CURVE",
"575 434 LINE SMOOTH",
"575 456 OFFCURVE",
"581 509 OFFCURVE",
"583 521 CURVE"
);
}
);
width = 900;
}
);
note = cid00413;
unicode = 3169;
},
{
glyphname = "rieulTikeutCompa-ko";
lastChange = "2019-11-29 11:50:58 +0000";
layers = (
{
layerId = "210D674B-AD98-4874-A618-1698A23DB8A1";
paths = (
{
closed = 1;
nodes = (
"155 360 OFFCURVE",
"133 362 OFFCURVE",
"108 365 CURVE SMOOTH",
"97 366 OFFCURVE",
"88 349 OFFCURVE",
"93 342 CURVE SMOOTH",
"97 334 OFFCURVE",
"112 325 OFFCURVE",
"127 317 CURVE",
"128 316 OFFCURVE",
"128 316 OFFCURVE",
"129 316 CURVE",
"140 311 OFFCURVE",
"142 306 OFFCURVE",
"142 291 CURVE SMOOTH",
"142 207 LINE SMOOTH",
"142 164 OFFCURVE",
"162 125 OFFCURVE",
"191 126 CURVE SMOOTH",
"282 129 OFFCURVE",
"433 190 OFFCURVE",
"451 198 CURVE",
"477 214 OFFCURVE",
"478 240 OFFCURVE",
"447 230 CURVE SMOOTH",
"412 216 OFFCURVE",
"302 178 OFFCURVE",
"224 181 CURVE SMOOTH",
"204 181 OFFCURVE",
"202 206 OFFCURVE",
"202 226 CURVE SMOOTH",
"202 320 LINE",
"258 328 OFFCURVE",
"370 334 OFFCURVE",
"402 331 CURVE SMOOTH",
"405 331 OFFCURVE",
"421 345 OFFCURVE",
"421 356 CURVE SMOOTH",
"421 365 OFFCURVE",
"397 377 OFFCURVE",
"384 384 CURVE",
"403 457 OFFCURVE",
"418 503 OFFCURVE",
"421 511 CURVE SMOOTH",
"424 520 OFFCURVE",
"421 526 OFFCURVE",
"414 529 CURVE SMOOTH",
"394 536 OFFCURVE",
"383 539 OFFCURVE",
"367 543 CURVE SMOOTH",
"358 546 OFFCURVE",
"356 544 OFFCURVE",
"349 541 CURVE",
"309 530 OFFCURVE",
"245 528 OFFCURVE",
"199 528 CURVE SMOOTH",
"170 528 OFFCURVE",
"151 529 OFFCURVE",
"124 533 CURVE",
"115 536 OFFCURVE",
"103 518 OFFCURVE",
"110 511 CURVE SMOOTH",
"117 503 OFFCURVE",
"122 495 OFFCURVE",
"138 483 CURVE",
"151 470 OFFCURVE",
"155 471 OFFCURVE",
"185 476 CURVE",
"225 487 OFFCURVE",
"328 493 OFFCURVE",
"340 493 CURVE SMOOTH",
"344 493 OFFCURVE",
"350 492 OFFCURVE",
"350 481 CURVE SMOOTH",
"350 458 OFFCURVE",
"345 407 OFFCURVE",
"340 370 CURVE",
"304 362 OFFCURVE",
"235 359 OFFCURVE",
"186 359 CURVE SMOOTH"
);
},
{
closed = 1;
nodes = (
"493 225 LINE SMOOTH",
"493 176 OFFCURVE",
"508 148 OFFCURVE",
"541 149 CURVE SMOOTH",
"633 154 OFFCURVE",
"704 160 OFFCURVE",
"785 156 CURVE SMOOTH",
"790 156 OFFCURVE",
"810 170 OFFCURVE",
"807 181 CURVE SMOOTH",
"804 192 OFFCURVE",
"798 199 OFFCURVE",
"790 210 CURVE SMOOTH",
"782 221 OFFCURVE",
"774 222 OFFCURVE",
"755 215 CURVE SMOOTH",
"728 204 OFFCURVE",
"683 197 OFFCURVE",
"588 196 CURVE SMOOTH",
"559 196 OFFCURVE",
"554 202 OFFCURVE",
"554 231 CURVE SMOOTH",
"554 478 LINE",
"634 485 OFFCURVE",
"714 488 OFFCURVE",
"771 485 CURVE SMOOTH",
"778 485 OFFCURVE",
"790 499 OFFCURVE",
"790 508 CURVE SMOOTH",
"790 515 OFFCURVE",
"780 532 OFFCURVE",
"775 539 CURVE SMOOTH",
"767 548 OFFCURVE",
"760 552 OFFCURVE",
"741 545 CURVE SMOOTH",
"703 531 OFFCURVE",
"597 522 OFFCURVE",
"538 522 CURVE",
"519 530 OFFCURVE",
"495 533 OFFCURVE",
"479 537 CURVE SMOOTH",
"467 540 OFFCURVE",
"457 537 OFFCURVE",
"450 521 CURVE SMOOTH",
"447 512 OFFCURVE",
"450 506 OFFCURVE",
"457 503 CURVE SMOOTH",
"489 486 OFFCURVE",
"493 458 OFFCURVE",
"493 411 CURVE SMOOTH"
);
}
);
width = 900;
}
);
note = cid00414;
unicode = 316A;
},
{
glyphname = "rieulPieupSiosCompa-ko";
lastChange = "2019-11-29 11:50:58 +0000";
layers = (
{
layerId = "210D674B-AD98-4874-A618-1698A23DB8A1";
paths = (
{
closed = 1;
nodes = (
"632 419 LINE SMOOTH",
"632 454 OFFCURVE",
"633 489 OFFCURVE",
"637 514 CURVE SMOOTH",
"638 523 OFFCURVE",
"632 529 OFFCURVE",
"625 533 CURVE SMOOTH",
"614 540 OFFCURVE",
"588 557 OFFCURVE",
"571 562 CURVE SMOOTH",
"556 567 OFFCURVE",
"545 563 OFFCURVE",
"538 550 CURVE SMOOTH",
"533 542 OFFCURVE",
"534 536 OFFCURVE",
"541 531 CURVE SMOOTH",
"579 504 OFFCURVE",
"577 484 OFFCURVE",
"577 434 CURVE SMOOTH",
"577 405 LINE",
"539 400 OFFCURVE",
"478 399 OFFCURVE",
"448 399 CURVE",
"448 426 OFFCURVE",
"447 459 OFFCURVE",
"451 480 CURVE",
"451 483 OFFCURVE",
"451 487 OFFCURVE",
"439 496 CURVE SMOOTH",
"424 508 OFFCURVE",
"404 520 OFFCURVE",
"383 528 CURVE SMOOTH",
"371 532 OFFCURVE",
"361 530 OFFCURVE",
"352 517 CURVE SMOOTH",
"347 510 OFFCURVE",
"349 503 OFFCURVE",
"356 496 CURVE",
"395 470 OFFCURVE",
"391 430 OFFCURVE",
"391 382 CURVE SMOOTH",
"391 203 LINE SMOOTH",
"391 191 OFFCURVE",
"391 180 OFFCURVE",
"392 169 CURVE SMOOTH",
"392 136 OFFCURVE",
"402 128 OFFCURVE",
"418 131 CURVE SMOOTH",
"429 134 OFFCURVE",
"443 146 OFFCURVE",
"447 173 CURVE",
"507 174 OFFCURVE",
"556 174 OFFCURVE",
"576 173 CURVE",
"577 154 OFFCURVE",
"579 135 OFFCURVE",
"594 138 CURVE",
"625 141 OFFCURVE",
"629 173 OFFCURVE",
"632 212 CURVE"
);
},
{
closed = 1;
nodes = (
"91 364 OFFCURVE",
"73 365 OFFCURVE",
"49 369 CURVE SMOOTH",
"38 370 OFFCURVE",
"29 353 OFFCURVE",
"34 345 CURVE SMOOTH",
"38 337 OFFCURVE",
"48 330 OFFCURVE",
"63 322 CURVE",
"63 321 OFFCURVE",
"63 321 OFFCURVE",
"64 321 CURVE",
"75 316 OFFCURVE",
"77 312 OFFCURVE",
"77 297 CURVE SMOOTH",
"77 215 LINE SMOOTH",
"77 174 OFFCURVE",
"97 136 OFFCURVE",
"125 136 CURVE SMOOTH",
"216 139 OFFCURVE",
"329 198 OFFCURVE",
"347 209 CURVE",
"374 220 OFFCURVE",
"372 249 OFFCURVE",
"343 238 CURVE SMOOTH",
"311 225 OFFCURVE",
"233 187 OFFCURVE",
"159 190 CURVE SMOOTH",
"138 190 OFFCURVE",
"137 214 OFFCURVE",
"137 234 CURVE SMOOTH",
"137 326 LINE",
"185 331 OFFCURVE",
"266 338 OFFCURVE",
"298 335 CURVE SMOOTH",
"302 335 OFFCURVE",
"316 350 OFFCURVE",
"316 361 CURVE SMOOTH",
"316 370 OFFCURVE",
"293 381 OFFCURVE",
"280 388 CURVE",
"299 460 OFFCURVE",
"312 499 OFFCURVE",
"316 506 CURVE",
"319 515 OFFCURVE",
"315 521 OFFCURVE",
"310 524 CURVE",
"290 531 OFFCURVE",
"279 534 OFFCURVE",
"263 539 CURVE",
"255 540 OFFCURVE",
"253 540 OFFCURVE",
"246 537 CURVE",
"207 526 OFFCURVE",
"185 523 OFFCURVE",
"141 523 CURVE SMOOTH",
"113 523 OFFCURVE",
"85 524 OFFCURVE",
"60 529 CURVE",
"51 532 OFFCURVE",
"39 513 OFFCURVE",
"46 506 CURVE SMOOTH",
"54 499 OFFCURVE",
"58 491 OFFCURVE",
"73 480 CURVE SMOOTH",
"88 467 OFFCURVE",
"91 466 OFFCURVE",
"119 473 CURVE SMOOTH",
"159 484 OFFCURVE",
"225 489 OFFCURVE",
"238 489 CURVE SMOOTH",
"241 489 OFFCURVE",
"247 488 OFFCURVE",
"247 477 CURVE SMOOTH",
"247 456 OFFCURVE",
"242 409 OFFCURVE",
"238 373 CURVE",
"214 368 OFFCURVE",
"154 364 OFFCURVE",
"120 364 CURVE SMOOTH"
);
},
{
closed = 1;
nodes = (
"876 510 OFFCURVE",
"863 521 OFFCURVE",
"852 528 CURVE SMOOTH",
"841 536 OFFCURVE",
"832 545 OFFCURVE",
"813 554 CURVE",
"798 559 OFFCURVE",
"785 566 OFFCURVE",
"770 545 CURVE",
"766 537 OFFCURVE",
"764 530 OFFCURVE",
"775 523 CURVE SMOOTH",
"802 504 OFFCURVE",
"801 475 OFFCURVE",
"782 420 CURVE SMOOTH",
"774 396 OFFCURVE",
"722 250 OFFCURVE",
"639 167 CURVE SMOOTH",
"617 145 OFFCURVE",
"651 129 OFFCURVE",
"675 151 CURVE",
"725 190 OFFCURVE",
"774 271 OFFCURVE",
"808 341 CURVE",
"849 292 OFFCURVE",
"895 232 OFFCURVE",
"928 164 CURVE",
"933 156 OFFCURVE",
"960 159 OFFCURVE",
"965 176 CURVE SMOOTH",
"972 204 OFFCURVE",
"961 243 OFFCURVE",
"942 258 CURVE",
"902 284 OFFCURVE",
"875 316 OFFCURVE",
"824 378 CURVE",
"840 419 LINE SMOOTH",
"852 452 OFFCURVE",
"860 468 OFFCURVE",
"872 499 CURVE SMOOTH"
);
},
{
closed = 1;
nodes = (
"577 217 LINE",
"549 212 OFFCURVE",
"483 212 OFFCURVE",
"448 212 CURVE",
"448 359 LINE",
"508 362 OFFCURVE",
"546 363 OFFCURVE",
"577 363 CURVE"
);
}
);
width = 1000;
}
);
note = cid00415;
unicode = 316B;
},
{
glyphname = "rieulPanSiosCompa-ko";
lastChange = "2019-11-29 11:50:58 +0000";
layers = (
{
layerId = "210D674B-AD98-4874-A618-1698A23DB8A1";
paths = (
{
closed = 1;
nodes = (
"500 136 OFFCURVE",
"750 139 OFFCURVE",
"795 135 CURVE",
"799 134 OFFCURVE",
"811 147 OFFCURVE",
"814 158 CURVE SMOOTH",
"814 159 OFFCURVE",
"812 162 OFFCURVE",
"809 167 CURVE SMOOTH",
"761 256 OFFCURVE",
"718 354 OFFCURVE",
"648 482 CURVE",
"662 505 LINE",
"665 513 OFFCURVE",
"658 521 OFFCURVE",
"650 529 CURVE SMOOTH",
"635 544 OFFCURVE",
"621 555 OFFCURVE",
"609 562 CURVE SMOOTH",
"597 569 OFFCURVE",
"582 571 OFFCURVE",
"573 556 CURVE SMOOTH",
"566 545 OFFCURVE",
"574 540 OFFCURVE",
"578 536 CURVE SMOOTH",
"597 519 OFFCURVE",
"590 491 OFFCURVE",
"566 442 CURVE SMOOTH",
"544 398 OFFCURVE",
"479 242 OFFCURVE",
"428 186 CURVE",
"419 178 OFFCURVE",
"403 172 OFFCURVE",
"410 163 CURVE SMOOTH",
"426 145 OFFCURVE",
"456 126 OFFCURVE",
"460 128 CURVE"
);
},
{
closed = 1;
nodes = (
"149 362 OFFCURVE",
"127 364 OFFCURVE",
"102 368 CURVE SMOOTH",
"91 369 OFFCURVE",
"82 351 OFFCURVE",
"87 344 CURVE SMOOTH",
"91 336 OFFCURVE",
"106 327 OFFCURVE",
"121 319 CURVE",
"122 318 OFFCURVE",
"122 318 OFFCURVE",
"123 318 CURVE",
"134 313 OFFCURVE",
"136 307 OFFCURVE",
"136 294 CURVE SMOOTH",
"136 218 LINE SMOOTH",
"136 173 OFFCURVE",
"156 131 OFFCURVE",
"185 134 CURVE SMOOTH",
"277 139 OFFCURVE",
"404 194 OFFCURVE",
"423 205 CURVE SMOOTH",
"448 221 OFFCURVE",
"451 248 OFFCURVE",
"418 237 CURVE",
"392 224 OFFCURVE",
"287 191 OFFCURVE",
"218 191 CURVE SMOOTH",
"198 191 OFFCURVE",
"196 216 OFFCURVE",
"196 237 CURVE SMOOTH",
"196 322 LINE",
"252 330 OFFCURVE",
"364 336 OFFCURVE",
"396 333 CURVE SMOOTH",
"399 333 OFFCURVE",
"415 348 OFFCURVE",
"415 359 CURVE SMOOTH",
"415 368 OFFCURVE",
"391 379 OFFCURVE",
"378 386 CURVE",
"397 459 OFFCURVE",
"412 499 OFFCURVE",
"415 506 CURVE SMOOTH",
"418 515 OFFCURVE",
"415 521 OFFCURVE",
"408 524 CURVE SMOOTH",
"388 531 OFFCURVE",
"377 534 OFFCURVE",
"361 539 CURVE SMOOTH",
"352 542 OFFCURVE",
"350 540 OFFCURVE",
"343 537 CURVE",
"302 526 OFFCURVE",
"239 523 OFFCURVE",
"193 523 CURVE SMOOTH",
"164 523 OFFCURVE",
"145 524 OFFCURVE",
"118 529 CURVE",
"109 532 OFFCURVE",
"97 513 OFFCURVE",
"104 506 CURVE SMOOTH",
"111 499 OFFCURVE",
"116 491 OFFCURVE",
"132 478 CURVE SMOOTH",
"144 466 OFFCURVE",
"151 464 OFFCURVE",
"179 472 CURVE SMOOTH",
"219 483 OFFCURVE",
"322 489 OFFCURVE",
"334 489 CURVE SMOOTH",
"338 489 OFFCURVE",
"344 487 OFFCURVE",
"344 476 CURVE SMOOTH",
"344 455 OFFCURVE",
"339 408 OFFCURVE",
"334 372 CURVE",
"298 364 OFFCURVE",
"229 361 OFFCURVE",
"180 361 CURVE SMOOTH"
);
},
{
closed = 1;
nodes = (
"534 251 OFFCURVE",
"594 384 OFFCURVE",
"623 437 CURVE",
"739 188 LINE",
"677 183 OFFCURVE",
"548 177 OFFCURVE",
"484 177 CURVE"
);
}
);
width = 900;
}
);
note = cid00416;
unicode = 316C;
},
{
glyphname = "rieulYeorinhieuhCompa-ko";
lastChange = "2019-11-29 11:50:58 +0000";
layers = (
{
layerId = "210D674B-AD98-4874-A618-1698A23DB8A1";
paths = (
{
closed = 1;
nodes = (
"515 422 OFFCURVE",
"469 350 OFFCURVE",
"469 287 CURVE SMOOTH",
"469 225 OFFCURVE",
"523 153 OFFCURVE",
"627 156 CURVE SMOOTH",
"728 156 OFFCURVE",
"785 228 OFFCURVE",
"785 294 CURVE SMOOTH",
"785 369 OFFCURVE",
"729 428 OFFCURVE",
"630 425 CURVE SMOOTH"
);
},
{
closed = 1;
nodes = (
"132 370 OFFCURVE",
"111 372 OFFCURVE",
"86 375 CURVE",
"75 378 OFFCURVE",
"66 359 OFFCURVE",
"70 352 CURVE SMOOTH",
"75 344 OFFCURVE",
"90 335 OFFCURVE",
"105 327 CURVE",
"106 326 OFFCURVE",
"108 325 OFFCURVE",
"109 325 CURVE",
"118 320 OFFCURVE",
"120 314 OFFCURVE",
"120 302 CURVE SMOOTH",
"120 223 LINE SMOOTH",
"120 179 OFFCURVE",
"140 139 OFFCURVE",
"169 140 CURVE SMOOTH",
"261 145 OFFCURVE",
"397 206 OFFCURVE",
"418 214 CURVE",
"444 230 OFFCURVE",
"443 257 OFFCURVE",
"413 246 CURVE SMOOTH",
"384 233 OFFCURVE",
"273 196 OFFCURVE",
"202 196 CURVE SMOOTH",
"181 196 OFFCURVE",
"180 222 OFFCURVE",
"180 242 CURVE SMOOTH",
"180 331 LINE",
"232 339 OFFCURVE",
"335 344 OFFCURVE",
"367 341 CURVE SMOOTH",
"372 341 OFFCURVE",
"386 355 OFFCURVE",
"386 366 CURVE SMOOTH",
"386 377 OFFCURVE",
"362 387 OFFCURVE",
"350 394 CURVE",
"367 466 OFFCURVE",
"383 504 OFFCURVE",
"386 512 CURVE SMOOTH",
"390 521 OFFCURVE",
"385 527 OFFCURVE",
"381 530 CURVE",
"332 545 LINE SMOOTH",
"323 548 OFFCURVE",
"321 543 OFFCURVE",
"314 542 CURVE",
"275 531 OFFCURVE",
"222 529 OFFCURVE",
"177 529 CURVE SMOOTH",
"148 529 OFFCURVE",
"127 530 OFFCURVE",
"102 534 CURVE",
"93 537 OFFCURVE",
"80 519 OFFCURVE",
"87 512 CURVE SMOOTH",
"95 504 OFFCURVE",
"99 496 OFFCURVE",
"115 484 CURVE SMOOTH",
"131 471 OFFCURVE",
"133 472 OFFCURVE",
"162 477 CURVE",
"204 488 OFFCURVE",
"291 494 OFFCURVE",
"307 494 CURVE SMOOTH",
"310 494 OFFCURVE",
"316 493 OFFCURVE",
"316 482 CURVE SMOOTH",
"316 462 OFFCURVE",
"311 416 OFFCURVE",
"307 379 CURVE",
"274 372 OFFCURVE",
"214 368 OFFCURVE",
"163 369 CURVE SMOOTH"
);
},
{
closed = 1;
nodes = (
"564 201 OFFCURVE",
"525 243 OFFCURVE",
"525 291 CURVE SMOOTH",
"525 343 OFFCURVE",
"555 385 OFFCURVE",
"630 388 CURVE SMOOTH",
"701 391 OFFCURVE",
"730 337 OFFCURVE",
"727 296 CURVE SMOOTH",
"723 243 OFFCURVE",
"690 205 OFFCURVE",
"627 204 CURVE SMOOTH"
);
},
{
closed = 1;
nodes = (
"420 525 OFFCURVE",
"411 509 OFFCURVE",
"414 500 CURVE SMOOTH",
"418 492 OFFCURVE",
"432 480 OFFCURVE",
"441 473 CURVE SMOOTH",
"449 466 OFFCURVE",
"457 456 OFFCURVE",
"480 463 CURVE SMOOTH",
"513 471 OFFCURVE",
"549 475 OFFCURVE",
"624 480 CURVE SMOOTH",
"741 485 OFFCURVE",
"757 483 OFFCURVE",
"814 480 CURVE SMOOTH",
"818 480 OFFCURVE",
"831 487 OFFCURVE",
"831 496 CURVE SMOOTH",
"831 508 OFFCURVE",
"825 519 OFFCURVE",
"818 530 CURVE SMOOTH",
"813 539 OFFCURVE",
"808 543 OFFCURVE",
"793 539 CURVE SMOOTH",
"752 526 OFFCURVE",
"720 520 OFFCURVE",
"627 515 CURVE SMOOTH",
"579 512 OFFCURVE",
"485 511 OFFCURVE",
"431 522 CURVE SMOOTH"
);
}
);
width = 900;
}
);
note = cid00417;
unicode = 316D;
},
{
glyphname = "mieumPieupCompa-ko";
lastChange = "2019-11-29 11:50:58 +0000";
layers = (
{
layerId = "210D674B-AD98-4874-A618-1698A23DB8A1";
paths = (
{
closed = 1;
nodes = (
"148 333 OFFCURVE",
"152 232 OFFCURVE",
"155 136 CURVE",
"158 117 OFFCURVE",
"162 104 OFFCURVE",
"177 108 CURVE SMOOTH",
"190 111 OFFCURVE",
"202 126 OFFCURVE",
"205 149 CURVE",
"258 152 OFFCURVE",
"391 155 OFFCURVE",
"429 150 CURVE SMOOTH",
"433 149 OFFCURVE",
"447 160 OFFCURVE",
"447 172 CURVE SMOOTH",
"447 181 OFFCURVE",
"425 193 OFFCURVE",
"416 200 CURVE",
"421 256 OFFCURVE",
"426 334 OFFCURVE",
"431 380 CURVE SMOOTH",
"438 436 OFFCURVE",
"441 466 OFFCURVE",
"445 483 CURVE SMOOTH",
"448 492 OFFCURVE",
"442 498 OFFCURVE",
"437 499 CURVE SMOOTH",
"416 504 OFFCURVE",
"398 505 OFFCURVE",
"381 512 CURVE",
"374 513 OFFCURVE",
"369 512 OFFCURVE",
"365 511 CURVE",
"329 496 OFFCURVE",
"261 487 OFFCURVE",
"177 490 CURVE",
"161 494 OFFCURVE",
"147 499 OFFCURVE",
"130 502 CURVE SMOOTH",
"118 505 OFFCURVE",
"108 501 OFFCURVE",
"101 484 CURVE SMOOTH",
"98 475 OFFCURVE",
"102 471 OFFCURVE",
"109 466 CURVE SMOOTH",
"137 447 OFFCURVE",
"142 424 OFFCURVE",
"145 373 CURVE SMOOTH"
);
},
{
closed = 1;
nodes = (
"793 420 LINE SMOOTH",
"793 455 OFFCURVE",
"794 491 OFFCURVE",
"798 518 CURVE SMOOTH",
"799 527 OFFCURVE",
"793 532 OFFCURVE",
"786 537 CURVE SMOOTH",
"775 545 OFFCURVE",
"748 560 OFFCURVE",
"731 567 CURVE",
"715 571 OFFCURVE",
"703 567 OFFCURVE",
"696 555 CURVE SMOOTH",
"691 546 OFFCURVE",
"693 539 OFFCURVE",
"700 534 CURVE SMOOTH",
"739 508 OFFCURVE",
"737 486 OFFCURVE",
"737 436 CURVE SMOOTH",
"737 406 LINE",
"692 401 OFFCURVE",
"603 400 OFFCURVE",
"565 400 CURVE",
"565 427 OFFCURVE",
"564 461 OFFCURVE",
"569 482 CURVE",
"569 485 OFFCURVE",
"569 491 OFFCURVE",
"556 500 CURVE SMOOTH",
"541 511 OFFCURVE",
"522 523 OFFCURVE",
"499 531 CURVE SMOOTH",
"486 536 OFFCURVE",
"476 533 OFFCURVE",
"467 520 CURVE SMOOTH",
"462 513 OFFCURVE",
"464 505 OFFCURVE",
"471 500 CURVE SMOOTH",
"511 471 OFFCURVE",
"507 434 OFFCURVE",
"507 383 CURVE SMOOTH",
"507 200 LINE SMOOTH",
"507 188 OFFCURVE",
"507 177 OFFCURVE",
"508 166 CURVE SMOOTH",
"508 131 OFFCURVE",
"518 124 OFFCURVE",
"534 127 CURVE SMOOTH",
"547 130 OFFCURVE",
"560 142 OFFCURVE",
"564 169 CURVE",
"632 172 OFFCURVE",
"709 169 OFFCURVE",
"736 169 CURVE",
"737 150 OFFCURVE",
"738 131 OFFCURVE",
"753 134 CURVE",
"785 137 OFFCURVE",
"792 170 OFFCURVE",
"793 210 CURVE SMOOTH"
);
},
{
closed = 1;
nodes = (
"201 453 LINE",
"254 456 OFFCURVE",
"306 458 OFFCURVE",
"365 462 CURVE SMOOTH",
"368 462 OFFCURVE",
"373 463 OFFCURVE",
"373 452 CURVE SMOOTH",
"373 391 OFFCURVE",
"369 329 OFFCURVE",
"369 196 CURVE",
"327 188 OFFCURVE",
"247 187 OFFCURVE",
"204 187 CURVE"
);
},
{
closed = 1;
nodes = (
"737 214 LINE",
"703 209 OFFCURVE",
"610 210 OFFCURVE",
"565 210 CURVE",
"565 359 LINE",
"634 362 OFFCURVE",
"702 363 OFFCURVE",
"737 363 CURVE"
);
}
);
width = 900;
}
);
note = cid00418;
unicode = 316E;
},
{
glyphname = "mieumSiosCompa-ko";
lastChange = "2019-11-29 11:50:58 +0000";
layers = (
{
layerId = "210D674B-AD98-4874-A618-1698A23DB8A1";
paths = (
{
closed = 1;
nodes = (
"120 333 OFFCURVE",
"124 232 OFFCURVE",
"127 136 CURVE",
"130 117 OFFCURVE",
"134 104 OFFCURVE",
"149 108 CURVE SMOOTH",
"162 111 OFFCURVE",
"174 126 OFFCURVE",
"177 149 CURVE",
"230 152 OFFCURVE",
"369 155 OFFCURVE",
"406 150 CURVE SMOOTH",
"411 149 OFFCURVE",
"424 160 OFFCURVE",
"424 172 CURVE SMOOTH",
"424 181 OFFCURVE",
"402 193 OFFCURVE",
"394 200 CURVE",
"399 256 OFFCURVE",
"404 334 OFFCURVE",
"409 380 CURVE SMOOTH",
"414 436 OFFCURVE",
"419 466 OFFCURVE",
"423 483 CURVE SMOOTH",
"426 492 OFFCURVE",
"421 498 OFFCURVE",
"414 499 CURVE SMOOTH",
"394 504 OFFCURVE",
"377 505 OFFCURVE",
"358 512 CURVE",
"350 513 OFFCURVE",
"349 514 OFFCURVE",
"342 511 CURVE SMOOTH",
"306 496 OFFCURVE",
"233 487 OFFCURVE",
"149 490 CURVE",
"133 494 OFFCURVE",
"119 499 OFFCURVE",
"102 502 CURVE SMOOTH",
"90 505 OFFCURVE",
"80 501 OFFCURVE",
"73 484 CURVE SMOOTH",
"70 475 OFFCURVE",
"74 471 OFFCURVE",
"81 466 CURVE SMOOTH",
"109 447 OFFCURVE",
"114 424 OFFCURVE",
"117 373 CURVE SMOOTH"
);
},
{
closed = 1;
nodes = (
"173 453 LINE",
"228 456 OFFCURVE",
"285 458 OFFCURVE",
"342 462 CURVE SMOOTH",
"346 462 OFFCURVE",
"350 463 OFFCURVE",
"350 452 CURVE SMOOTH",
"350 390 OFFCURVE",
"347 329 OFFCURVE",
"347 196 CURVE",
"303 188 OFFCURVE",
"221 187 OFFCURVE",
"176 187 CURVE"
);
},
{
closed = 1;
nodes = (
"701 512 OFFCURVE",
"686 522 OFFCURVE",
"675 530 CURVE SMOOTH",
"658 541 OFFCURVE",
"639 549 OFFCURVE",
"612 556 CURVE SMOOTH",
"599 559 OFFCURVE",
"584 562 OFFCURVE",
"573 539 CURVE SMOOTH",
"570 531 OFFCURVE",
"569 524 OFFCURVE",
"580 519 CURVE SMOOTH",
"615 500 OFFCURVE",
"617 485 OFFCURVE",
"598 424 CURVE SMOOTH",
"572 350 OFFCURVE",
"523 235 OFFCURVE",
"409 126 CURVE SMOOTH",
"387 107 OFFCURVE",
"420 92 OFFCURVE",
"444 111 CURVE SMOOTH",
"523 171 OFFCURVE",
"586 261 OFFCURVE",
"627 341 CURVE",
"681 282 OFFCURVE",
"746 200 OFFCURVE",
"788 131 CURVE SMOOTH",
"793 124 OFFCURVE",
"820 134 OFFCURVE",
"825 149 CURVE",
"832 181 OFFCURVE",
"818 220 OFFCURVE",
"799 235 CURVE",
"751 264 OFFCURVE",
"708 301 OFFCURVE",
"644 375 CURVE",
"651 390 OFFCURVE",
"657 404 OFFCURVE",
"662 417 CURVE SMOOTH",
"674 452 OFFCURVE",
"684 473 OFFCURVE",
"696 502 CURVE SMOOTH"
);
}
);
width = 900;
}
);
note = cid00419;
unicode = 316F;
},
{
glyphname = "mieumPansiosCompa-ko";
lastChange = "2019-11-29 11:50:58 +0000";
layers = (
{
layerId = "210D674B-AD98-4874-A618-1698A23DB8A1";
paths = (
{
closed = 1;
nodes = (
"117 333 OFFCURVE",
"121 232 OFFCURVE",
"124 136 CURVE",
"127 117 OFFCURVE",
"131 104 OFFCURVE",
"146 108 CURVE SMOOTH",
"159 111 OFFCURVE",
"171 126 OFFCURVE",
"174 149 CURVE",
"227 152 OFFCURVE",
"360 155 OFFCURVE",
"398 150 CURVE SMOOTH",
"402 149 OFFCURVE",
"416 160 OFFCURVE",
"416 172 CURVE SMOOTH",
"416 181 OFFCURVE",
"394 193 OFFCURVE",
"385 200 CURVE",
"390 256 OFFCURVE",
"395 334 OFFCURVE",
"400 380 CURVE SMOOTH",
"407 436 OFFCURVE",
"410 466 OFFCURVE",
"414 483 CURVE SMOOTH",
"417 492 OFFCURVE",
"411 498 OFFCURVE",
"406 499 CURVE SMOOTH",
"385 504 OFFCURVE",
"367 505 OFFCURVE",
"350 512 CURVE",
"343 513 OFFCURVE",
"338 512 OFFCURVE",
"334 511 CURVE",
"298 496 OFFCURVE",
"230 487 OFFCURVE",
"146 490 CURVE",
"130 494 OFFCURVE",
"116 499 OFFCURVE",
"99 502 CURVE SMOOTH",
"87 505 OFFCURVE",
"77 501 OFFCURVE",
"70 484 CURVE SMOOTH",
"67 475 OFFCURVE",
"71 471 OFFCURVE",
"78 466 CURVE SMOOTH",
"106 447 OFFCURVE",
"111 424 OFFCURVE",
"114 373 CURVE SMOOTH"
);
},
{
closed = 1;
nodes = (
"515 131 OFFCURVE",
"767 138 OFFCURVE",
"811 130 CURVE SMOOTH",
"815 129 OFFCURVE",
"830 145 OFFCURVE",
"831 156 CURVE SMOOTH",
"831 158 OFFCURVE",
"829 161 OFFCURVE",
"824 166 CURVE",
"776 253 OFFCURVE",
"737 350 OFFCURVE",
"668 477 CURVE",
"682 501 LINE",
"685 509 OFFCURVE",
"678 517 OFFCURVE",
"670 524 CURVE SMOOTH",
"655 539 OFFCURVE",
"641 551 OFFCURVE",
"628 558 CURVE SMOOTH",
"617 565 OFFCURVE",
"602 566 OFFCURVE",
"593 551 CURVE SMOOTH",
"586 540 OFFCURVE",
"594 536 OFFCURVE",
"598 531 CURVE",
"617 514 OFFCURVE",
"609 486 OFFCURVE",
"586 437 CURVE SMOOTH",
"568 401 OFFCURVE",
"485 230 OFFCURVE",
"445 182 CURVE",
"436 174 OFFCURVE",
"420 167 OFFCURVE",
"427 158 CURVE SMOOTH",
"442 141 OFFCURVE",
"473 120 OFFCURVE",
"476 123 CURVE"
);
},
{
closed = 1;
nodes = (
"170 453 LINE",
"223 456 OFFCURVE",
"275 458 OFFCURVE",
"334 462 CURVE SMOOTH",
"337 462 OFFCURVE",
"342 463 OFFCURVE",
"342 452 CURVE SMOOTH",
"342 391 OFFCURVE",
"338 329 OFFCURVE",
"338 196 CURVE",
"296 188 OFFCURVE",
"216 187 OFFCURVE",
"173 187 CURVE"
);
},
{
closed = 1;
nodes = (
"551 249 OFFCURVE",
"614 380 OFFCURVE",
"643 433 CURVE",
"677 362 OFFCURVE",
"725 252 OFFCURVE",
"755 184 CURVE",
"694 176 OFFCURVE",
"565 175 OFFCURVE",
"501 175 CURVE"
);
}
);
width = 900;
}
);
note = cid00420;
unicode = 3170;
},
{
glyphname = "kapyeounmieumCompa-ko";
lastChange = "2019-11-29 11:50:58 +0000";
layers = (
{
layerId = "210D674B-AD98-4874-A618-1698A23DB8A1";
paths = (
{
closed = 1;
nodes = (
"262 455 OFFCURVE",
"264 391 OFFCURVE",
"272 291 CURVE",
"276 272 OFFCURVE",
"281 260 OFFCURVE",
"297 263 CURVE SMOOTH",
"308 266 OFFCURVE",
"322 279 OFFCURVE",
"325 302 CURVE",
"391 306 OFFCURVE",
"625 310 OFFCURVE",
"665 306 CURVE SMOOTH",
"670 305 OFFCURVE",
"684 317 OFFCURVE",
"684 328 CURVE SMOOTH",
"684 337 OFFCURVE",
"661 353 OFFCURVE",
"653 360 CURVE",
"658 404 OFFCURVE",
"665 438 OFFCURVE",
"673 483 CURVE SMOOTH",
"684 539 OFFCURVE",
"697 579 OFFCURVE",
"702 594 CURVE SMOOTH",
"707 605 OFFCURVE",
"699 609 OFFCURVE",
"695 612 CURVE",
"637 628 LINE",
"630 631 OFFCURVE",
"626 632 OFFCURVE",
"622 628 CURVE",
"605 621 OFFCURVE",
"565 616 OFFCURVE",
"516 612 CURVE SMOOTH",
"451 607 OFFCURVE",
"351 605 OFFCURVE",
"296 605 CURVE",
"276 613 OFFCURVE",
"247 622 OFFCURVE",
"230 625 CURVE SMOOTH",
"215 628 OFFCURVE",
"204 626 OFFCURVE",
"197 607 CURVE SMOOTH",
"193 596 OFFCURVE",
"195 594 OFFCURVE",
"202 590 CURVE SMOOTH",
"241 567 OFFCURVE",
"249 550 OFFCURVE",
"257 498 CURVE SMOOTH"
);
},
{
closed = 1;
nodes = (
"359 194 OFFCURVE",
"313 124 OFFCURVE",
"313 59 CURVE SMOOTH",
"313 -1 OFFCURVE",
"367 -75 OFFCURVE",
"467 -72 CURVE SMOOTH",
"566 -72 OFFCURVE",
"622 0 OFFCURVE",
"622 66 CURVE SMOOTH",
"622 141 OFFCURVE",
"567 200 OFFCURVE",
"471 197 CURVE SMOOTH"
);
},
{
closed = 1;
nodes = (
"316 562 LINE",
"402 565 OFFCURVE",
"552 572 OFFCURVE",
"614 575 CURVE SMOOTH",
"617 575 OFFCURVE",
"622 573 OFFCURVE",
"622 562 CURVE SMOOTH",
"619 510 OFFCURVE",
"608 401 OFFCURVE",
"605 353 CURVE",
"541 345 OFFCURVE",
"381 345 OFFCURVE",
"324 345 CURVE"
);
},
{
closed = 1;
nodes = (
"406 -30 OFFCURVE",
"367 12 OFFCURVE",
"367 60 CURVE SMOOTH",
"367 112 OFFCURVE",
"398 154 OFFCURVE",
"471 157 CURVE SMOOTH",
"539 160 OFFCURVE",
"568 106 OFFCURVE",
"565 65 CURVE SMOOTH",
"561 12 OFFCURVE",
"528 -26 OFFCURVE",
"467 -27 CURVE SMOOTH"
);
}
);
width = 900;
}
);
note = cid00421;
unicode = 3171;
},
{
glyphname = "pieupKiyeokCompa-ko";
lastChange = "2019-11-29 11:50:58 +0000";
layers = (
{
layerId = "210D674B-AD98-4874-A618-1698A23DB8A1";
paths = (
{
closed = 1;
nodes = (
"454 406 LINE SMOOTH",
"454 441 OFFCURVE",
"455 473 OFFCURVE",
"459 500 CURVE SMOOTH",
"460 509 OFFCURVE",
"454 515 OFFCURVE",
"446 523 CURVE SMOOTH",
"435 532 OFFCURVE",
"408 547 OFFCURVE",
"391 552 CURVE SMOOTH",
"376 558 OFFCURVE",
"364 554 OFFCURVE",
"356 540 CURVE",
"353 532 OFFCURVE",
"354 525 OFFCURVE",
"360 520 CURVE",
"399 494 OFFCURVE",
"397 472 OFFCURVE",
"397 422 CURVE SMOOTH",
"397 396 LINE",
"347 391 OFFCURVE",
"232 391 OFFCURVE",
"198 391 CURVE",
"198 418 OFFCURVE",
"198 448 OFFCURVE",
"202 467 CURVE SMOOTH",
"203 471 OFFCURVE",
"202 475 OFFCURVE",
"189 486 CURVE SMOOTH",
"176 499 OFFCURVE",
"152 511 OFFCURVE",
"131 518 CURVE SMOOTH",
"118 522 OFFCURVE",
"107 517 OFFCURVE",
"98 504 CURVE",
"93 499 OFFCURVE",
"94 493 OFFCURVE",
"101 486 CURVE",
"141 458 OFFCURVE",
"141 420 OFFCURVE",
"141 369 CURVE SMOOTH",
"141 195 LINE SMOOTH",
"141 184 OFFCURVE",
"141 173 OFFCURVE",
"142 163 CURVE SMOOTH",
"142 128 OFFCURVE",
"151 120 OFFCURVE",
"167 123 CURVE SMOOTH",
"180 126 OFFCURVE",
"193 138 OFFCURVE",
"197 165 CURVE",
"272 168 OFFCURVE",
"369 170 OFFCURVE",
"396 170 CURVE",
"397 151 OFFCURVE",
"400 131 OFFCURVE",
"415 134 CURVE",
"446 137 OFFCURVE",
"453 170 OFFCURVE",
"454 210 CURVE SMOOTH"
);
},
{
closed = 1;
nodes = (
"807 530 OFFCURVE",
"801 536 OFFCURVE",
"794 537 CURVE SMOOTH",
"775 540 OFFCURVE",
"762 543 OFFCURVE",
"742 548 CURVE SMOOTH",
"734 551 OFFCURVE",
"731 549 OFFCURVE",
"724 546 CURVE SMOOTH",
"682 530 OFFCURVE",
"546 518 OFFCURVE",
"492 531 CURVE SMOOTH",
"481 534 OFFCURVE",
"469 520 OFFCURVE",
"473 511 CURVE SMOOTH",
"476 503 OFFCURVE",
"495 486 OFFCURVE",
"506 477 CURVE",
"518 470 OFFCURVE",
"527 468 OFFCURVE",
"542 472 CURVE SMOOTH",
"619 488 OFFCURVE",
"652 490 OFFCURVE",
"724 493 CURVE SMOOTH",
"729 493 OFFCURVE",
"731 492 OFFCURVE",
"731 481 CURVE SMOOTH",
"728 226 LINE SMOOTH",
"728 197 OFFCURVE",
"727 164 OFFCURVE",
"731 137 CURVE",
"734 130 OFFCURVE",
"736 119 OFFCURVE",
"749 123 CURVE SMOOTH",
"781 134 OFFCURVE",
"791 204 OFFCURVE",
"791 247 CURVE SMOOTH",
"798 434 LINE SMOOTH",
"798 456 OFFCURVE",
"801 508 OFFCURVE",
"804 521 CURVE SMOOTH"
);
},
{
closed = 1;
nodes = (
"397 214 LINE",
"360 209 OFFCURVE",
"247 205 OFFCURVE",
"198 208 CURVE",
"198 350 LINE",
"271 353 OFFCURVE",
"360 354 OFFCURVE",
"397 354 CURVE"
);
}
);
width = 900;
}
);
note = cid00422;
unicode = 3172;
},
{
glyphname = "pieupTikeutCompa-ko";
lastChange = "2019-11-29 11:50:58 +0000";
layers = (
{
layerId = "210D674B-AD98-4874-A618-1698A23DB8A1";
paths = (
{
closed = 1;
nodes = (
"421 406 LINE SMOOTH",
"421 441 OFFCURVE",
"422 473 OFFCURVE",
"426 500 CURVE SMOOTH",
"427 509 OFFCURVE",
"421 515 OFFCURVE",
"413 523 CURVE",
"401 532 OFFCURVE",
"375 547 OFFCURVE",
"358 552 CURVE SMOOTH",
"343 558 OFFCURVE",
"331 554 OFFCURVE",
"323 540 CURVE",
"320 532 OFFCURVE",
"321 525 OFFCURVE",
"326 520 CURVE",
"366 493 OFFCURVE",
"363 473 OFFCURVE",
"363 422 CURVE SMOOTH",
"363 396 LINE",
"315 391 OFFCURVE",
"208 391 OFFCURVE",
"176 391 CURVE",
"176 418 OFFCURVE",
"176 448 OFFCURVE",
"180 467 CURVE SMOOTH",
"181 471 OFFCURVE",
"180 475 OFFCURVE",
"167 486 CURVE SMOOTH",
"154 499 OFFCURVE",
"130 511 OFFCURVE",
"109 518 CURVE SMOOTH",
"96 522 OFFCURVE",
"85 517 OFFCURVE",
"76 504 CURVE",
"71 499 OFFCURVE",
"72 493 OFFCURVE",
"79 486 CURVE",
"119 458 OFFCURVE",
"119 420 OFFCURVE",
"119 369 CURVE SMOOTH",
"119 195 LINE SMOOTH",
"119 184 OFFCURVE",
"119 173 OFFCURVE",
"120 163 CURVE SMOOTH",
"120 128 OFFCURVE",
"129 120 OFFCURVE",
"145 123 CURVE SMOOTH",
"158 126 OFFCURVE",
"171 138 OFFCURVE",
"175 165 CURVE",
"247 168 OFFCURVE",
"336 170 OFFCURVE",
"363 170 CURVE",
"363 151 OFFCURVE",
"366 131 OFFCURVE",
"381 134 CURVE",
"412 137 OFFCURVE",
"418 170 OFFCURVE",
"421 210 CURVE"
);
},
{
closed = 1;
nodes = (
"515 225 LINE SMOOTH",
"515 176 OFFCURVE",
"530 148 OFFCURVE",
"563 149 CURVE SMOOTH",
"655 154 OFFCURVE",
"724 160 OFFCURVE",
"805 156 CURVE SMOOTH",
"810 156 OFFCURVE",
"828 170 OFFCURVE",
"827 181 CURVE",
"824 192 OFFCURVE",
"818 199 OFFCURVE",
"810 210 CURVE SMOOTH",
"801 221 OFFCURVE",
"793 222 OFFCURVE",
"774 215 CURVE SMOOTH",
"749 205 OFFCURVE",
"704 196 OFFCURVE",
"610 196 CURVE SMOOTH",
"581 196 OFFCURVE",
"576 202 OFFCURVE",
"576 231 CURVE SMOOTH",
"576 478 LINE",
"655 485 OFFCURVE",
"734 488 OFFCURVE",
"791 485 CURVE SMOOTH",
"798 485 OFFCURVE",
"810 499 OFFCURVE",
"810 508 CURVE SMOOTH",
"810 515 OFFCURVE",
"800 532 OFFCURVE",
"795 539 CURVE SMOOTH",
"787 548 OFFCURVE",
"780 552 OFFCURVE",
"761 545 CURVE SMOOTH",
"723 531 OFFCURVE",
"619 522 OFFCURVE",
"560 522 CURVE",
"541 530 OFFCURVE",
"517 533 OFFCURVE",
"501 537 CURVE SMOOTH",
"489 540 OFFCURVE",
"479 537 OFFCURVE",
"472 521 CURVE SMOOTH",
"469 512 OFFCURVE",
"472 506 OFFCURVE",
"479 503 CURVE SMOOTH",
"511 486 OFFCURVE",
"515 458 OFFCURVE",
"515 411 CURVE SMOOTH"
);
},
{
closed = 1;
nodes = (
"363 214 LINE",
"328 209 OFFCURVE",
"224 205 OFFCURVE",
"176 208 CURVE",
"176 350 LINE",
"246 353 OFFCURVE",
"326 354 OFFCURVE",
"363 354 CURVE"
);
}
);
width = 900;
}
);
note = cid00423;
unicode = 3173;
},
{
glyphname = "pieupSiosKiyeokCompa-ko";
lastChange = "2019-11-29 11:50:58 +0000";
layers = (
{
layerId = "210D674B-AD98-4874-A618-1698A23DB8A1";
paths = (
{
closed = 1;
nodes = (
"347 419 LINE SMOOTH",
"347 454 OFFCURVE",
"348 489 OFFCURVE",
"352 514 CURVE SMOOTH",
"353 523 OFFCURVE",
"347 529 OFFCURVE",
"340 533 CURVE SMOOTH",
"329 540 OFFCURVE",
"303 557 OFFCURVE",
"286 562 CURVE SMOOTH",
"271 567 OFFCURVE",
"260 563 OFFCURVE",
"253 550 CURVE SMOOTH",
"248 542 OFFCURVE",
"249 536 OFFCURVE",
"256 531 CURVE SMOOTH",
"294 504 OFFCURVE",
"292 484 OFFCURVE",
"292 434 CURVE SMOOTH",
"292 405 LINE",
"253 400 OFFCURVE",
"185 399 OFFCURVE",
"152 399 CURVE",
"152 426 OFFCURVE",
"151 459 OFFCURVE",
"155 480 CURVE",
"155 483 OFFCURVE",
"155 487 OFFCURVE",
"143 496 CURVE SMOOTH",
"128 508 OFFCURVE",
"108 520 OFFCURVE",
"87 528 CURVE SMOOTH",
"75 532 OFFCURVE",
"65 530 OFFCURVE",
"56 517 CURVE SMOOTH",
"51 510 OFFCURVE",
"53 503 OFFCURVE",
"60 496 CURVE",
"99 470 OFFCURVE",
"95 430 OFFCURVE",
"95 382 CURVE SMOOTH",
"95 203 LINE SMOOTH",
"95 191 OFFCURVE",
"95 180 OFFCURVE",
"96 169 CURVE SMOOTH",
"96 136 OFFCURVE",
"106 128 OFFCURVE",
"122 131 CURVE SMOOTH",
"133 134 OFFCURVE",
"147 146 OFFCURVE",
"151 173 CURVE",
"215 174 OFFCURVE",
"269 174 OFFCURVE",
"292 173 CURVE",
"292 154 OFFCURVE",
"294 135 OFFCURVE",
"309 138 CURVE",
"340 141 OFFCURVE",
"346 173 OFFCURVE",
"347 212 CURVE SMOOTH"
);
},
{
closed = 1;
nodes = (
"599 510 OFFCURVE",
"586 521 OFFCURVE",
"575 528 CURVE SMOOTH",
"564 536 OFFCURVE",
"555 545 OFFCURVE",
"536 554 CURVE",
"521 559 OFFCURVE",
"508 566 OFFCURVE",
"493 545 CURVE",
"489 537 OFFCURVE",
"487 530 OFFCURVE",
"498 523 CURVE SMOOTH",
"525 504 OFFCURVE",
"524 475 OFFCURVE",
"505 420 CURVE SMOOTH",
"497 396 OFFCURVE",
"437 249 OFFCURVE",
"355 167 CURVE SMOOTH",
"334 146 OFFCURVE",
"365 129 OFFCURVE",
"390 151 CURVE SMOOTH",
"441 191 OFFCURVE",
"492 270 OFFCURVE",
"530 343 CURVE",
"573 292 OFFCURVE",
"626 230 OFFCURVE",
"661 163 CURVE",
"668 155 OFFCURVE",
"693 159 OFFCURVE",
"698 176 CURVE SMOOTH",
"705 205 OFFCURVE",
"691 243 OFFCURVE",
"672 258 CURVE",
"631 283 OFFCURVE",
"599 315 OFFCURVE",
"547 378 CURVE",
"563 419 LINE SMOOTH",
"575 452 OFFCURVE",
"583 468 OFFCURVE",
"595 499 CURVE SMOOTH"
);
},
{
closed = 1;
nodes = (
"928 523 OFFCURVE",
"922 529 OFFCURVE",
"915 530 CURVE SMOOTH",
"896 533 OFFCURVE",
"882 537 OFFCURVE",
"863 541 CURVE",
"855 544 OFFCURVE",
"852 542 OFFCURVE",
"845 539 CURVE SMOOTH",
"817 529 OFFCURVE",
"709 516 OFFCURVE",
"669 527 CURVE SMOOTH",
"658 530 OFFCURVE",
"648 515 OFFCURVE",
"651 506 CURVE",
"655 499 OFFCURVE",
"669 484 OFFCURVE",
"681 475 CURVE SMOOTH",
"691 468 OFFCURVE",
"702 466 OFFCURVE",
"715 470 CURVE",
"747 475 OFFCURVE",
"787 482 OFFCURVE",
"847 486 CURVE SMOOTH",
"855 486 OFFCURVE",
"855 485 OFFCURVE",
"855 474 CURVE SMOOTH",
"855 253 LINE SMOOTH",
"855 224 OFFCURVE",
"854 178 OFFCURVE",
"859 153 CURVE SMOOTH",
"860 146 OFFCURVE",
"862 135 OFFCURVE",
"877 139 CURVE",
"906 150 OFFCURVE",
"913 218 OFFCURVE",
"913 263 CURVE SMOOTH",
"916 427 LINE SMOOTH",
"916 449 OFFCURVE",
"922 501 OFFCURVE",
"925 514 CURVE SMOOTH"
);
},
{
closed = 1;
nodes = (
"292 217 LINE",
"263 212 OFFCURVE",
"192 212 OFFCURVE",
"152 212 CURVE",
"152 359 LINE",
"215 362 OFFCURVE",
"261 363 OFFCURVE",
"292 363 CURVE"
);
}
);
width = 1000;
}
);
note = cid00424;
unicode = 3174;
},
{
glyphname = "pieupSiosTikeutCompa-ko";
lastChange = "2019-11-29 11:50:58 +0000";
layers = (
{
layerId = "210D674B-AD98-4874-A618-1698A23DB8A1";
paths = (
{
closed = 1;
nodes = (
"333 419 LINE SMOOTH",
"333 454 OFFCURVE",
"334 489 OFFCURVE",
"338 514 CURVE SMOOTH",
"339 523 OFFCURVE",
"333 529 OFFCURVE",
"326 533 CURVE SMOOTH",
"315 540 OFFCURVE",
"289 557 OFFCURVE",
"272 562 CURVE SMOOTH",
"257 567 OFFCURVE",
"245 563 OFFCURVE",
"238 550 CURVE SMOOTH",
"234 541 OFFCURVE",
"235 535 OFFCURVE",
"242 531 CURVE SMOOTH",
"280 504 OFFCURVE",
"278 484 OFFCURVE",
"278 434 CURVE SMOOTH",
"278 405 LINE",
"239 400 OFFCURVE",
"171 399 OFFCURVE",
"138 399 CURVE",
"138 426 OFFCURVE",
"137 459 OFFCURVE",
"141 480 CURVE",
"141 483 OFFCURVE",
"141 487 OFFCURVE",
"129 496 CURVE SMOOTH",
"114 508 OFFCURVE",
"94 520 OFFCURVE",
"73 528 CURVE SMOOTH",
"60 532 OFFCURVE",
"50 530 OFFCURVE",
"41 517 CURVE SMOOTH",
"36 510 OFFCURVE",
"38 503 OFFCURVE",
"46 496 CURVE",
"85 470 OFFCURVE",
"81 430 OFFCURVE",
"81 382 CURVE SMOOTH",
"81 203 LINE SMOOTH",
"81 191 OFFCURVE",
"81 180 OFFCURVE",
"82 169 CURVE SMOOTH",
"82 136 OFFCURVE",
"92 128 OFFCURVE",
"107 131 CURVE SMOOTH",
"119 134 OFFCURVE",
"133 146 OFFCURVE",
"137 173 CURVE",
"201 174 OFFCURVE",
"254 174 OFFCURVE",
"277 173 CURVE",
"277 154 OFFCURVE",
"279 135 OFFCURVE",
"294 138 CURVE",
"325 141 OFFCURVE",
"330 173 OFFCURVE",
"333 212 CURVE"
);
},
{
closed = 1;
nodes = (
"693 225 LINE SMOOTH",
"693 176 OFFCURVE",
"709 148 OFFCURVE",
"740 149 CURVE SMOOTH",
"828 154 OFFCURVE",
"862 157 OFFCURVE",
"940 154 CURVE SMOOTH",
"945 154 OFFCURVE",
"962 167 OFFCURVE",
"961 178 CURVE",
"958 189 OFFCURVE",
"952 194 OFFCURVE",
"945 205 CURVE SMOOTH",
"936 216 OFFCURVE",
"927 218 OFFCURVE",
"910 211 CURVE SMOOTH",
"893 204 OFFCURVE",
"849 199 OFFCURVE",
"785 196 CURVE SMOOTH",
"757 195 OFFCURVE",
"753 202 OFFCURVE",
"753 231 CURVE SMOOTH",
"753 478 LINE",
"824 483 OFFCURVE",
"870 487 OFFCURVE",
"926 484 CURVE SMOOTH",
"933 484 OFFCURVE",
"945 498 OFFCURVE",
"945 506 CURVE SMOOTH",
"945 514 OFFCURVE",
"935 530 OFFCURVE",
"930 537 CURVE SMOOTH",
"923 546 OFFCURVE",
"916 549 OFFCURVE",
"897 542 CURVE SMOOTH",
"861 529 OFFCURVE",
"787 522 OFFCURVE",
"735 522 CURVE",
"719 527 OFFCURVE",
"701 529 OFFCURVE",
"686 532 CURVE SMOOTH",
"674 535 OFFCURVE",
"665 532 OFFCURVE",
"658 517 CURVE",
"655 506 OFFCURVE",
"658 502 OFFCURVE",
"665 499 CURVE",
"694 482 OFFCURVE",
"693 456 OFFCURVE",
"693 411 CURVE SMOOTH"
);
},
{
closed = 1;
nodes = (
"578 507 OFFCURVE",
"565 519 OFFCURVE",
"554 526 CURVE SMOOTH",
"543 533 OFFCURVE",
"534 542 OFFCURVE",
"515 551 CURVE SMOOTH",
"501 557 OFFCURVE",
"487 564 OFFCURVE",
"473 542 CURVE SMOOTH",
"468 534 OFFCURVE",
"466 528 OFFCURVE",
"477 521 CURVE SMOOTH",
"504 502 OFFCURVE",
"503 473 OFFCURVE",
"484 418 CURVE SMOOTH",
"476 393 OFFCURVE",
"423 250 OFFCURVE",
"340 167 CURVE SMOOTH",
"319 146 OFFCURVE",
"350 130 OFFCURVE",
"376 151 CURVE SMOOTH",
"427 191 OFFCURVE",
"476 269 OFFCURVE",
"510 340 CURVE",
"553 289 OFFCURVE",
"600 230 OFFCURVE",
"636 163 CURVE",
"643 155 OFFCURVE",
"666 159 OFFCURVE",
"673 176 CURVE",
"680 205 OFFCURVE",
"665 243 OFFCURVE",
"646 258 CURVE SMOOTH",
"606 285 OFFCURVE",
"577 314 OFFCURVE",
"526 376 CURVE",
"542 417 LINE SMOOTH",
"554 449 OFFCURVE",
"562 465 OFFCURVE",
"574 496 CURVE SMOOTH"
);
},
{
closed = 1;
nodes = (
"278 217 LINE",
"248 212 OFFCURVE",
"178 212 OFFCURVE",
"138 212 CURVE",
"138 359 LINE",
"201 362 OFFCURVE",
"247 363 OFFCURVE",
"278 363 CURVE"
);
}
);
width = 1000;
}
);
note = cid00425;
unicode = 3175;
},
{
glyphname = "pieupCieucCompa-ko";
lastChange = "2019-11-29 11:50:58 +0000";
layers = (
{
layerId = "210D674B-AD98-4874-A618-1698A23DB8A1";
paths = (
{
closed = 1;
nodes = (
"415 406 LINE SMOOTH",
"415 441 OFFCURVE",
"416 473 OFFCURVE",
"420 500 CURVE SMOOTH",
"421 509 OFFCURVE",
"415 515 OFFCURVE",
"407 523 CURVE SMOOTH",
"396 532 OFFCURVE",
"369 547 OFFCURVE",
"352 552 CURVE SMOOTH",
"337 558 OFFCURVE",
"325 554 OFFCURVE",
"317 540 CURVE",
"314 532 OFFCURVE",
"315 525 OFFCURVE",
"321 520 CURVE",
"360 494 OFFCURVE",
"358 472 OFFCURVE",
"358 422 CURVE SMOOTH",
"358 396 LINE",
"308 391 OFFCURVE",
"193 391 OFFCURVE",
"159 391 CURVE",
"159 418 OFFCURVE",
"159 448 OFFCURVE",
"163 467 CURVE SMOOTH",
"164 471 OFFCURVE",
"163 475 OFFCURVE",
"150 486 CURVE SMOOTH",
"137 499 OFFCURVE",
"113 511 OFFCURVE",
"92 518 CURVE SMOOTH",
"79 522 OFFCURVE",
"68 517 OFFCURVE",
"59 504 CURVE",
"54 499 OFFCURVE",
"55 493 OFFCURVE",
"62 486 CURVE",
"102 458 OFFCURVE",
"102 420 OFFCURVE",
"102 369 CURVE SMOOTH",
"102 200 LINE SMOOTH",
"102 189 OFFCURVE",
"102 178 OFFCURVE",
"103 169 CURVE",
"103 134 OFFCURVE",
"112 127 OFFCURVE",
"128 130 CURVE SMOOTH",
"141 133 OFFCURVE",
"154 145 OFFCURVE",
"158 172 CURVE",
"236 175 OFFCURVE",
"335 177 OFFCURVE",
"357 177 CURVE",
"358 158 OFFCURVE",
"361 137 OFFCURVE",
"376 140 CURVE SMOOTH",
"407 144 OFFCURVE",
"414 177 OFFCURVE",
"415 216 CURVE SMOOTH"
);
},
{
closed = 1;
nodes = (
"452 533 OFFCURVE",
"444 520 OFFCURVE",
"447 511 CURVE",
"447 509 OFFCURVE",
"472 485 OFFCURVE",
"479 478 CURVE",
"490 470 OFFCURVE",
"496 464 OFFCURVE",
"524 471 CURVE SMOOTH",
"547 478 OFFCURVE",
"577 483 OFFCURVE",
"602 487 CURVE",
"629 480 OFFCURVE",
"629 469 OFFCURVE",
"629 454 CURVE SMOOTH",
"626 416 OFFCURVE",
"580 266 OFFCURVE",
"426 149 CURVE SMOOTH",
"397 128 OFFCURVE",
"430 112 OFFCURVE",
"458 127 CURVE SMOOTH",
"547 178 OFFCURVE",
"608 254 OFFCURVE",
"647 319 CURVE",
"699 274 OFFCURVE",
"760 209 OFFCURVE",
"803 149 CURVE",
"811 141 OFFCURVE",
"839 155 OFFCURVE",
"844 170 CURVE",
"848 201 OFFCURVE",
"832 239 OFFCURVE",
"812 252 CURVE",
"777 268 OFFCURVE",
"725 302 OFFCURVE",
"664 351 CURVE",
"687 396 OFFCURVE",
"697 433 OFFCURVE",
"700 449 CURVE SMOOTH",
"703 464 OFFCURVE",
"682 480 OFFCURVE",
"659 491 CURVE",
"763 499 OFFCURVE",
"750 498 OFFCURVE",
"811 495 CURVE SMOOTH",
"816 495 OFFCURVE",
"828 504 OFFCURVE",
"828 513 CURVE SMOOTH",
"828 524 OFFCURVE",
"821 538 OFFCURVE",
"816 549 CURVE",
"809 560 OFFCURVE",
"803 562 OFFCURVE",
"787 559 CURVE SMOOTH",
"727 545 OFFCURVE",
"715 538 OFFCURVE",
"631 530 CURVE SMOOTH",
"567 525 OFFCURVE",
"530 524 OFFCURVE",
"463 532 CURVE SMOOTH"
);
},
{
closed = 1;
nodes = (
"358 221 LINE",
"320 216 OFFCURVE",
"208 214 OFFCURVE",
"159 214 CURVE",
"159 350 LINE",
"232 353 OFFCURVE",
"321 354 OFFCURVE",
"358 354 CURVE"
);
}
);
width = 900;
}
);
note = cid00426;
unicode = 3176;
},
{
glyphname = "pieupThieuthCompa-ko";
lastChange = "2019-11-29 11:50:58 +0000";
layers = (
{
layerId = "210D674B-AD98-4874-A618-1698A23DB8A1";
paths = (
{
closed = 1;
nodes = (
"415 406 LINE SMOOTH",
"415 441 OFFCURVE",
"416 473 OFFCURVE",
"420 500 CURVE SMOOTH",
"421 509 OFFCURVE",
"415 515 OFFCURVE",
"407 523 CURVE",
"395 532 OFFCURVE",
"369 547 OFFCURVE",
"352 552 CURVE SMOOTH",
"337 558 OFFCURVE",
"325 554 OFFCURVE",
"317 540 CURVE",
"314 532 OFFCURVE",
"315 525 OFFCURVE",
"320 520 CURVE",
"360 493 OFFCURVE",
"357 473 OFFCURVE",
"357 422 CURVE SMOOTH",
"357 396 LINE",
"309 391 OFFCURVE",
"202 391 OFFCURVE",
"170 391 CURVE",
"170 418 OFFCURVE",
"170 448 OFFCURVE",
"174 467 CURVE SMOOTH",
"175 471 OFFCURVE",
"174 475 OFFCURVE",
"161 486 CURVE SMOOTH",
"148 499 OFFCURVE",
"124 511 OFFCURVE",
"103 518 CURVE SMOOTH",
"90 522 OFFCURVE",
"79 517 OFFCURVE",
"70 504 CURVE",
"65 499 OFFCURVE",
"66 493 OFFCURVE",
"73 486 CURVE",
"113 458 OFFCURVE",
"113 420 OFFCURVE",
"113 369 CURVE SMOOTH",
"113 200 LINE SMOOTH",
"113 189 OFFCURVE",
"113 178 OFFCURVE",
"114 169 CURVE",
"114 134 OFFCURVE",
"123 127 OFFCURVE",
"139 130 CURVE SMOOTH",
"152 133 OFFCURVE",
"165 145 OFFCURVE",
"169 172 CURVE",
"244 175 OFFCURVE",
"335 177 OFFCURVE",
"357 177 CURVE",
"357 158 OFFCURVE",
"360 137 OFFCURVE",
"375 140 CURVE SMOOTH",
"406 144 OFFCURVE",
"412 177 OFFCURVE",
"415 216 CURVE"
);
},
{
closed = 1;
nodes = (
"507 225 LINE SMOOTH",
"507 176 OFFCURVE",
"524 148 OFFCURVE",
"556 149 CURVE SMOOTH",
"648 152 OFFCURVE",
"733 160 OFFCURVE",
"813 157 CURVE SMOOTH",
"818 157 OFFCURVE",
"836 170 OFFCURVE",
"832 181 CURVE SMOOTH",
"829 192 OFFCURVE",
"823 202 OFFCURVE",
"815 211 CURVE SMOOTH",
"807 222 OFFCURVE",
"799 223 OFFCURVE",
"780 216 CURVE SMOOTH",
"753 205 OFFCURVE",
"694 195 OFFCURVE",
"598 194 CURVE SMOOTH",
"569 194 OFFCURVE",
"565 200 OFFCURVE",
"565 229 CURVE SMOOTH",
"565 330 LINE",
"604 333 OFFCURVE",
"620 333 OFFCURVE",
"636 333 CURVE SMOOTH",
"702 333 OFFCURVE",
"717 335 OFFCURVE",
"766 332 CURVE SMOOTH",
"771 332 OFFCURVE",
"782 342 OFFCURVE",
"782 353 CURVE SMOOTH",
"782 362 OFFCURVE",
"770 377 OFFCURVE",
"766 380 CURVE SMOOTH",
"762 384 OFFCURVE",
"757 386 OFFCURVE",
"742 382 CURVE SMOOTH",
"711 375 OFFCURVE",
"683 371 OFFCURVE",
"628 370 CURVE SMOOTH",
"596 369 OFFCURVE",
"584 369 OFFCURVE",
"565 369 CURVE",
"565 488 LINE",
"644 495 OFFCURVE",
"716 498 OFFCURVE",
"776 495 CURVE SMOOTH",
"781 495 OFFCURVE",
"794 506 OFFCURVE",
"794 515 CURVE SMOOTH",
"794 524 OFFCURVE",
"784 537 OFFCURVE",
"779 542 CURVE",
"771 553 OFFCURVE",
"764 556 OFFCURVE",
"745 549 CURVE SMOOTH",
"706 533 OFFCURVE",
"603 529 OFFCURVE",
"546 529 CURVE",
"527 536 OFFCURVE",
"509 539 OFFCURVE",
"494 542 CURVE SMOOTH",
"481 545 OFFCURVE",
"472 540 OFFCURVE",
"465 526 CURVE",
"462 515 OFFCURVE",
"465 512 OFFCURVE",
"472 509 CURVE",
"504 490 OFFCURVE",
"506 464 OFFCURVE",
"507 416 CURVE SMOOTH"
);
},
{
closed = 1;
nodes = (
"357 221 LINE",
"321 215 OFFCURVE",
"218 214 OFFCURVE",
"170 214 CURVE",
"170 350 LINE",
"240 353 OFFCURVE",
"320 354 OFFCURVE",
"357 354 CURVE"
);
}
);
width = 900;
}
);
note = cid00427;
unicode = 3177;
},
{
glyphname = "kapyeounpieupCompa-ko";
lastChange = "2019-11-29 11:50:58 +0000";
layers = (
{
layerId = "210D674B-AD98-4874-A618-1698A23DB8A1";
paths = (
{
closed = 1;
nodes = (
"674 525 LINE SMOOTH",
"674 560 OFFCURVE",
"677 589 OFFCURVE",
"681 617 CURVE SMOOTH",
"683 626 OFFCURVE",
"678 634 OFFCURVE",
"667 641 CURVE SMOOTH",
"648 653 OFFCURVE",
"629 664 OFFCURVE",
"602 672 CURVE",
"586 675 OFFCURVE",
"578 673 OFFCURVE",
"569 660 CURVE SMOOTH",
"564 651 OFFCURVE",
"566 644 OFFCURVE",
"573 640 CURVE SMOOTH",
"617 610 OFFCURVE",
"613 576 OFFCURVE",
"613 520 CURVE SMOOTH",
"613 508 LINE",
"562 503 OFFCURVE",
"388 502 OFFCURVE",
"329 502 CURVE",
"329 530 OFFCURVE",
"328 558 OFFCURVE",
"331 577 CURVE SMOOTH",
"332 584 OFFCURVE",
"328 592 OFFCURVE",
"317 599 CURVE",
"300 615 OFFCURVE",
"275 627 OFFCURVE",
"254 634 CURVE",
"240 637 OFFCURVE",
"229 633 OFFCURVE",
"221 620 CURVE SMOOTH",
"216 612 OFFCURVE",
"218 606 OFFCURVE",
"225 601 CURVE SMOOTH",
"265 574 OFFCURVE",
"268 533 OFFCURVE",
"268 488 CURVE SMOOTH",
"271 365 OFFCURVE",
"273 269 OFFCURVE",
"272 268 CURVE",
"275 233 OFFCURVE",
"279 225 OFFCURVE",
"295 228 CURVE SMOOTH",
"308 231 OFFCURVE",
"321 244 OFFCURVE",
"326 271 CURVE",
"417 274 OFFCURVE",
"580 273 OFFCURVE",
"612 273 CURVE",
"613 253 OFFCURVE",
"616 234 OFFCURVE",
"631 237 CURVE SMOOTH",
"664 241 OFFCURVE",
"671 278 OFFCURVE",
"671 319 CURVE SMOOTH"
);
},
{
closed = 1;
nodes = (
"366 161 OFFCURVE",
"320 89 OFFCURVE",
"320 26 CURVE SMOOTH",
"320 -36 OFFCURVE",
"374 -108 OFFCURVE",
"474 -105 CURVE SMOOTH",
"573 -105 OFFCURVE",
"629 -33 OFFCURVE",
"629 32 CURVE SMOOTH",
"629 109 OFFCURVE",
"574 165 OFFCURVE",
"478 164 CURVE SMOOTH"
);
},
{
closed = 1;
nodes = (
"612 318 LINE",
"572 310 OFFCURVE",
"393 309 OFFCURVE",
"328 312 CURVE",
"329 460 LINE",
"418 463 OFFCURVE",
"576 463 OFFCURVE",
"612 463 CURVE"
);
},
{
closed = 1;
nodes = (
"413 -65 OFFCURVE",
"375 -20 OFFCURVE",
"375 27 CURVE SMOOTH",
"375 78 OFFCURVE",
"405 120 OFFCURVE",
"478 123 CURVE SMOOTH",
"546 126 OFFCURVE",
"575 73 OFFCURVE",
"572 31 CURVE SMOOTH",
"568 -21 OFFCURVE",
"535 -59 OFFCURVE",
"474 -60 CURVE"
);
}
);
width = 900;
}
);
note = cid00428;
unicode = 3178;
},
{
glyphname = "kapyeounssangpieupCompa-ko";
lastChange = "2019-11-29 11:50:58 +0000";
layers = (
{
layerId = "210D674B-AD98-4874-A618-1698A23DB8A1";
paths = (
{
closed = 1;
nodes = (
"517 262 LINE SMOOTH",
"517 231 OFFCURVE",
"524 223 OFFCURVE",
"536 224 CURVE SMOOTH",
"548 225 OFFCURVE",
"565 238 OFFCURVE",
"569 265 CURVE",
"601 268 OFFCURVE",
"661 268 OFFCURVE",
"710 265 CURVE",
"713 246 OFFCURVE",
"717 232 OFFCURVE",
"729 233 CURVE SMOOTH",
"761 236 OFFCURVE",
"768 280 OFFCURVE",
"768 325 CURVE SMOOTH",
"768 539 LINE SMOOTH",
"768 574 OFFCURVE",
"769 594 OFFCURVE",
"772 623 CURVE SMOOTH",
"772 631 OFFCURVE",
"770 637 OFFCURVE",
"759 648 CURVE SMOOTH",
"748 657 OFFCURVE",
"721 672 OFFCURVE",
"698 679 CURVE SMOOTH",
"687 683 OFFCURVE",
"674 680 OFFCURVE",
"666 665 CURVE SMOOTH",
"662 659 OFFCURVE",
"663 653 OFFCURVE",
"670 647 CURVE",
"710 623 OFFCURVE",
"709 598 OFFCURVE",
"709 541 CURVE SMOOTH",
"709 502 LINE",
"666 497 OFFCURVE",
"596 496 OFFCURVE",
"571 499 CURVE",
"572 540 OFFCURVE",
"573 575 OFFCURVE",
"576 596 CURVE",
"579 605 OFFCURVE",
"569 613 OFFCURVE",
"562 620 CURVE SMOOTH",
"550 632 OFFCURVE",
"534 645 OFFCURVE",
"515 652 CURVE SMOOTH",
"502 656 OFFCURVE",
"489 656 OFFCURVE",
"480 641 CURVE SMOOTH",
"473 628 OFFCURVE",
"479 623 OFFCURVE",
"486 618 CURVE SMOOTH",
"519 593 OFFCURVE",
"517 549 OFFCURVE",
"517 502 CURVE SMOOTH"
);
},
{
closed = 1;
nodes = (
"184 250 LINE",
"187 227 OFFCURVE",
"190 213 OFFCURVE",
"205 214 CURVE SMOOTH",
"217 215 OFFCURVE",
"231 230 OFFCURVE",
"235 255 CURVE",
"270 258 OFFCURVE",
"324 259 OFFCURVE",
"369 258 CURVE",
"372 241 OFFCURVE",
"376 226 OFFCURVE",
"389 227 CURVE SMOOTH",
"420 231 OFFCURVE",
"423 273 OFFCURVE",
"423 318 CURVE SMOOTH",
"423 504 LINE SMOOTH",
"423 541 OFFCURVE",
"423 559 OFFCURVE",
"427 590 CURVE SMOOTH",
"429 599 OFFCURVE",
"425 607 OFFCURVE",
"416 615 CURVE SMOOTH",
"400 628 OFFCURVE",
"382 638 OFFCURVE",
"361 647 CURVE SMOOTH",
"348 652 OFFCURVE",
"337 648 OFFCURVE",
"328 633 CURVE SMOOTH",
"324 625 OFFCURVE",
"325 619 OFFCURVE",
"331 614 CURVE SMOOTH",
"368 585 OFFCURVE",
"368 562 OFFCURVE",
"368 504 CURVE SMOOTH",
"368 490 LINE",
"328 485 OFFCURVE",
"265 485 OFFCURVE",
"232 485 CURVE",
"232 516 OFFCURVE",
"233 540 OFFCURVE",
"236 559 CURVE SMOOTH",
"237 568 OFFCURVE",
"229 577 OFFCURVE",
"222 585 CURVE",
"199 604 OFFCURVE",
"183 612 OFFCURVE",
"164 619 CURVE SMOOTH",
"149 624 OFFCURVE",
"138 619 OFFCURVE",
"131 604 CURVE SMOOTH",
"126 593 OFFCURVE",
"130 588 OFFCURVE",
"137 585 CURVE",
"179 553 OFFCURVE",
"176 512 OFFCURVE",
"179 467 CURVE SMOOTH"
);
},
{
closed = 1;
nodes = (
"366 146 OFFCURVE",
"320 76 OFFCURVE",
"320 11 CURVE SMOOTH",
"320 -49 OFFCURVE",
"374 -123 OFFCURVE",
"474 -120 CURVE SMOOTH",
"573 -120 OFFCURVE",
"629 -48 OFFCURVE",
"629 18 CURVE SMOOTH",
"629 93 OFFCURVE",
"574 152 OFFCURVE",
"478 149 CURVE SMOOTH"
);
},
{
closed = 1;
nodes = (
"413 -78 OFFCURVE",
"375 -36 OFFCURVE",
"375 12 CURVE SMOOTH",
"375 63 OFFCURVE",
"405 106 OFFCURVE",
"478 109 CURVE SMOOTH",
"546 112 OFFCURVE",
"575 58 OFFCURVE",
"572 17 CURVE SMOOTH",
"569 -36 OFFCURVE",
"535 -74 OFFCURVE",
"474 -75 CURVE SMOOTH"
);
},
{
closed = 1;
nodes = (
"709 311 LINE",
"674 306 OFFCURVE",
"602 307 OFFCURVE",
"570 307 CURVE",
"570 354 OFFCURVE",
"569 404 OFFCURVE",
"570 455 CURVE",
"609 458 OFFCURVE",
"672 456 OFFCURVE",
"709 456 CURVE"
);
},
{
closed = 1;
nodes = (
"368 304 LINE",
"339 301 OFFCURVE",
"274 298 OFFCURVE",
"236 298 CURVE",
"232 441 LINE",
"296 445 OFFCURVE",
"337 445 OFFCURVE",
"368 445 CURVE"
);
}
);
width = 900;
}
);
note = cid00429;
unicode = 3179;
},
{
glyphname = "siosKiyeokCompa-ko";
lastChange = "2019-11-29 11:50:58 +0000";
layers = (
{
layerId = "210D674B-AD98-4874-A618-1698A23DB8A1";
paths = (
{
closed = 1;
nodes = (
"439 505 OFFCURVE",
"421 518 OFFCURVE",
"412 526 CURVE SMOOTH",
"403 533 OFFCURVE",
"380 548 OFFCURVE",
"359 556 CURVE SMOOTH",
"344 561 OFFCURVE",
"328 564 OFFCURVE",
"316 543 CURVE SMOOTH",
"311 534 OFFCURVE",
"311 529 OFFCURVE",
"322 522 CURVE SMOOTH",
"357 502 OFFCURVE",
"350 473 OFFCURVE",
"330 418 CURVE SMOOTH",
"314 370 OFFCURVE",
"213 215 OFFCURVE",
"102 136 CURVE",
"79 115 OFFCURVE",
"114 101 OFFCURVE",
"142 119 CURVE SMOOTH",
"217 170 OFFCURVE",
"297 250 OFFCURVE",
"353 339 CURVE",
"401 283 OFFCURVE",
"467 203 OFFCURVE",
"510 136 CURVE",
"513 128 OFFCURVE",
"545 139 OFFCURVE",
"550 155 CURVE",
"555 185 OFFCURVE",
"541 224 OFFCURVE",
"523 240 CURVE",
"480 267 OFFCURVE",
"424 315 OFFCURVE",
"372 371 CURVE",
"381 386 OFFCURVE",
"388 400 OFFCURVE",
"393 414 CURVE SMOOTH",
"408 447 OFFCURVE",
"417 463 OFFCURVE",
"432 494 CURVE"
);
},
{
closed = 1;
nodes = (
"806 530 OFFCURVE",
"803 536 OFFCURVE",
"794 537 CURVE SMOOTH",
"775 540 OFFCURVE",
"762 543 OFFCURVE",
"741 548 CURVE SMOOTH",
"736 549 OFFCURVE",
"730 549 OFFCURVE",
"723 546 CURVE SMOOTH",
"681 530 OFFCURVE",
"557 518 OFFCURVE",
"503 531 CURVE SMOOTH",
"492 534 OFFCURVE",
"480 520 OFFCURVE",
"484 511 CURVE SMOOTH",
"487 503 OFFCURVE",
"506 486 OFFCURVE",
"517 477 CURVE",
"529 470 OFFCURVE",
"538 468 OFFCURVE",
"553 472 CURVE SMOOTH",
"630 488 OFFCURVE",
"654 490 OFFCURVE",
"723 493 CURVE SMOOTH",
"730 493 OFFCURVE",
"731 492 OFFCURVE",
"731 481 CURVE SMOOTH",
"731 226 LINE SMOOTH",
"731 197 OFFCURVE",
"730 151 OFFCURVE",
"735 126 CURVE SMOOTH",
"736 119 OFFCURVE",
"738 108 OFFCURVE",
"753 112 CURVE SMOOTH",
"785 123 OFFCURVE",
"795 202 OFFCURVE",
"795 247 CURVE SMOOTH",
"797 434 LINE SMOOTH",
"797 456 OFFCURVE",
"801 508 OFFCURVE",
"804 521 CURVE SMOOTH"
);
}
);
width = 900;
}
);
note = cid00430;
unicode = 317A;
},
{
glyphname = "siosNieunCompa-ko";
lastChange = "2019-11-29 11:50:58 +0000";
layers = (
{
layerId = "210D674B-AD98-4874-A618-1698A23DB8A1";
paths = (
{
closed = 1;
nodes = (
"376 505 OFFCURVE",
"359 518 OFFCURVE",
"350 526 CURVE SMOOTH",
"342 533 OFFCURVE",
"318 548 OFFCURVE",
"298 556 CURVE SMOOTH",
"283 561 OFFCURVE",
"266 564 OFFCURVE",
"254 543 CURVE SMOOTH",
"250 534 OFFCURVE",
"250 529 OFFCURVE",
"261 522 CURVE SMOOTH",
"296 502 OFFCURVE",
"289 473 OFFCURVE",
"269 418 CURVE SMOOTH",
"253 370 OFFCURVE",
"151 215 OFFCURVE",
"40 136 CURVE",
"19 115 OFFCURVE",
"52 101 OFFCURVE",
"81 119 CURVE SMOOTH",
"156 170 OFFCURVE",
"236 251 OFFCURVE",
"292 340 CURVE",
"340 284 OFFCURVE",
"406 202 OFFCURVE",
"448 136 CURVE",
"451 128 OFFCURVE",
"483 139 OFFCURVE",
"488 155 CURVE",
"493 184 OFFCURVE",
"480 225 OFFCURVE",
"461 240 CURVE",
"418 267 OFFCURVE",
"362 315 OFFCURVE",
"310 371 CURVE",
"319 386 OFFCURVE",
"326 400 OFFCURVE",
"331 414 CURVE SMOOTH",
"346 447 OFFCURVE",
"355 463 OFFCURVE",
"371 494 CURVE SMOOTH"
);
},
{
closed = 1;
nodes = (
"532 226 LINE SMOOTH",
"532 177 OFFCURVE",
"548 149 OFFCURVE",
"580 150 CURVE SMOOTH",
"672 155 OFFCURVE",
"763 162 OFFCURVE",
"843 157 CURVE SMOOTH",
"849 157 OFFCURVE",
"869 171 OFFCURVE",
"866 182 CURVE SMOOTH",
"862 193 OFFCURVE",
"857 201 OFFCURVE",
"849 212 CURVE SMOOTH",
"840 223 OFFCURVE",
"832 225 OFFCURVE",
"813 218 CURVE SMOOTH",
"786 207 OFFCURVE",
"719 198 OFFCURVE",
"623 197 CURVE SMOOTH",
"594 197 OFFCURVE",
"596 203 OFFCURVE",
"596 232 CURVE SMOOTH",
"596 454 LINE SMOOTH",
"596 473 OFFCURVE",
"598 492 OFFCURVE",
"601 504 CURVE SMOOTH",
"602 512 OFFCURVE",
"598 519 OFFCURVE",
"589 526 CURVE SMOOTH",
"569 541 OFFCURVE",
"539 553 OFFCURVE",
"508 560 CURVE SMOOTH",
"495 564 OFFCURVE",
"485 558 OFFCURVE",
"478 542 CURVE SMOOTH",
"475 537 OFFCURVE",
"477 526 OFFCURVE",
"486 522 CURVE SMOOTH",
"521 506 OFFCURVE",
"532 489 OFFCURVE",
"532 431 CURVE SMOOTH"
);
}
);
width = 900;
}
);
note = cid00431;
unicode = 317B;
},
{
glyphname = "siosTikeutCompa-ko";
lastChange = "2019-11-29 11:50:58 +0000";
layers = (
{
layerId = "210D674B-AD98-4874-A618-1698A23DB8A1";
paths = (
{
closed = 1;
nodes = (
"534 214 LINE SMOOTH",
"534 165 OFFCURVE",
"550 137 OFFCURVE",
"582 138 CURVE SMOOTH",
"674 142 OFFCURVE",
"763 149 OFFCURVE",
"843 145 CURVE SMOOTH",
"849 145 OFFCURVE",
"868 159 OFFCURVE",
"866 169 CURVE",
"862 179 OFFCURVE",
"856 189 OFFCURVE",
"849 198 CURVE SMOOTH",
"840 210 OFFCURVE",
"832 211 OFFCURVE",
"813 204 CURVE SMOOTH",
"786 193 OFFCURVE",
"725 186 OFFCURVE",
"629 185 CURVE SMOOTH",
"600 185 OFFCURVE",
"596 191 OFFCURVE",
"596 220 CURVE SMOOTH",
"596 478 LINE",
"677 483 OFFCURVE",
"771 488 OFFCURVE",
"830 485 CURVE SMOOTH",
"835 485 OFFCURVE",
"849 499 OFFCURVE",
"849 508 CURVE SMOOTH",
"849 515 OFFCURVE",
"840 532 OFFCURVE",
"833 539 CURVE SMOOTH",
"825 548 OFFCURVE",
"819 552 OFFCURVE",
"800 545 CURVE SMOOTH",
"760 532 OFFCURVE",
"640 522 OFFCURVE",
"580 522 CURVE",
"560 530 OFFCURVE",
"532 536 OFFCURVE",
"516 539 CURVE SMOOTH",
"504 542 OFFCURVE",
"494 537 OFFCURVE",
"487 521 CURVE",
"484 510 OFFCURVE",
"487 509 OFFCURVE",
"494 505 CURVE SMOOTH",
"533 486 OFFCURVE",
"534 459 OFFCURVE",
"534 411 CURVE SMOOTH"
);
},
{
closed = 1;
nodes = (
"376 505 OFFCURVE",
"359 518 OFFCURVE",
"350 526 CURVE SMOOTH",
"342 533 OFFCURVE",
"318 548 OFFCURVE",
"298 556 CURVE SMOOTH",
"283 561 OFFCURVE",
"266 564 OFFCURVE",
"254 543 CURVE SMOOTH",
"250 534 OFFCURVE",
"250 529 OFFCURVE",
"261 522 CURVE SMOOTH",
"296 502 OFFCURVE",
"289 473 OFFCURVE",
"269 418 CURVE SMOOTH",
"253 370 OFFCURVE",
"151 215 OFFCURVE",
"40 136 CURVE",
"19 115 OFFCURVE",
"52 101 OFFCURVE",
"81 119 CURVE SMOOTH",
"156 170 OFFCURVE",
"236 251 OFFCURVE",
"292 340 CURVE",
"340 284 OFFCURVE",
"406 202 OFFCURVE",
"448 136 CURVE",
"451 128 OFFCURVE",
"483 139 OFFCURVE",
"488 155 CURVE",
"493 184 OFFCURVE",
"480 225 OFFCURVE",
"461 240 CURVE",
"418 267 OFFCURVE",
"362 315 OFFCURVE",
"310 371 CURVE",
"319 386 OFFCURVE",
"326 400 OFFCURVE",
"331 414 CURVE SMOOTH",
"346 447 OFFCURVE",
"355 463 OFFCURVE",
"371 494 CURVE SMOOTH"
);
}
);
width = 900;
}
);
note = cid00432;
unicode = 317C;
},
{
glyphname = "siosPieupCompa-ko";
lastChange = "2019-11-29 11:50:58 +0000";
layers = (
{
layerId = "210D674B-AD98-4874-A618-1698A23DB8A1";
paths = (
{
closed = 1;
nodes = (
"837 420 LINE SMOOTH",
"837 455 OFFCURVE",
"838 491 OFFCURVE",
"843 518 CURVE SMOOTH",
"844 527 OFFCURVE",
"838 532 OFFCURVE",
"831 537 CURVE SMOOTH",
"819 545 OFFCURVE",
"792 560 OFFCURVE",
"776 567 CURVE",
"760 571 OFFCURVE",
"748 567 OFFCURVE",
"741 555 CURVE SMOOTH",
"735 546 OFFCURVE",
"736 539 OFFCURVE",
"744 534 CURVE SMOOTH",
"784 507 OFFCURVE",
"781 487 OFFCURVE",
"781 436 CURVE SMOOTH",
"781 406 LINE",
"738 401 OFFCURVE",
"647 400 OFFCURVE",
"610 400 CURVE",
"610 427 OFFCURVE",
"609 461 OFFCURVE",
"613 482 CURVE",
"613 485 OFFCURVE",
"613 491 OFFCURVE",
"601 500 CURVE SMOOTH",
"586 511 OFFCURVE",
"565 523 OFFCURVE",
"544 531 CURVE SMOOTH",
"531 536 OFFCURVE",
"520 533 OFFCURVE",
"511 520 CURVE SMOOTH",
"506 513 OFFCURVE",
"508 506 OFFCURVE",
"516 500 CURVE SMOOTH",
"556 471 OFFCURVE",
"552 434 OFFCURVE",
"552 383 CURVE SMOOTH",
"552 200 LINE SMOOTH",
"552 188 OFFCURVE",
"552 177 OFFCURVE",
"553 166 CURVE SMOOTH",
"553 131 OFFCURVE",
"563 124 OFFCURVE",
"579 127 CURVE SMOOTH",
"591 130 OFFCURVE",
"605 142 OFFCURVE",
"609 169 CURVE",
"677 172 OFFCURVE",
"754 169 OFFCURVE",
"781 169 CURVE",
"781 150 OFFCURVE",
"783 131 OFFCURVE",
"798 134 CURVE",
"829 137 OFFCURVE",
"836 170 OFFCURVE",
"837 210 CURVE SMOOTH"
);
},
{
closed = 1;
nodes = (
"398 505 OFFCURVE",
"381 518 OFFCURVE",
"372 526 CURVE SMOOTH",
"364 533 OFFCURVE",
"340 548 OFFCURVE",
"320 556 CURVE SMOOTH",
"305 561 OFFCURVE",
"288 564 OFFCURVE",
"276 543 CURVE SMOOTH",
"272 534 OFFCURVE",
"272 529 OFFCURVE",
"283 522 CURVE SMOOTH",
"318 502 OFFCURVE",
"311 473 OFFCURVE",
"291 418 CURVE SMOOTH",
"275 370 OFFCURVE",
"173 215 OFFCURVE",
"62 136 CURVE",
"41 115 OFFCURVE",
"74 101 OFFCURVE",
"103 119 CURVE SMOOTH",
"178 170 OFFCURVE",
"258 251 OFFCURVE",
"314 340 CURVE",
"362 284 OFFCURVE",
"428 202 OFFCURVE",
"470 136 CURVE",
"473 128 OFFCURVE",
"505 139 OFFCURVE",
"510 155 CURVE",
"515 184 OFFCURVE",
"502 225 OFFCURVE",
"483 240 CURVE",
"440 267 OFFCURVE",
"384 315 OFFCURVE",
"332 371 CURVE",
"341 386 OFFCURVE",
"348 400 OFFCURVE",
"353 414 CURVE SMOOTH",
"368 447 OFFCURVE",
"377 463 OFFCURVE",
"393 494 CURVE SMOOTH"
);
},
{
closed = 1;
nodes = (
"781 214 LINE",
"747 209 OFFCURVE",
"655 210 OFFCURVE",
"610 210 CURVE",
"610 359 LINE",
"679 362 OFFCURVE",
"746 363 OFFCURVE",
"781 363 CURVE"
);
}
);
width = 900;
}
);
note = cid00433;
unicode = 317D;
},
{
glyphname = "siosCieucCompa-ko";
lastChange = "2019-11-29 11:50:58 +0000";
layers = (
{
layerId = "210D674B-AD98-4874-A618-1698A23DB8A1";
paths = (
{
closed = 1;
nodes = (
"466 533 OFFCURVE",
"458 520 OFFCURVE",
"461 511 CURVE",
"461 509 OFFCURVE",
"486 485 OFFCURVE",
"493 478 CURVE",
"504 470 OFFCURVE",
"510 464 OFFCURVE",
"538 471 CURVE SMOOTH",
"562 478 OFFCURVE",
"592 483 OFFCURVE",
"617 487 CURVE",
"642 480 OFFCURVE",
"643 469 OFFCURVE",
"643 454 CURVE SMOOTH",
"640 414 OFFCURVE",
"573 244 OFFCURVE",
"418 127 CURVE SMOOTH",
"389 106 OFFCURVE",
"422 89 OFFCURVE",
"450 104 CURVE SMOOTH",
"542 157 OFFCURVE",
"610 242 OFFCURVE",
"654 315 CURVE",
"707 268 OFFCURVE",
"773 202 OFFCURVE",
"817 138 CURVE",
"825 130 OFFCURVE",
"852 142 OFFCURVE",
"858 159 CURVE",
"862 188 OFFCURVE",
"846 228 OFFCURVE",
"826 241 CURVE",
"790 257 OFFCURVE",
"736 293 OFFCURVE",
"672 345 CURVE",
"699 394 OFFCURVE",
"711 433 OFFCURVE",
"714 449 CURVE SMOOTH",
"717 464 OFFCURVE",
"696 480 OFFCURVE",
"673 491 CURVE",
"777 499 OFFCURVE",
"764 498 OFFCURVE",
"825 495 CURVE SMOOTH",
"830 495 OFFCURVE",
"842 504 OFFCURVE",
"842 513 CURVE SMOOTH",
"842 524 OFFCURVE",
"835 538 OFFCURVE",
"830 549 CURVE",
"823 560 OFFCURVE",
"817 562 OFFCURVE",
"801 559 CURVE SMOOTH",
"741 545 OFFCURVE",
"729 538 OFFCURVE",
"645 530 CURVE SMOOTH",
"581 525 OFFCURVE",
"544 524 OFFCURVE",
"477 532 CURVE SMOOTH"
);
},
{
closed = 1;
nodes = (
"321 408 LINE",
"360 489 LINE",
"367 500 OFFCURVE",
"349 512 OFFCURVE",
"340 520 CURVE SMOOTH",
"331 527 OFFCURVE",
"308 542 OFFCURVE",
"288 550 CURVE SMOOTH",
"273 557 OFFCURVE",
"256 558 OFFCURVE",
"244 538 CURVE SMOOTH",
"239 529 OFFCURVE",
"239 524 OFFCURVE",
"251 517 CURVE SMOOTH",
"286 496 OFFCURVE",
"282 465 OFFCURVE",
"258 412 CURVE SMOOTH",
"237 367 OFFCURVE",
"161 238 OFFCURVE",
"49 158 CURVE",
"28 137 OFFCURVE",
"60 125 OFFCURVE",
"89 141 CURVE SMOOTH",
"155 180 OFFCURVE",
"232 259 OFFCURVE",
"285 344 CURVE",
"324 307 OFFCURVE",
"401 231 OFFCURVE",
"431 188 CURVE",
"435 184 OFFCURVE",
"466 196 OFFCURVE",
"466 204 CURVE",
"477 239 OFFCURVE",
"451 270 OFFCURVE",
"423 285 CURVE",
"377 301 OFFCURVE",
"325 351 OFFCURVE",
"303 373 CURVE"
);
}
);
width = 900;
}
);
note = cid00434;
unicode = 317E;
},
{
glyphname = "pansiosCompa-ko";
lastChange = "2019-11-29 11:50:58 +0000";
layers = (
{
layerId = "210D674B-AD98-4874-A618-1698A23DB8A1";
paths = (
{
closed = 1;
nodes = (
"300 136 OFFCURVE",
"630 139 OFFCURVE",
"679 135 CURVE SMOOTH",
"682 135 OFFCURVE",
"701 153 OFFCURVE",
"701 165 CURVE SMOOTH",
"701 167 OFFCURVE",
"699 170 OFFCURVE",
"696 174 CURVE SMOOTH",
"640 269 OFFCURVE",
"574 365 OFFCURVE",
"494 504 CURVE",
"511 528 LINE",
"514 537 OFFCURVE",
"505 546 OFFCURVE",
"496 554 CURVE SMOOTH",
"480 569 OFFCURVE",
"458 582 OFFCURVE",
"446 589 CURVE SMOOTH",
"434 596 OFFCURVE",
"417 598 OFFCURVE",
"406 583 CURVE SMOOTH",
"398 570 OFFCURVE",
"407 565 OFFCURVE",
"411 560 CURVE",
"432 544 OFFCURVE",
"428 511 OFFCURVE",
"401 462 CURVE SMOOTH",
"380 425 OFFCURVE",
"266 241 OFFCURVE",
"219 191 CURVE SMOOTH",
"210 180 OFFCURVE",
"192 174 OFFCURVE",
"200 165 CURVE SMOOTH",
"216 144 OFFCURVE",
"251 126 OFFCURVE",
"255 128 CURVE"
);
},
{
closed = 1;
nodes = (
"340 259 OFFCURVE",
"434 405 OFFCURVE",
"466 461 CURVE",
"504 385 OFFCURVE",
"583 263 OFFCURVE",
"615 191 CURVE",
"546 183 OFFCURVE",
"354 179 OFFCURVE",
"284 179 CURVE"
);
}
);
width = 900;
}
);
note = cid00435;
unicode = 317F;
},
{
glyphname = "ssangieungCompa-ko";
lastChange = "2019-11-29 11:50:58 +0000";
layers = (
{
layerId = "210D674B-AD98-4874-A618-1698A23DB8A1";
paths = (
{
closed = 1;
nodes = (
"113 498 OFFCURVE",
"55 409 OFFCURVE",
"55 328 CURVE SMOOTH",
"52 236 OFFCURVE",
"118 142 OFFCURVE",
"237 150 CURVE SMOOTH",
"357 155 OFFCURVE",
"413 241 OFFCURVE",
"418 331 CURVE SMOOTH",
"421 441 OFFCURVE",
"345 508 OFFCURVE",
"238 503 CURVE SMOOTH"
);
},
{
closed = 1;
nodes = (
"163 206 OFFCURVE",
"117 261 OFFCURVE",
"117 333 CURVE SMOOTH",
"120 388 OFFCURVE",
"159 455 OFFCURVE",
"242 455 CURVE SMOOTH",
"323 455 OFFCURVE",
"354 384 OFFCURVE",
"354 333 CURVE SMOOTH",
"351 273 OFFCURVE",
"312 212 OFFCURVE",
"237 209 CURVE SMOOTH"
);
},
{
closed = 1;
nodes = (
"543 502 OFFCURVE",
"483 413 OFFCURVE",
"483 332 CURVE SMOOTH",
"483 239 OFFCURVE",
"547 148 OFFCURVE",
"665 153 CURVE SMOOTH",
"785 158 OFFCURVE",
"843 246 OFFCURVE",
"846 334 CURVE SMOOTH",
"849 446 OFFCURVE",
"773 510 OFFCURVE",
"666 507 CURVE SMOOTH"
);
},
{
closed = 1;
nodes = (
"592 210 OFFCURVE",
"546 264 OFFCURVE",
"546 336 CURVE SMOOTH",
"546 392 OFFCURVE",
"587 459 OFFCURVE",
"669 459 CURVE SMOOTH",
"752 462 OFFCURVE",
"782 387 OFFCURVE",
"782 336 CURVE SMOOTH",
"779 276 OFFCURVE",
"740 216 OFFCURVE",
"665 213 CURVE SMOOTH"
);
}
);
width = 900;
}
);
note = cid00436;
unicode = 3180;
},
{
glyphname = "yesieungCompa-ko";
lastChange = "2019-11-29 11:50:58 +0000";
layers = (
{
layerId = "210D674B-AD98-4874-A618-1698A23DB8A1";
paths = (
{
closed = 1;
nodes = (
"226 173 OFFCURVE",
"327 101 OFFCURVE",
"449 101 CURVE SMOOTH",
"569 104 OFFCURVE",
"674 186 OFFCURVE",
"674 295 CURVE SMOOTH",
"674 401 OFFCURVE",
"586 469 OFFCURVE",
"479 477 CURVE",
"479 482 OFFCURVE",
"479 488 OFFCURVE",
"480 499 CURVE SMOOTH",
"481 530 OFFCURVE",
"482 555 OFFCURVE",
"487 576 CURVE SMOOTH",
"488 582 OFFCURVE",
"483 588 OFFCURVE",
"474 595 CURVE SMOOTH",
"459 606 OFFCURVE",
"434 620 OFFCURVE",
"415 624 CURVE SMOOTH",
"402 627 OFFCURVE",
"391 623 OFFCURVE",
"383 611 CURVE SMOOTH",
"378 603 OFFCURVE",
"377 594 OFFCURVE",
"386 590 CURVE SMOOTH",
"425 569 OFFCURVE",
"426 536 OFFCURVE",
"426 492 CURVE SMOOTH",
"426 476 LINE",
"314 463 OFFCURVE",
"226 385 OFFCURVE",
"226 286 CURVE SMOOTH"
);
},
{
closed = 1;
nodes = (
"293 377 OFFCURVE",
"365 428 OFFCURVE",
"450 431 CURVE SMOOTH",
"534 434 OFFCURVE",
"606 384 OFFCURVE",
"606 298 CURVE SMOOTH",
"606 210 OFFCURVE",
"535 158 OFFCURVE",
"451 155 CURVE SMOOTH",
"364 150 OFFCURVE",
"293 202 OFFCURVE",
"293 290 CURVE SMOOTH"
);
}
);
width = 900;
}
);
note = cid00437;
unicode = 3181;
},
{
glyphname = "yesieungSiosCompa-ko";
lastChange = "2019-11-29 11:50:58 +0000";
layers = (
{
layerId = "210D674B-AD98-4874-A618-1698A23DB8A1";
paths = (
{
closed = 1;
nodes = (
"281 490 OFFCURVE",
"282 514 OFFCURVE",
"287 537 CURVE SMOOTH",
"288 542 OFFCURVE",
"283 549 OFFCURVE",
"273 556 CURVE SMOOTH",
"258 567 OFFCURVE",
"234 580 OFFCURVE",
"215 585 CURVE SMOOTH",
"202 588 OFFCURVE",
"191 584 OFFCURVE",
"183 571 CURVE SMOOTH",
"178 564 OFFCURVE",
"177 555 OFFCURVE",
"186 551 CURVE SMOOTH",
"225 530 OFFCURVE",
"226 496 OFFCURVE",
"226 453 CURVE SMOOTH",
"226 440 LINE",
"120 424 OFFCURVE",
"70 353 OFFCURVE",
"70 285 CURVE SMOOTH",
"67 202 OFFCURVE",
"135 118 OFFCURVE",
"252 123 CURVE SMOOTH",
"373 128 OFFCURVE",
"429 207 OFFCURVE",
"434 287 CURVE SMOOTH",
"435 378 OFFCURVE",
"372 435 OFFCURVE",
"279 442 CURVE",
"279 446 OFFCURVE",
"279 450 OFFCURVE",
"280 459 CURVE SMOOTH"
);
},
{
closed = 1;
nodes = (
"655 414 LINE",
"691 494 LINE SMOOTH",
"696 505 OFFCURVE",
"680 518 OFFCURVE",
"671 526 CURVE SMOOTH",
"662 533 OFFCURVE",
"635 550 OFFCURVE",
"615 558 CURVE SMOOTH",
"600 565 OFFCURVE",
"584 566 OFFCURVE",
"571 546 CURVE",
"567 537 OFFCURVE",
"567 531 OFFCURVE",
"578 524 CURVE SMOOTH",
"613 504 OFFCURVE",
"613 478 OFFCURVE",
"593 418 CURVE SMOOTH",
"577 370 OFFCURVE",
"503 210 OFFCURVE",
"399 125 CURVE SMOOTH",
"376 104 OFFCURVE",
"411 90 OFFCURVE",
"439 108 CURVE SMOOTH",
"510 155 OFFCURVE",
"576 256 OFFCURVE",
"619 339 CURVE",
"674 284 OFFCURVE",
"746 195 OFFCURVE",
"786 126 CURVE",
"791 119 OFFCURVE",
"823 126 OFFCURVE",
"828 142 CURVE",
"833 173 OFFCURVE",
"823 213 OFFCURVE",
"804 229 CURVE",
"757 256 OFFCURVE",
"705 304 OFFCURVE",
"636 372 CURVE"
);
},
{
closed = 1;
nodes = (
"178 174 OFFCURVE",
"132 225 OFFCURVE",
"132 289 CURVE SMOOTH",
"132 339 OFFCURVE",
"174 399 OFFCURVE",
"257 399 CURVE SMOOTH",
"340 399 OFFCURVE",
"370 335 OFFCURVE",
"370 289 CURVE SMOOTH",
"367 235 OFFCURVE",
"328 180 OFFCURVE",
"252 177 CURVE SMOOTH"
);
}
);
width = 900;
}
);
note = cid00438;
unicode = 3182;
},
{
glyphname = "yesieungPansiosCompa-ko";
lastChange = "2019-11-29 11:50:58 +0000";
layers = (
{
layerId = "210D674B-AD98-4874-A618-1698A23DB8A1";
paths = (
{
closed = 1;
nodes = (
"281 490 OFFCURVE",
"282 514 OFFCURVE",
"287 537 CURVE SMOOTH",
"288 542 OFFCURVE",
"283 549 OFFCURVE",
"273 556 CURVE SMOOTH",
"258 567 OFFCURVE",
"234 580 OFFCURVE",
"215 585 CURVE SMOOTH",
"202 588 OFFCURVE",
"191 584 OFFCURVE",
"183 571 CURVE SMOOTH",
"178 564 OFFCURVE",
"177 555 OFFCURVE",
"186 551 CURVE SMOOTH",
"225 530 OFFCURVE",
"226 496 OFFCURVE",
"226 453 CURVE SMOOTH",
"226 440 LINE",
"120 424 OFFCURVE",
"70 353 OFFCURVE",
"70 285 CURVE SMOOTH",
"67 202 OFFCURVE",
"135 118 OFFCURVE",
"252 123 CURVE SMOOTH",
"373 128 OFFCURVE",
"429 207 OFFCURVE",
"434 287 CURVE SMOOTH",
"435 378 OFFCURVE",
"372 435 OFFCURVE",
"279 442 CURVE",
"279 446 OFFCURVE",
"279 450 OFFCURVE",
"280 459 CURVE SMOOTH"
);
},
{
closed = 1;
nodes = (
"515 131 OFFCURVE",
"767 138 OFFCURVE",
"811 130 CURVE SMOOTH",
"815 129 OFFCURVE",
"829 142 OFFCURVE",
"830 154 CURVE SMOOTH",
"830 155 OFFCURVE",
"829 158 OFFCURVE",
"826 163 CURVE SMOOTH",
"776 250 OFFCURVE",
"737 349 OFFCURVE",
"668 477 CURVE",
"682 501 LINE",
"685 509 OFFCURVE",
"678 517 OFFCURVE",
"670 524 CURVE SMOOTH",
"655 539 OFFCURVE",
"641 551 OFFCURVE",
"628 558 CURVE SMOOTH",
"617 565 OFFCURVE",
"602 566 OFFCURVE",
"593 551 CURVE SMOOTH",
"586 540 OFFCURVE",
"594 536 OFFCURVE",
"598 531 CURVE",
"617 514 OFFCURVE",
"609 486 OFFCURVE",
"586 437 CURVE SMOOTH",
"568 401 OFFCURVE",
"485 230 OFFCURVE",
"445 182 CURVE",
"436 174 OFFCURVE",
"420 167 OFFCURVE",
"427 158 CURVE SMOOTH",
"442 141 OFFCURVE",
"473 120 OFFCURVE",
"476 123 CURVE"
);
},
{
closed = 1;
nodes = (
"178 174 OFFCURVE",
"132 225 OFFCURVE",
"132 289 CURVE SMOOTH",
"132 339 OFFCURVE",
"174 399 OFFCURVE",
"257 399 CURVE SMOOTH",
"340 399 OFFCURVE",
"370 335 OFFCURVE",
"370 289 CURVE SMOOTH",
"367 235 OFFCURVE",
"328 180 OFFCURVE",
"252 177 CURVE SMOOTH"
);
},
{
closed = 1;
nodes = (
"552 247 OFFCURVE",
"614 380 OFFCURVE",
"643 433 CURVE",
"677 362 OFFCURVE",
"725 252 OFFCURVE",
"755 184 CURVE",
"694 176 OFFCURVE",
"565 173 OFFCURVE",
"501 173 CURVE"
);
}
);
width = 900;
}
);
note = cid00439;
unicode = 3183;
},
{
glyphname = "kapyeounphieuphCompa-ko";
lastChange = "2019-11-29 11:50:58 +0000";
layers = (
{
layerId = "210D674B-AD98-4874-A618-1698A23DB8A1";
paths = (
{
closed = 1;
nodes = (
"351 194 OFFCURVE",
"305 124 OFFCURVE",
"305 59 CURVE SMOOTH",
"305 -1 OFFCURVE",
"359 -75 OFFCURVE",
"459 -72 CURVE SMOOTH",
"558 -72 OFFCURVE",
"614 0 OFFCURVE",
"614 66 CURVE SMOOTH",
"614 141 OFFCURVE",
"559 200 OFFCURVE",
"463 197 CURVE SMOOTH"
);
},
{
closed = 1;
nodes = (
"717 293 OFFCURVE",
"730 301 OFFCURVE",
"730 309 CURVE SMOOTH",
"730 320 OFFCURVE",
"725 334 OFFCURVE",
"718 345 CURVE",
"711 353 OFFCURVE",
"706 357 OFFCURVE",
"690 353 CURVE SMOOTH",
"658 345 OFFCURVE",
"639 341 OFFCURVE",
"589 338 CURVE",
"606 436 LINE SMOOTH",
"613 477 OFFCURVE",
"620 504 OFFCURVE",
"623 511 CURVE SMOOTH",
"626 518 OFFCURVE",
"617 524 OFFCURVE",
"610 529 CURVE SMOOTH",
"590 542 OFFCURVE",
"568 552 OFFCURVE",
"540 557 CURVE SMOOTH",
"526 559 OFFCURVE",
"517 553 OFFCURVE",
"513 539 CURVE SMOOTH",
"510 528 OFFCURVE",
"515 524 OFFCURVE",
"522 521 CURVE SMOOTH",
"554 504 OFFCURVE",
"556 475 OFFCURVE",
"549 416 CURVE SMOOTH",
"545 378 OFFCURVE",
"542 351 OFFCURVE",
"539 334 CURVE",
"502 331 OFFCURVE",
"429 327 OFFCURVE",
"373 324 CURVE",
"377 344 OFFCURVE",
"379 366 OFFCURVE",
"379 391 CURVE SMOOTH",
"379 422 OFFCURVE",
"381 455 OFFCURVE",
"384 474 CURVE SMOOTH",
"385 481 OFFCURVE",
"379 489 OFFCURVE",
"370 496 CURVE SMOOTH",
"349 511 OFFCURVE",
"325 525 OFFCURVE",
"306 530 CURVE",
"295 531 OFFCURVE",
"285 528 OFFCURVE",
"278 513 CURVE SMOOTH",
"273 504 OFFCURVE",
"277 500 OFFCURVE",
"284 495 CURVE SMOOTH",
"320 468 OFFCURVE",
"323 437 OFFCURVE",
"326 390 CURVE SMOOTH",
"329 353 OFFCURVE",
"328 335 OFFCURVE",
"328 323 CURVE",
"273 323 OFFCURVE",
"216 325 OFFCURVE",
"189 333 CURVE SMOOTH",
"178 336 OFFCURVE",
"168 318 OFFCURVE",
"171 310 CURVE SMOOTH",
"175 302 OFFCURVE",
"196 283 OFFCURVE",
"209 274 CURVE SMOOTH",
"220 267 OFFCURVE",
"227 265 OFFCURVE",
"244 269 CURVE SMOOTH",
"305 282 OFFCURVE",
"359 282 OFFCURVE",
"471 290 CURVE SMOOTH",
"576 298 OFFCURVE",
"610 296 OFFCURVE",
"712 293 CURVE SMOOTH"
);
},
{
closed = 1;
nodes = (
"398 -30 OFFCURVE",
"359 12 OFFCURVE",
"359 60 CURVE SMOOTH",
"359 112 OFFCURVE",
"390 154 OFFCURVE",
"463 157 CURVE SMOOTH",
"531 160 OFFCURVE",
"560 106 OFFCURVE",
"557 65 CURVE SMOOTH",
"553 12 OFFCURVE",
"520 -26 OFFCURVE",
"459 -27 CURVE SMOOTH"
);
},
{
closed = 1;
nodes = (
"198 638 OFFCURVE",
"186 620 OFFCURVE",
"189 613 CURVE SMOOTH",
"194 605 OFFCURVE",
"209 588 OFFCURVE",
"224 576 CURVE SMOOTH",
"237 565 OFFCURVE",
"244 566 OFFCURVE",
"267 570 CURVE SMOOTH",
"299 577 OFFCURVE",
"345 579 OFFCURVE",
"372 582 CURVE SMOOTH",
"435 587 OFFCURVE",
"449 585 OFFCURVE",
"504 588 CURVE SMOOTH",
"560 591 OFFCURVE",
"654 587 OFFCURVE",
"685 584 CURVE SMOOTH",
"690 584 OFFCURVE",
"701 592 OFFCURVE",
"701 600 CURVE SMOOTH",
"701 611 OFFCURVE",
"692 631 OFFCURVE",
"687 638 CURVE SMOOTH",
"680 647 OFFCURVE",
"674 651 OFFCURVE",
"659 646 CURVE SMOOTH",
"632 638 OFFCURVE",
"583 635 OFFCURVE",
"535 631 CURVE SMOOTH",
"471 624 OFFCURVE",
"420 625 OFFCURVE",
"364 624 CURVE SMOOTH",
"310 624 OFFCURVE",
"243 627 OFFCURVE",
"207 635 CURVE"
);
}
);
width = 900;
}
);
note = cid00440;
unicode = 3184;
},
{
glyphname = "ssanghieuhCompa-ko";
lastChange = "2019-11-29 11:50:58 +0000";
layers = (
{
layerId = "210D674B-AD98-4874-A618-1698A23DB8A1";
paths = (
{
closed = 1;
nodes = (
"462 462 OFFCURVE",
"452 446 OFFCURVE",
"456 438 CURVE SMOOTH",
"459 430 OFFCURVE",
"471 421 OFFCURVE",
"484 408 CURVE SMOOTH",
"493 399 OFFCURVE",
"500 391 OFFCURVE",
"523 398 CURVE SMOOTH",
"555 406 OFFCURVE",
"591 416 OFFCURVE",
"667 420 CURVE SMOOTH",
"787 428 OFFCURVE",
"820 426 OFFCURVE",
"876 421 CURVE SMOOTH",
"880 421 OFFCURVE",
"892 429 OFFCURVE",
"892 438 CURVE SMOOTH",
"892 449 OFFCURVE",
"887 462 OFFCURVE",
"880 471 CURVE SMOOTH",
"873 480 OFFCURVE",
"870 484 OFFCURVE",
"855 480 CURVE SMOOTH",
"814 467 OFFCURVE",
"764 462 OFFCURVE",
"671 455 CURVE SMOOTH",
"611 452 OFFCURVE",
"535 446 OFFCURVE",
"471 459 CURVE"
);
},
{
closed = 1;
nodes = (
"571 369 OFFCURVE",
"524 299 OFFCURVE",
"524 237 CURVE SMOOTH",
"524 175 OFFCURVE",
"578 104 OFFCURVE",
"682 107 CURVE SMOOTH",
"784 107 OFFCURVE",
"839 178 OFFCURVE",
"839 242 CURVE SMOOTH",
"839 318 OFFCURVE",
"784 373 OFFCURVE",
"684 372 CURVE SMOOTH"
);
},
{
closed = 1;
nodes = (
"618 150 OFFCURVE",
"579 193 OFFCURVE",
"579 240 CURVE SMOOTH",
"579 291 OFFCURVE",
"609 333 OFFCURVE",
"684 336 CURVE SMOOTH",
"756 339 OFFCURVE",
"785 286 OFFCURVE",
"782 244 CURVE SMOOTH",
"778 193 OFFCURVE",
"743 156 OFFCURVE",
"682 153 CURVE SMOOTH"
);
},
{
closed = 1;
nodes = (
"550 585 OFFCURVE",
"539 560 OFFCURVE",
"547 555 CURVE",
"575 532 OFFCURVE",
"621 523 OFFCURVE",
"656 520 CURVE SMOOTH",
"709 515 OFFCURVE",
"759 521 OFFCURVE",
"780 528 CURVE SMOOTH",
"793 532 OFFCURVE",
"802 550 OFFCURVE",
"801 561 CURVE",
"798 568 OFFCURVE",
"790 577 OFFCURVE",
"779 577 CURVE SMOOTH",
"718 574 OFFCURVE",
"652 564 OFFCURVE",
"564 583 CURVE SMOOTH"
);
},
{
closed = 1;
nodes = (
"15 448 OFFCURVE",
"4 430 OFFCURVE",
"9 425 CURVE",
"12 417 OFFCURVE",
"25 409 OFFCURVE",
"36 394 CURVE",
"45 387 OFFCURVE",
"51 379 OFFCURVE",
"74 386 CURVE SMOOTH",
"106 393 OFFCURVE",
"147 402 OFFCURVE",
"222 407 CURVE SMOOTH",
"338 415 OFFCURVE",
"363 411 OFFCURVE",
"416 408 CURVE SMOOTH",
"421 408 OFFCURVE",
"432 416 OFFCURVE",
"432 425 CURVE SMOOTH",
"432 434 OFFCURVE",
"426 447 OFFCURVE",
"421 456 CURVE",
"414 464 OFFCURVE",
"411 468 OFFCURVE",
"396 464 CURVE SMOOTH",
"357 453 OFFCURVE",
"316 445 OFFCURVE",
"225 440 CURVE SMOOTH",
"168 437 OFFCURVE",
"87 431 OFFCURVE",
"26 445 CURVE SMOOTH"
);
},
{
closed = 1;
nodes = (
"130 357 OFFCURVE",
"83 289 OFFCURVE",
"83 229 CURVE SMOOTH",
"83 169 OFFCURVE",
"135 99 OFFCURVE",
"236 102 CURVE SMOOTH",
"335 102 OFFCURVE",
"388 171 OFFCURVE",
"388 234 CURVE SMOOTH",
"388 308 OFFCURVE",
"335 363 OFFCURVE",
"239 360 CURVE SMOOTH"
);
},
{
closed = 1;
nodes = (
"173 145 OFFCURVE",
"136 185 OFFCURVE",
"136 232 CURVE SMOOTH",
"136 280 OFFCURVE",
"167 322 OFFCURVE",
"239 325 CURVE SMOOTH",
"309 328 OFFCURVE",
"335 277 OFFCURVE",
"332 237 CURVE SMOOTH",
"329 186 OFFCURVE",
"296 149 OFFCURVE",
"236 148 CURVE SMOOTH"
);
},
{
closed = 1;
nodes = (
"105 568 OFFCURVE",
"100 543 OFFCURVE",
"105 538 CURVE",
"134 517 OFFCURVE",
"176 506 OFFCURVE",
"211 503 CURVE SMOOTH",
"262 500 OFFCURVE",
"311 504 OFFCURVE",
"331 511 CURVE SMOOTH",
"344 515 OFFCURVE",
"354 534 OFFCURVE",
"351 543 CURVE",
"350 550 OFFCURVE",
"341 559 OFFCURVE",
"330 559 CURVE SMOOTH",
"271 556 OFFCURVE",
"207 546 OFFCURVE",
"122 565 CURVE SMOOTH"
);
}
);
width = 900;
}
);
note = cid00441;
unicode = 3185;
},
{
glyphname = "yeorinhieuhCompa-ko";
lastChange = "2019-11-29 11:50:58 +0000";
layers = (
{
layerId = "210D674B-AD98-4874-A618-1698A23DB8A1";
paths = (
{
closed = 1;
nodes = (
"155 529 OFFCURVE",
"146 512 OFFCURVE",
"150 504 CURVE SMOOTH",
"154 497 OFFCURVE",
"170 478 OFFCURVE",
"181 466 CURVE SMOOTH",
"193 454 OFFCURVE",
"203 449 OFFCURVE",
"228 454 CURVE SMOOTH",
"303 473 OFFCURVE",
"369 469 OFFCURVE",
"458 474 CURVE SMOOTH",
"626 482 OFFCURVE",
"671 477 OFFCURVE",
"732 472 CURVE SMOOTH",
"737 472 OFFCURVE",
"750 480 OFFCURVE",
"750 489 CURVE SMOOTH",
"750 498 OFFCURVE",
"741 521 OFFCURVE",
"736 529 CURVE SMOOTH",
"729 541 OFFCURVE",
"720 545 OFFCURVE",
"707 540 CURVE SMOOTH",
"688 533 OFFCURVE",
"634 528 OFFCURVE",
"581 521 CURVE SMOOTH",
"497 512 OFFCURVE",
"410 512 OFFCURVE",
"334 512 CURVE SMOOTH",
"266 512 OFFCURVE",
"210 515 OFFCURVE",
"166 528 CURVE"
);
},
{
closed = 1;
nodes = (
"329 403 OFFCURVE",
"267 324 OFFCURVE",
"267 253 CURVE SMOOTH",
"267 170 OFFCURVE",
"333 90 OFFCURVE",
"454 95 CURVE SMOOTH",
"574 100 OFFCURVE",
"637 176 OFFCURVE",
"640 256 CURVE SMOOTH",
"643 353 OFFCURVE",
"564 411 OFFCURVE",
"455 408 CURVE SMOOTH"
);
},
{
closed = 1;
nodes = (
"378 141 OFFCURVE",
"331 189 OFFCURVE",
"332 256 CURVE SMOOTH",
"332 304 OFFCURVE",
"374 365 OFFCURVE",
"458 365 CURVE SMOOTH",
"544 365 OFFCURVE",
"574 299 OFFCURVE",
"574 256 CURVE SMOOTH",
"571 203 OFFCURVE",
"534 147 OFFCURVE",
"454 144 CURVE SMOOTH"
);
}
);
width = 900;
}
);
note = cid00442;
unicode = 3186;
},
{
glyphname = "yoYaCompa-ko";
lastChange = "2019-11-29 11:50:58 +0000";
layers = (
{
layerId = "210D674B-AD98-4874-A618-1698A23DB8A1";
paths = (
{
closed = 1;
nodes = (
"692 -73 OFFCURVE",
"699 11 OFFCURVE",
"699 51 CURVE SMOOTH",
"699 263 LINE",
"754 263 OFFCURVE",
"817 261 OFFCURVE",
"870 254 CURVE SMOOTH",
"874 254 OFFCURVE",
"885 262 OFFCURVE",
"885 270 CURVE SMOOTH",
"885 278 OFFCURVE",
"877 303 OFFCURVE",
"870 311 CURVE SMOOTH",
"863 320 OFFCURVE",
"860 325 OFFCURVE",
"845 320 CURVE SMOOTH",
"824 313 OFFCURVE",
"767 302 OFFCURVE",
"699 301 CURVE",
"699 496 LINE",
"754 497 OFFCURVE",
"814 500 OFFCURVE",
"866 496 CURVE SMOOTH",
"870 496 OFFCURVE",
"882 503 OFFCURVE",
"882 511 CURVE SMOOTH",
"882 520 OFFCURVE",
"875 542 OFFCURVE",
"868 551 CURVE SMOOTH",
"861 560 OFFCURVE",
"858 565 OFFCURVE",
"843 560 CURVE SMOOTH",
"822 553 OFFCURVE",
"766 536 OFFCURVE",
"699 533 CURVE",
"699 650 LINE SMOOTH",
"699 682 OFFCURVE",
"701 703 OFFCURVE",
"705 731 CURVE SMOOTH",
"706 739 OFFCURVE",
"700 746 OFFCURVE",
"693 751 CURVE SMOOTH",
"680 761 OFFCURVE",
"636 781 OFFCURVE",
"612 784 CURVE SMOOTH",
"600 785 OFFCURVE",
"592 783 OFFCURVE",
"585 770 CURVE SMOOTH",
"580 762 OFFCURVE",
"582 756 OFFCURVE",
"589 752 CURVE SMOOTH",
"640 725 OFFCURVE",
"642 712 OFFCURVE",
"642 651 CURVE SMOOTH",
"642 49 LINE SMOOTH",
"642 10 OFFCURVE",
"644 -58 OFFCURVE",
"649 -74 CURVE SMOOTH",
"650 -79 OFFCURVE",
"654 -85 OFFCURVE",
"665 -81 CURVE SMOOTH"
);
},
{
closed = 1;
nodes = (
"572 247 OFFCURVE",
"512 229 OFFCURVE",
"419 210 CURVE",
"422 241 OFFCURVE",
"425 287 OFFCURVE",
"428 303 CURVE SMOOTH",
"431 331 OFFCURVE",
"434 357 OFFCURVE",
"439 376 CURVE SMOOTH",
"440 382 OFFCURVE",
"436 388 OFFCURVE",
"427 395 CURVE SMOOTH",
"414 406 OFFCURVE",
"389 419 OFFCURVE",
"374 423 CURVE SMOOTH",
"361 427 OFFCURVE",
"352 424 OFFCURVE",
"345 413 CURVE SMOOTH",
"340 404 OFFCURVE",
"341 398 OFFCURVE",
"349 394 CURVE SMOOTH",
"382 378 OFFCURVE",
"381 338 OFFCURVE",
"378 298 CURVE SMOOTH",
"371 202 LINE",
"332 195 OFFCURVE",
"287 190 OFFCURVE",
"238 186 CURVE",
"238 264 LINE SMOOTH",
"238 299 OFFCURVE",
"240 325 OFFCURVE",
"243 334 CURVE",
"243 341 OFFCURVE",
"238 348 OFFCURVE",
"227 356 CURVE SMOOTH",
"212 365 OFFCURVE",
"188 376 OFFCURVE",
"175 379 CURVE SMOOTH",
"160 382 OFFCURVE",
"150 378 OFFCURVE",
"144 365 CURVE SMOOTH",
"141 358 OFFCURVE",
"143 353 OFFCURVE",
"150 349 CURVE SMOOTH",
"185 330 OFFCURVE",
"190 312 OFFCURVE",
"193 261 CURVE SMOOTH",
"193 244 OFFCURVE",
"194 209 OFFCURVE",
"194 182 CURVE",
"186 182 LINE SMOOTH",
"141 179 OFFCURVE",
"88 180 OFFCURVE",
"40 187 CURVE",
"31 187 OFFCURVE",
"22 171 OFFCURVE",
"26 164 CURVE",
"29 155 OFFCURVE",
"61 134 OFFCURVE",
"75 126 CURVE SMOOTH",
"92 115 OFFCURVE",
"101 114 OFFCURVE",
"128 123 CURVE SMOOTH",
"164 134 OFFCURVE",
"228 140 OFFCURVE",
"280 148 CURVE SMOOTH",
"456 173 OFFCURVE",
"556 205 OFFCURVE",
"599 222 CURVE SMOOTH",
"623 230 OFFCURVE",
"623 264 OFFCURVE",
"599 256 CURVE SMOOTH"
);
}
);
width = 900;
}
);
note = cid00443;
unicode = 3187;
},
{
glyphname = "yoYaeCompa-ko";
lastChange = "2019-11-29 11:50:58 +0000";
layers = (
{
layerId = "210D674B-AD98-4874-A618-1698A23DB8A1";
paths = (
{
closed = 1;
nodes = (
"607 -49 OFFCURVE",
"611 34 OFFCURVE",
"611 76 CURVE SMOOTH",
"611 253 LINE",
"658 256 OFFCURVE",
"691 255 OFFCURVE",
"723 255 CURVE",
"723 40 LINE SMOOTH",
"723 0 OFFCURVE",
"725 -68 OFFCURVE",
"730 -84 CURVE SMOOTH",
"731 -88 OFFCURVE",
"735 -95 OFFCURVE",
"746 -91 CURVE SMOOTH",
"774 -83 OFFCURVE",
"778 0 OFFCURVE",
"778 42 CURVE SMOOTH",
"778 650 LINE SMOOTH",
"778 682 OFFCURVE",
"780 705 OFFCURVE",
"784 733 CURVE SMOOTH",
"785 741 OFFCURVE",
"779 746 OFFCURVE",
"772 753 CURVE SMOOTH",
"757 765 OFFCURVE",
"724 784 OFFCURVE",
"700 788 CURVE SMOOTH",
"689 790 OFFCURVE",
"679 785 OFFCURVE",
"672 773 CURVE SMOOTH",
"669 766 OFFCURVE",
"670 760 OFFCURVE",
"677 755 CURVE SMOOTH",
"725 726 OFFCURVE",
"723 713 OFFCURVE",
"723 651 CURVE SMOOTH",
"723 521 LINE",
"686 518 OFFCURVE",
"642 518 OFFCURVE",
"611 517 CURVE",
"611 595 LINE SMOOTH",
"611 627 OFFCURVE",
"610 665 OFFCURVE",
"615 694 CURVE SMOOTH",
"616 701 OFFCURVE",
"612 706 OFFCURVE",
"605 713 CURVE SMOOTH",
"597 721 OFFCURVE",
"560 746 OFFCURVE",
"538 748 CURVE SMOOTH",
"526 749 OFFCURVE",
"518 746 OFFCURVE",
"510 733 CURVE",
"507 726 OFFCURVE",
"508 720 OFFCURVE",
"515 715 CURVE SMOOTH",
"560 688 OFFCURVE",
"556 657 OFFCURVE",
"556 596 CURVE SMOOTH",
"556 74 LINE SMOOTH",
"556 34 OFFCURVE",
"558 -34 OFFCURVE",
"563 -50 CURVE SMOOTH",
"564 -54 OFFCURVE",
"570 -61 OFFCURVE",
"579 -57 CURVE"
);
},
{
closed = 1;
nodes = (
"487 230 OFFCURVE",
"454 221 OFFCURVE",
"398 210 CURVE",
"401 241 OFFCURVE",
"406 286 OFFCURVE",
"409 303 CURVE SMOOTH",
"412 330 OFFCURVE",
"415 355 OFFCURVE",
"420 374 CURVE SMOOTH",
"421 380 OFFCURVE",
"417 386 OFFCURVE",
"408 393 CURVE SMOOTH",
"393 405 OFFCURVE",
"371 415 OFFCURVE",
"356 419 CURVE SMOOTH",
"345 422 OFFCURVE",
"335 422 OFFCURVE",
"328 411 CURVE SMOOTH",
"323 402 OFFCURVE",
"324 396 OFFCURVE",
"332 392 CURVE",
"363 372 OFFCURVE",
"363 337 OFFCURVE",
"360 298 CURVE SMOOTH",
"351 202 LINE",
"319 198 OFFCURVE",
"282 193 OFFCURVE",
"239 189 CURVE",
"239 265 LINE SMOOTH",
"239 300 OFFCURVE",
"241 323 OFFCURVE",
"244 332 CURVE",
"244 339 OFFCURVE",
"239 346 OFFCURVE",
"228 354 CURVE SMOOTH",
"215 363 OFFCURVE",
"190 374 OFFCURVE",
"177 377 CURVE SMOOTH",
"164 380 OFFCURVE",
"154 376 OFFCURVE",
"147 364 CURVE SMOOTH",
"144 357 OFFCURVE",
"146 352 OFFCURVE",
"153 348 CURVE SMOOTH",
"187 330 OFFCURVE",
"192 311 OFFCURVE",
"195 262 CURVE SMOOTH",
"195 245 OFFCURVE",
"196 213 OFFCURVE",
"196 186 CURVE",
"153 183 OFFCURVE",
"109 181 OFFCURVE",
"65 188 CURVE",
"56 188 OFFCURVE",
"47 173 OFFCURVE",
"51 166 CURVE SMOOTH",
"58 157 OFFCURVE",
"78 143 OFFCURVE",
"93 135 CURVE SMOOTH",
"109 124 OFFCURVE",
"120 125 OFFCURVE",
"145 133 CURVE SMOOTH",
"180 144 OFFCURVE",
"208 146 OFFCURVE",
"260 153 CURVE SMOOTH",
"423 177 OFFCURVE",
"462 192 OFFCURVE",
"507 205 CURVE SMOOTH",
"535 213 OFFCURVE",
"538 245 OFFCURVE",
"510 237 CURVE SMOOTH"
);
},
{
closed = 1;
nodes = (
"611 476 LINE",
"658 479 OFFCURVE",
"691 478 OFFCURVE",
"723 478 CURVE",
"723 298 LINE",
"686 295 OFFCURVE",
"642 295 OFFCURVE",
"611 294 CURVE"
);
}
);
width = 900;
}
);
note = cid00444;
unicode = 3188;
},
{
glyphname = "yoICompa-ko";
lastChange = "2019-11-29 11:50:58 +0000";
layers = (
{
layerId = "210D674B-AD98-4874-A618-1698A23DB8A1";
paths = (
{
closed = 1;
nodes = (
"752 -83 OFFCURVE",
"758 1 OFFCURVE",
"758 41 CURVE SMOOTH",
"758 650 LINE SMOOTH",
"758 682 OFFCURVE",
"760 703 OFFCURVE",
"764 731 CURVE SMOOTH",
"765 739 OFFCURVE",
"760 746 OFFCURVE",
"753 751 CURVE SMOOTH",
"738 761 OFFCURVE",
"695 781 OFFCURVE",
"671 784 CURVE SMOOTH",
"659 785 OFFCURVE",
"652 783 OFFCURVE",
"644 770 CURVE SMOOTH",
"639 762 OFFCURVE",
"641 756 OFFCURVE",
"649 752 CURVE SMOOTH",
"700 725 OFFCURVE",
"701 712 OFFCURVE",
"701 651 CURVE SMOOTH",
"701 39 LINE SMOOTH",
"701 0 OFFCURVE",
"703 -68 OFFCURVE",
"708 -84 CURVE SMOOTH",
"709 -89 OFFCURVE",
"715 -95 OFFCURVE",
"724 -91 CURVE"
);
},
{
closed = 1;
nodes = (
"641 236 OFFCURVE",
"584 221 OFFCURVE",
"499 206 CURVE",
"502 237 OFFCURVE",
"505 286 OFFCURVE",
"508 303 CURVE SMOOTH",
"511 331 OFFCURVE",
"514 357 OFFCURVE",
"519 376 CURVE SMOOTH",
"520 382 OFFCURVE",
"516 388 OFFCURVE",
"507 395 CURVE SMOOTH",
"494 406 OFFCURVE",
"469 419 OFFCURVE",
"454 423 CURVE SMOOTH",
"441 427 OFFCURVE",
"432 424 OFFCURVE",
"425 413 CURVE SMOOTH",
"420 404 OFFCURVE",
"421 398 OFFCURVE",
"429 394 CURVE SMOOTH",
"462 378 OFFCURVE",
"461 338 OFFCURVE",
"458 298 CURVE SMOOTH",
"451 199 LINE",
"404 192 OFFCURVE",
"354 186 OFFCURVE",
"298 182 CURVE",
"298 264 LINE SMOOTH",
"298 299 OFFCURVE",
"300 325 OFFCURVE",
"303 334 CURVE",
"303 341 OFFCURVE",
"298 348 OFFCURVE",
"287 356 CURVE SMOOTH",
"272 365 OFFCURVE",
"248 376 OFFCURVE",
"235 379 CURVE SMOOTH",
"220 382 OFFCURVE",
"210 378 OFFCURVE",
"204 365 CURVE SMOOTH",
"201 358 OFFCURVE",
"203 353 OFFCURVE",
"210 349 CURVE SMOOTH",
"245 330 OFFCURVE",
"250 312 OFFCURVE",
"253 261 CURVE SMOOTH",
"254 242 OFFCURVE",
"254 203 OFFCURVE",
"254 178 CURVE",
"241 178 OFFCURVE",
"229 177 OFFCURVE",
"216 177 CURVE SMOOTH",
"171 174 OFFCURVE",
"118 175 OFFCURVE",
"70 182 CURVE",
"61 182 OFFCURVE",
"52 166 OFFCURVE",
"56 158 CURVE SMOOTH",
"59 150 OFFCURVE",
"92 129 OFFCURVE",
"105 121 CURVE SMOOTH",
"122 110 OFFCURVE",
"131 109 OFFCURVE",
"158 118 CURVE SMOOTH",
"192 129 OFFCURVE",
"264 137 OFFCURVE",
"315 142 CURVE SMOOTH",
"483 161 OFFCURVE",
"626 195 OFFCURVE",
"658 208 CURVE SMOOTH",
"682 219 OFFCURVE",
"686 251 OFFCURVE",
"660 243 CURVE SMOOTH"
);
}
);
width = 900;
}
);
note = cid00445;
unicode = 3189;
},
{
glyphname = "yuYeoCompa-ko";
lastChange = "2019-11-29 11:50:58 +0000";
layers = (
{
layerId = "210D674B-AD98-4874-A618-1698A23DB8A1";
paths = (
{
closed = 1;
nodes = (
"761 -83 OFFCURVE",
"768 31 OFFCURVE",
"768 71 CURVE SMOOTH",
"768 650 LINE SMOOTH",
"768 682 OFFCURVE",
"770 703 OFFCURVE",
"774 731 CURVE SMOOTH",
"775 739 OFFCURVE",
"769 746 OFFCURVE",
"762 751 CURVE SMOOTH",
"747 761 OFFCURVE",
"704 781 OFFCURVE",
"681 784 CURVE SMOOTH",
"669 785 OFFCURVE",
"661 783 OFFCURVE",
"653 770 CURVE SMOOTH",
"648 762 OFFCURVE",
"650 756 OFFCURVE",
"658 752 CURVE SMOOTH",
"709 725 OFFCURVE",
"711 712 OFFCURVE",
"711 651 CURVE SMOOTH",
"711 272 LINE",
"702 272 LINE SMOOTH",
"605 264 OFFCURVE",
"572 269 OFFCURVE",
"542 274 CURVE SMOOTH",
"531 277 OFFCURVE",
"521 259 OFFCURVE",
"525 251 CURVE SMOOTH",
"528 244 OFFCURVE",
"553 229 OFFCURVE",
"564 222 CURVE",
"575 218 OFFCURVE",
"583 218 OFFCURVE",
"596 221 CURVE SMOOTH",
"636 229 OFFCURVE",
"654 229 OFFCURVE",
"688 232 CURVE SMOOTH",
"711 233 LINE",
"711 122 LINE",
"697 122 LINE SMOOTH",
"601 117 OFFCURVE",
"567 115 OFFCURVE",
"536 123 CURVE SMOOTH",
"527 126 OFFCURVE",
"516 109 OFFCURVE",
"519 102 CURVE SMOOTH",
"521 95 OFFCURVE",
"547 77 OFFCURVE",
"557 72 CURVE SMOOTH",
"568 65 OFFCURVE",
"574 65 OFFCURVE",
"589 68 CURVE SMOOTH",
"627 76 OFFCURVE",
"639 80 OFFCURVE",
"711 85 CURVE",
"711 39 LINE SMOOTH",
"711 0 OFFCURVE",
"712 -68 OFFCURVE",
"717 -84 CURVE SMOOTH",
"718 -89 OFFCURVE",
"723 -95 OFFCURVE",
"734 -91 CURVE SMOOTH"
);
},
{
closed = 1;
nodes = (
"580 395 OFFCURVE",
"454 350 OFFCURVE",
"211 345 CURVE SMOOTH",
"166 344 OFFCURVE",
"113 344 OFFCURVE",
"65 349 CURVE",
"56 349 OFFCURVE",
"47 334 OFFCURVE",
"51 326 CURVE SMOOTH",
"54 317 OFFCURVE",
"86 296 OFFCURVE",
"100 288 CURVE SMOOTH",
"117 279 OFFCURVE",
"126 277 OFFCURVE",
"153 285 CURVE SMOOTH",
"170 290 OFFCURVE",
"195 294 OFFCURVE",
"223 298 CURVE",
"226 190 OFFCURVE",
"202 70 OFFCURVE",
"178 -1 CURVE SMOOTH",
"173 -19 OFFCURVE",
"200 -21 OFFCURVE",
"214 -5 CURVE SMOOTH",
"270 64 OFFCURVE",
"289 235 OFFCURVE",
"286 305 CURVE",
"310 308 LINE SMOOTH",
"338 311 OFFCURVE",
"364 314 OFFCURVE",
"388 318 CURVE",
"388 98 LINE SMOOTH",
"388 58 OFFCURVE",
"390 -10 OFFCURVE",
"395 -25 CURVE SMOOTH",
"396 -30 OFFCURVE",
"402 -37 OFFCURVE",
"411 -33 CURVE SMOOTH",
"439 -22 OFFCURVE",
"445 57 OFFCURVE",
"445 100 CURVE SMOOTH",
"445 327 LINE",
"544 344 OFFCURVE",
"593 361 OFFCURVE",
"624 374 CURVE SMOOTH",
"648 382 OFFCURVE",
"648 418 OFFCURVE",
"624 410 CURVE SMOOTH"
);
}
);
width = 900;
}
);
note = cid00446;
unicode = 318A;
},
